<?xml version="1.0" encoding="UTF-8" standalone="no"?>
<svg
   xmlns:dc="http://purl.org/dc/elements/1.1/"
   xmlns:cc="http://creativecommons.org/ns#"
   xmlns:rdf="http://www.w3.org/1999/02/22-rdf-syntax-ns#"
   xmlns:svg="http://www.w3.org/2000/svg"
   xmlns="http://www.w3.org/2000/svg"
   width="302"
   height="115"
   viewBox="0 0 600.00001 300"
   id="svg4136"
   version="1.1">
  <defs
     id="defs4138" />
  <metadata
     id="metadata4141">
    <rdf:RDF>
      <cc:Work
         rdf:about="">
        <dc:format>image/svg+xml</dc:format>
        <dc:type
           rdf:resource="http://purl.org/dc/dcmitype/StillImage" />
        <dc:title></dc:title>
      </cc:Work>
    </rdf:RDF>
  </metadata>
  <path
     id="path4236"
     d="m 114.31709,213.79008 0,-26.85771 -4.3105,-4.47628 0,-12.93149 32.32872,0 0,-7.29469 43.60232,0 0,-4.64207 29.84191,0 0,-5.47102 61.34168,0 0,3.81313 9.61573,0 0,5.13944 20.06038,0 0,-11.10782 4.64207,0 0,-12.93148 87.37043,0 0,4.64207 11.27361,0 1.82369,20.55775 34.31817,0 0,-4.14471 33.98661,0 0,8.12363 17.57356,0 0,27.68665 -16.08146,0 0,8.62099 -33.65505,0 0,-6.29995 -34.15239,0 0,18.56829 -12.59989,0 0,5.30522 -88.36519,0 0,-11.2736 -5.96838,0 0,-14.2578 -17.24199,17.24199 -33.8208,0 c -5.54582,9.65522 -8.979,19.63547 -8.78679,30.17347 l 5.73516,3.3112 -3.95353,6.8477 -31.45774,-12.31414 c 1.60012,-13.70305 7.90792,-25.91947 17.90515,-36.9708 l 0,-5.13944 -56.86539,0 c -10.73752,1.35676 -20.42799,4.2841 -28.5156,9.61573 -10.85573,6.56925 -22.9478,7.81834 -35.64449,6.46574 z"
     style="fill:#c7c7c7;fill-rule:evenodd;stroke:none;stroke-width:2.60869575px;stroke-linecap:butt;stroke-linejoin:miter;stroke-opacity:1;fill-opacity:1;opacity:1" />
</svg>
