<?xml version="1.0" encoding="UTF-8" standalone="no"?>
<svg
   xmlns:dc="http://purl.org/dc/elements/1.1/"
   xmlns:cc="http://creativecommons.org/ns#"
   xmlns:rdf="http://www.w3.org/1999/02/22-rdf-syntax-ns#"
   xmlns:svg="http://www.w3.org/2000/svg"
   xmlns="http://www.w3.org/2000/svg"
   width="302"
   height="115"
   viewBox="0 0 600.00001 300"
   id="svg4136"
   version="1.1">
  <defs
     id="defs4138" />
  <metadata
     id="metadata4141">
    <rdf:RDF>
      <cc:Work
         rdf:about="">
        <dc:format>image/svg+xml</dc:format>
        <dc:type
           rdf:resource="http://purl.org/dc/dcmitype/StillImage" />
        <dc:title></dc:title>
      </cc:Work>
    </rdf:RDF>
  </metadata>
  <path
     id="path4559"
     transform="matrix(2.6086957,0,0,2.6086957,-93.913045,0)"
     d="M 129.48828 50.298828 L 123.39062 57.193359 L 117.64453 57.193359 L 114.81641 54.365234 L 90.597656 54.365234 L 90.597656 57.105469 L 78.046875 57.105469 L 78.046875 67.269531 L 89.714844 73.103516 L 93.337891 73.103516 C 89.867237 78.304705 88.170462 84.294512 86.796875 90.427734 L 97.845703 94.847656 L 99.259766 91.929688 L 97.050781 90.78125 C 98.342553 87.102458 99.648182 83.429383 99.791016 79.291016 L 114.72852 79.291016 L 117.55664 77.082031 L 120.5625 81.236328 L 124.53906 81.236328 L 124.53906 73.544922 L 129.66602 73.544922 L 129.66602 96.4375 L 153.53125 96.4375 L 153.53125 84.240234 L 157.94922 84.240234 C 158.47348 79.730582 161.20173 79.905656 163.51758 79.203125 L 194.45508 79.203125 L 197.54883 77.611328 L 217.08203 77.611328 L 217.08203 74.429688 L 226.36328 74.429688 L 226.36328 67.800781 L 212.57422 67.800781 L 212.57422 66.033203 L 203.4707 66.033203 L 200.37695 62.761719 L 200.37695 59.933594 L 172.44531 55.603516 L 168.02539 63.205078 L 165.9043 63.205078 L 161.2207 57.990234 L 161.2207 56.486328 L 153.35352 51.625 L 153.35352 50.298828 L 129.48828 50.298828 z M 109.64648 73.414062 L 116.80469 73.414062 L 113.84375 77.390625 L 109.64648 77.390625 L 109.64648 73.414062 z "
     style="fill:#c7c7c7;fill-rule:evenodd;stroke:none;stroke-width:1px;stroke-linecap:butt;stroke-linejoin:miter;stroke-opacity:1;fill-opacity:1;opacity:1" />
</svg>
