<?xml version="1.0" encoding="UTF-8" standalone="no"?>
<svg
   xmlns:dc="http://purl.org/dc/elements/1.1/"
   xmlns:cc="http://creativecommons.org/ns#"
   xmlns:rdf="http://www.w3.org/1999/02/22-rdf-syntax-ns#"
   xmlns:svg="http://www.w3.org/2000/svg"
   xmlns="http://www.w3.org/2000/svg"
   version="1.1"
   id="svg2"
   viewBox="0 0 300 300"
   height="300"
   width="300">
  <defs
     id="defs4" />
  <metadata
     id="metadata7">
    <rdf:RDF>
      <cc:Work
         rdf:about="">
        <dc:format>image/svg+xml</dc:format>
        <dc:type
           rdf:resource="http://purl.org/dc/dcmitype/StillImage" />
        <dc:title></dc:title>
      </cc:Work>
    </rdf:RDF>
  </metadata>
  <path
     id="path4602"
     d="m 140.64219,43.061242 -7.3086,134.111328 26.99414,0 -7.30859,-134.111328 z"
     style="fill:#b5c09e;fill-rule:evenodd;stroke:none;stroke-width:1px;stroke-linecap:butt;stroke-linejoin:miter;stroke-opacity:1;fill-opacity:1;opacity:1" />
  <path
     id="path4584"
     d="M 146.7793 24.048828 L 134.90625 37.306641 L 140.07422 48.542969 L 153.48438 48.542969 L 158.65234 37.306641 L 146.7793 24.048828 z M 104.55469 28.283203 L 74.365234 62.289062 L 48.623047 50.210938 C 48.623047 50.210937 19.067764 99.15182 16.525391 101.05859 L 48.623047 72.140625 L 79.767578 84.851562 L 104.55469 28.283203 z M 189.40625 30.507812 L 224.68164 88.347656 L 252.33008 69.597656 L 277.11914 102.01367 L 260.91016 46.716797 L 228.49609 63.242188 L 189.40625 30.507812 z M 119.82422 61.005859 L 110.49219 74.988281 L 122.93555 114.08203 L 134.13086 114.08203 L 131.33398 147.45117 L 100.22656 159.21289 L 100.22656 178.28125 L 89.960938 178.28125 L 87.474609 206.56836 L 92.761719 206.56836 L 92.761719 228.17969 L 73.166016 235.48828 L 73.166016 269.49805 L 137.56836 269.49805 L 157.77344 269.49805 L 222.17578 269.49805 L 222.17578 235.48828 L 202.58008 228.17969 L 202.58008 206.56836 L 207.86914 206.56836 L 205.37891 178.28125 L 195.11523 178.28125 L 195.11523 159.21289 L 164.00781 147.45117 L 161.20898 114.08203 L 172.4082 114.08203 L 184.84961 74.988281 L 175.51758 61.005859 L 167.21484 92.666016 L 153.74414 92.666016 L 153.74414 106.45312 L 153.10742 106.45312 L 142.23633 106.45312 L 141.59766 106.45312 L 141.59766 92.666016 L 128.12695 92.666016 L 119.82422 61.005859 z M 146.66406 124.25781 C 152.36848 124.25794 156.99262 128.38452 156.99219 133.47461 C 156.99119 133.49601 156.98928 133.51756 156.98828 133.53906 L 157.62695 166.84375 L 135.69922 166.84375 L 136.33594 133.53906 C 136.33494 133.51766 136.33455 133.49611 136.33398 133.47461 C 136.33355 128.38384 140.95888 124.25698 146.66406 124.25781 z "
     style="fill:#ffffff;fill-rule:evenodd;stroke:none;stroke-width:0.98938489px;stroke-linecap:butt;stroke-linejoin:miter;stroke-opacity:1;fill-opacity:1" />
</svg>
