<?xml version="1.0" encoding="UTF-8" standalone="no"?>
<svg
   xmlns:dc="http://purl.org/dc/elements/1.1/"
   xmlns:cc="http://creativecommons.org/ns#"
   xmlns:rdf="http://www.w3.org/1999/02/22-rdf-syntax-ns#"
   xmlns:svg="http://www.w3.org/2000/svg"
   xmlns="http://www.w3.org/2000/svg"
   width="300"
   height="300"
   viewBox="0 0 300 300"
   id="svg2"
   version="1.1">
  <defs
     id="defs4" />
  <metadata
     id="metadata7">
    <rdf:RDF>
      <cc:Work
         rdf:about="">
        <dc:format>image/svg+xml</dc:format>
        <dc:type
           rdf:resource="http://purl.org/dc/dcmitype/StillImage" />
        <dc:title></dc:title>
      </cc:Work>
    </rdf:RDF>
  </metadata>
  <path
     id="path4158"
     d="M 58.425781 106.74414 L 22.021484 131.91211 L 22.021484 163.37305 L 86.291016 241.57422 L 128.08789 241.57422 L 142.4707 230.33789 L 141.12109 214.1582 L 130.9668 200.96875 L 141.41992 193.2207 L 88.347656 138.55859 L 84.96875 141.2207 L 58.425781 106.74414 z "
     style="fill:#bed2db;fill-rule:evenodd;stroke:none;stroke-width:1px;stroke-linecap:butt;stroke-linejoin:miter;stroke-opacity:1;fill-opacity:1;opacity:1" />
  <path
     id="path4166"
     d="m 236.44068,207.20339 c 4.69506,-6.33796 2.16715,-10.87018 0.31779,-15.57203 l -18.4322,-21.61017 25.42373,-26.37712 -70.23305,-79.131358 -19.70339,18.432203 -48.62288,19.385595 -18.432205,9.85169 0,27.01272 61.334745,67.37288 13.34746,-9.5339 30.82627,30.50847 c 5.09308,2.08532 10.39578,3.33215 17.16102,-1.27118 z"
     style="opacity:1;fill:#ffffff;fill-opacity:1;fill-rule:evenodd;stroke:none;stroke-width:1px;stroke-linecap:butt;stroke-linejoin:miter;stroke-opacity:1" />
  <path
     id="path4164"
     d="m 99.470339,101.69492 0,-17.796615 34.639831,-22.245763 9.2161,0 9.2161,12.076271 9.5339,0 42.26695,45.762717 c 7.69737,17.47578 22.96116,28.10576 14.30085,60.38135 l -24.15254,13.98305 c -24.9254,6.9653 -28.57625,-0.73921 -37.5,-10.80508 l 0,-17.47882 z"
     style="fill:#bed2db;fill-rule:evenodd;stroke:none;stroke-width:1px;stroke-linecap:butt;stroke-linejoin:miter;stroke-opacity:1;fill-opacity:1;opacity:1" />
  <path
     id="path4160"
     d="m 168.4322,69.597457 0,-20.021186 34.63983,-20.021187 56.8856,54.661017 17.47881,36.864409 -9.5339,29.23729 -21.92796,15.88983 -12.71187,-13.02966 0,-11.12289 -6.35593,-12.71186 z"
     style="fill:#bed2db;fill-rule:evenodd;stroke:none;stroke-width:1px;stroke-linecap:butt;stroke-linejoin:miter;stroke-opacity:1;fill-opacity:1;opacity:1" />
  <path
     id="rect4137"
     d="m 127.2107,87.644913 10.39639,12.173453 -14.66612,8.627534 7.01713,8.21659 14.66614,-8.62753 10.39526,12.17213 9.90012,-5.82386 -10.39527,-12.17214 14.66772,-8.628468 -7.01713,-8.216583 -14.66773,8.628465 -10.39639,-12.173458 -9.90012,5.823867 z"
     style="opacity:1;fill:#ffffff;fill-opacity:1;fill-rule:evenodd;stroke:none;stroke-opacity:1" />
</svg>
