<?xml version="1.0" encoding="UTF-8" standalone="no"?>
<svg
   xmlns:dc="http://purl.org/dc/elements/1.1/"
   xmlns:cc="http://creativecommons.org/ns#"
   xmlns:rdf="http://www.w3.org/1999/02/22-rdf-syntax-ns#"
   xmlns:svg="http://www.w3.org/2000/svg"
   xmlns="http://www.w3.org/2000/svg"
   width="300"
   height="300"
   viewBox="0 0 300 300"
   id="svg2"
   version="1.1">
  <defs
     id="defs4" />
  <metadata
     id="metadata7">
    <rdf:RDF>
      <cc:Work
         rdf:about="">
        <dc:format>image/svg+xml</dc:format>
        <dc:type
           rdf:resource="http://purl.org/dc/dcmitype/StillImage" />
        <dc:title></dc:title>
      </cc:Work>
    </rdf:RDF>
  </metadata>
  <path
     id="path4387"
     d="m 13.033536,99.103778 71.909162,-4.943755 95.279642,144.717187 -42.69607,0.44943 -32.35912,-22.02218 z"
     style="fill:#c0d4db;fill-rule:evenodd;stroke:none;stroke-width:1px;stroke-linecap:butt;stroke-linejoin:miter;stroke-opacity:1;fill-opacity:1;opacity:1" />
  <path
     id="path4395"
     d="m 163.36863,84.272513 28.98838,-3.595458 60.89807,85.841565 -40.33136,9.22291 45.12712,59.42796 -9.24804,7.2548 -78.74968,-101.02077 z"
     style="fill:#ffffff;fill-rule:evenodd;stroke:none;stroke-width:1px;stroke-linecap:butt;stroke-linejoin:miter;stroke-opacity:1;fill-opacity:1;opacity:1" />
  <path
     id="path4389"
     d="m 179.32347,71.238978 86.291,126.290462 8.08978,-28.76366 0,-35.95458 -61.57222,-106.964881 z"
     style="fill:#c0d4db;fill-rule:evenodd;stroke:none;stroke-width:1px;stroke-linecap:butt;stroke-linejoin:miter;stroke-opacity:1;fill-opacity:1;opacity:1" />
  <path
     id="path4393"
     d="m 116.40296,91.013997 37.30287,-20.224452 62.47109,61.572225 20.67388,79.99894 -23.81991,8.98864 -33.25798,-29.66253 -13.48297,5.84262 -49.88698,-64.26881 z"
     style="fill:#c0d4db;fill-rule:evenodd;stroke:none;stroke-width:1px;stroke-linecap:butt;stroke-linejoin:miter;stroke-opacity:1;fill-opacity:1;opacity:1" />
  <path
     id="path4391"
     d="M 128.98706,91.46343 179.77291,132.8112 156.40243,79.778191 Z"
     style="fill:#ffffff;fill-rule:evenodd;stroke:none;stroke-width:1px;stroke-linecap:butt;stroke-linejoin:miter;stroke-opacity:1;fill-opacity:1;opacity:1" />
  <path
     id="path4385"
     d="m 151.90811,206.06866 -50.33642,-67.86428 4.04489,-22.92104 16.17956,0.89886 45.39266,50.78585 0,20.22445 5.39319,0 51.23528,62.47109 -9.88751,6.74148 -44.04436,-55.7296 z"
     style="fill:#ffffff;fill-rule:evenodd;stroke:none;stroke-width:1px;stroke-linecap:butt;stroke-linejoin:miter;stroke-opacity:1;fill-opacity:1;opacity:1" />
</svg>
