<?xml version="1.0" encoding="UTF-8" standalone="no"?>
<svg
   xmlns:dc="http://purl.org/dc/elements/1.1/"
   xmlns:cc="http://creativecommons.org/ns#"
   xmlns:rdf="http://www.w3.org/1999/02/22-rdf-syntax-ns#"
   xmlns:svg="http://www.w3.org/2000/svg"
   xmlns="http://www.w3.org/2000/svg"
   xmlns:xlink="http://www.w3.org/1999/xlink"
   version="1.1"
   id="svg2"
   viewBox="0 0 300 300"
   height="300"
   width="300">
  <defs
     id="defs4" />
  <metadata
     id="metadata7">
    <rdf:RDF>
      <cc:Work
         rdf:about="">
        <dc:format>image/svg+xml</dc:format>
        <dc:type
           rdf:resource="http://purl.org/dc/dcmitype/StillImage" />
        <dc:title></dc:title>
      </cc:Work>
    </rdf:RDF>
  </metadata>
  <g
     id="g4641">
    <path
       style="fill:#c5d2b9;fill-rule:evenodd;stroke:none;stroke-width:1px;stroke-linecap:butt;stroke-linejoin:miter;stroke-opacity:1;opacity:1;fill-opacity:1"
       d="m 29.213098,224.04595 -8.539213,-26.51651 43.594931,-5.84262 c 2.740132,-7.34073 5.852738,-14.68145 12.134671,-22.02218 l -0.898865,-21.57275 24.269343,-0.44943 8.539215,11.23581 c 16.57204,1.30346 25.69406,-5.62467 49.43755,17.97729 l 37.30288,0.44943 10.78637,22.47161 -34.15685,3.14603 c -0.42574,13.37787 -6.84599,21.76031 -14.38183,29.2131 l 8.98864,26.06707 -29.2131,8.98864 -26.06707,-27.41537 C 96.207669,236.00164 83.159925,230.47285 75.504622,219.55162 Z"
       id="path4635" />
    <ellipse
       style="opacity:1;fill:#808f6e;fill-opacity:1;fill-rule:evenodd;stroke:none;stroke-width:2;stroke-miterlimit:4;stroke-dasharray:none;stroke-opacity:1"
       id="path4639"
       cx="117.74364"
       cy="186.22881"
       rx="32.574154"
       ry="22.881357" />
    <ellipse
       style="opacity:1;fill:#ffffff;fill-opacity:1;fill-rule:evenodd;stroke:none;stroke-width:2;stroke-miterlimit:4;stroke-dasharray:none;stroke-opacity:1"
       id="path4637"
       cx="119.49152"
       cy="182.25635"
       rx="24.788136"
       ry="15.730932" />
  </g>
  <use
     height="100%"
     width="100%"
     transform="matrix(0.56072483,0.09876195,-0.09876195,0.56072483,41.488409,-52.593546)"
     id="use4646"
     xlink:href="#g4641"
     y="0"
     x="0" />
  <use
     height="100%"
     width="100%"
     transform="matrix(-0.77694638,0.04407405,0.04407405,0.77694638,292.0223,-50.186059)"
     id="use4650"
     xlink:href="#g4641"
     y="0"
     x="0" />
</svg>
