<?xml version="1.0" encoding="UTF-8" standalone="no"?>
<svg
   xmlns:dc="http://purl.org/dc/elements/1.1/"
   xmlns:cc="http://creativecommons.org/ns#"
   xmlns:rdf="http://www.w3.org/1999/02/22-rdf-syntax-ns#"
   xmlns:svg="http://www.w3.org/2000/svg"
   xmlns="http://www.w3.org/2000/svg"
   xmlns:xlink="http://www.w3.org/1999/xlink"
   version="1.1"
   id="svg2"
   viewBox="0 0 300 300"
   height="300"
   width="300">
  <defs
     id="defs4" />
  <metadata
     id="metadata7">
    <rdf:RDF>
      <cc:Work
         rdf:about="">
        <dc:format>image/svg+xml</dc:format>
        <dc:type
           rdf:resource="http://purl.org/dc/dcmitype/StillImage" />
        <dc:title></dc:title>
      </cc:Work>
    </rdf:RDF>
  </metadata>
  <path
     id="path4678"
     d="M 149.21152,254.15791 C 44.570133,192.80228 75.792115,124.95119 271.90653,49.21679 128.38374,67.192118 -105.41424,236.25632 149.21152,254.15791 Z"
     style="fill:#97aa75;fill-rule:evenodd;stroke:none;stroke-width:1px;stroke-linecap:butt;stroke-linejoin:miter;stroke-opacity:1;fill-opacity:1;opacity:1" />
  <g
     style="opacity:1"
     id="g4641">
    <path
       style="fill:#c5d2b9;fill-rule:evenodd;stroke:none;stroke-width:1px;stroke-linecap:butt;stroke-linejoin:miter;stroke-opacity:1;opacity:1;fill-opacity:1"
       d="m 29.213098,224.04595 -8.539213,-26.51651 43.594931,-5.84262 c 2.740132,-7.34073 5.852738,-14.68145 12.134671,-22.02218 l -0.898865,-21.57275 24.269343,-0.44943 8.539215,11.23581 c 16.57204,1.30346 25.69406,-5.62467 49.43755,17.97729 l 37.30288,0.44943 10.78637,22.47161 -34.15685,3.14603 c -0.42574,13.37787 -6.84599,21.76031 -14.38183,29.2131 l 8.98864,26.06707 -29.2131,8.98864 -26.06707,-27.41537 C 96.207669,236.00164 83.159925,230.47285 75.504622,219.55162 Z"
       id="path4635" />
    <ellipse
       style="opacity:1;fill:#808f6e;fill-opacity:1;fill-rule:evenodd;stroke:none;stroke-width:2;stroke-miterlimit:4;stroke-dasharray:none;stroke-opacity:1"
       id="path4639"
       cx="117.74364"
       cy="186.22881"
       rx="32.574154"
       ry="22.881357" />
    <ellipse
       style="opacity:1;fill:#ffffff;fill-opacity:1;fill-rule:evenodd;stroke:none;stroke-width:2;stroke-miterlimit:4;stroke-dasharray:none;stroke-opacity:1"
       id="path4637"
       cx="119.49152"
       cy="182.25635"
       rx="24.788136"
       ry="15.730932" />
  </g>
  <use
     style="opacity:1"
     height="100%"
     width="100%"
     transform="matrix(0.56072483,0.09876195,-0.09876195,0.56072483,41.488409,-52.593546)"
     id="use4646"
     xlink:href="#g4641"
     y="0"
     x="0" />
  <use
     style="opacity:1"
     height="100%"
     width="100%"
     transform="matrix(-0.77694638,0.04407405,0.04407405,0.77694638,292.0223,-50.186059)"
     id="use4650"
     xlink:href="#g4641"
     y="0"
     x="0" />
  <path
     id="path4671"
     d="M 195.12695 7.6269531 L 189.40625 42.902344 L 163.0293 59.427734 L 187.81836 65.783203 L 183.68555 110.27539 L 212.60547 71.822266 L 256.46094 83.263672 L 232.94531 45.763672 L 244.06836 23.517578 L 211.01758 28.601562 L 195.12695 7.6269531 z M 78.650391 84.273438 L 60.224609 107.64258 L 36.853516 106.74414 L 43.144531 128.31641 L 20.224609 159.77734 L 56.628906 147.19336 L 74.605469 178.65234 L 76.853516 139.10352 L 99.773438 128.31641 L 81.796875 118.87891 L 78.650391 84.273438 z M 216.62695 155.73242 L 201.3457 192.13672 L 184.26758 186.74219 L 195.95312 210.5625 L 185.61523 241.125 L 209.88477 231.23633 L 227.41211 245.61914 L 225.16602 221.34961 L 253.48047 204.7207 L 224.26758 198.42773 L 216.62695 155.73242 z "
     style="fill:#ffffff;fill-rule:evenodd;stroke:none;stroke-width:1px;stroke-linecap:butt;stroke-linejoin:miter;stroke-opacity:1;fill-opacity:1;opacity:1" />
</svg>
