<?xml version="1.0" encoding="UTF-8" standalone="no"?>
<svg
   xmlns:dc="http://purl.org/dc/elements/1.1/"
   xmlns:cc="http://creativecommons.org/ns#"
   xmlns:rdf="http://www.w3.org/1999/02/22-rdf-syntax-ns#"
   xmlns:svg="http://www.w3.org/2000/svg"
   xmlns="http://www.w3.org/2000/svg"
   version="1.1"
   id="svg2"
   viewBox="0 0 300 300"
   height="300"
   width="300">
  <defs
     id="defs4" />
  <metadata
     id="metadata7">
    <rdf:RDF>
      <cc:Work
         rdf:about="">
        <dc:format>image/svg+xml</dc:format>
        <dc:type
           rdf:resource="http://purl.org/dc/dcmitype/StillImage" />
        <dc:title></dc:title>
      </cc:Work>
    </rdf:RDF>
  </metadata>
  <path
     id="path4833"
     d="M 131.96289 72.535156 L 111.22852 80.083984 L 115.20898 86.416016 A 66.737289 111.54661 86.517296 0 0 47.251953 151.625 L 17.796875 159.5332 L 20.974609 177.9668 L 52.242188 170.00781 A 66.737289 111.54661 86.517296 0 0 162.63477 212.80078 A 66.737289 111.54661 86.517296 0 0 175.0625 211.58789 L 193.2207 247.24609 L 232.62695 231.35547 L 213.83789 201.99609 A 66.737289 111.54661 86.517296 0 0 269.92188 139.41016 A 66.737289 111.54661 86.517296 0 0 257.21875 111.44531 L 284.10938 103.60156 L 267.58398 90.253906 L 241.50195 98.349609 A 66.737289 111.54661 86.517296 0 0 165.66211 79.228516 A 66.737289 111.54661 86.517296 0 0 154.52734 79.572266 A 66.737289 111.54661 86.517296 0 0 137.68555 81.455078 L 131.96289 72.535156 z M 164.35938 89.398438 A 53.117039 88.781334 86.517296 0 1 223.49609 103.9375 L 212.28906 107.41602 L 223.09375 121.39844 L 238.77148 116.82617 A 53.117039 88.781334 86.517296 0 1 247.3418 137.29688 A 53.117039 88.781334 86.517296 0 1 203.97852 186.59375 L 191.94922 167.79688 L 158.26367 178.60156 L 166.77344 195.3125 A 53.117039 88.781334 86.517296 0 1 161.95117 195.70898 A 53.117039 88.781334 86.517296 0 1 75.486328 164.08984 L 90.890625 160.16992 L 86.441406 141.10156 L 70.169922 145.4707 A 53.117039 88.781334 86.517296 0 1 121.24414 96.017578 L 125.21094 102.33008 L 146.18555 94.703125 L 143.75781 90.919922 A 53.117039 88.781334 86.517296 0 1 155.49609 89.671875 A 53.117039 88.781334 86.517296 0 1 164.35938 89.398438 z "
     style="opacity:1;fill:#ffffff;fill-opacity:1;fill-rule:evenodd;stroke:none;stroke-width:16;stroke-miterlimit:4;stroke-dasharray:none;stroke-opacity:1" />
</svg>
