<?xml version="1.0" encoding="UTF-8" standalone="no"?>
<svg
   xmlns:dc="http://purl.org/dc/elements/1.1/"
   xmlns:cc="http://creativecommons.org/ns#"
   xmlns:rdf="http://www.w3.org/1999/02/22-rdf-syntax-ns#"
   xmlns:svg="http://www.w3.org/2000/svg"
   xmlns="http://www.w3.org/2000/svg"
   xmlns:xlink="http://www.w3.org/1999/xlink"
   version="1.1"
   id="svg4136"
   viewBox="0 0 600.00001 300"
   height="115"
   width="302">
  <defs
     id="defs4138">
    <linearGradient
       id="linearGradient5130">
      <stop
         id="stop5132"
         offset="0"
         style="stop-color:#d7d7d7;stop-opacity:1;" />
      <stop
         id="stop5134"
         offset="1"
         style="stop-color:#d7d7d7;stop-opacity:0;" />
    </linearGradient>
    <linearGradient
       gradientTransform="translate(0,-108.41123)"
       gradientUnits="userSpaceOnUse"
       y2="299.9053"
       x2="194.42821"
       y1="295.36453"
       x1="519.66101"
       id="linearGradient5136"
       xlink:href="#linearGradient5130" />
  </defs>
  <metadata
     id="metadata4141">
    <rdf:RDF>
      <cc:Work
         rdf:about="">
        <dc:format>image/svg+xml</dc:format>
        <dc:type
           rdf:resource="http://purl.org/dc/dcmitype/StillImage" />
        <dc:title></dc:title>
      </cc:Work>
    </rdf:RDF>
  </metadata>
  <path
     id="rect5125"
     d="m 518.80944,134.73252 0,26.96331 -329.49047,0 0,55.05775 329.49047,0 0,24.6909 93.93854,-52.79042 -93.93854,-53.92154 z"
     style="opacity:0.75199998;fill:url(#linearGradient5136);fill-opacity:1;fill-rule:nonzero;stroke:none;stroke-opacity:1" />
  <path
     id="path5098"
     transform="matrix(2.6086957,0,0,2.6086957,-93.913045,0)"
     d="m 121.77344,50.304688 -6.93829,13.174559 c -0.78931,1.477126 -1.28995,3.144497 -1.29218,4.827394 5.8e-4,4.460106 3.61606,8.075592 8.07617,8.076171 4.46087,5.03e-4 8.07755,-3.615299 8.07813,-8.076171 -0.003,-1.721186 -0.66489,-3.450746 -1.41495,-4.944434 z"
     style="opacity:1;fill:#efedef;fill-opacity:1;fill-rule:nonzero;stroke:none;stroke-opacity:1" />
  <use
     height="100%"
     width="100%"
     transform="translate(43.988849,47.394438)"
     id="use5103"
     xlink:href="#path5098"
     y="0"
     x="0" />
  <use
     height="100%"
     width="100%"
     transform="translate(47.394438,-44.272649)"
     id="use5105"
     xlink:href="#use5103"
     y="0"
     x="0" />
  <path
     id="rect5107"
     transform="matrix(2.6086957,0,0,2.6086957,-93.913045,0)"
     d="M 184.41016 70.431641 L 182.09375 72.748047 L 183.46875 74.125 L 183.46875 78.990234 L 179.25586 76.558594 L 178.75 74.677734 L 175.58594 75.527344 L 176.43359 78.693359 L 178.25977 78.203125 L 182.48828 80.644531 L 178.3125 83.054688 L 176.43359 82.552734 L 175.58594 85.716797 L 178.75 86.566406 L 179.24023 84.738281 L 183.46875 82.296875 L 183.46875 87.119141 L 182.09375 88.496094 L 184.41016 90.8125 L 186.72852 88.496094 L 185.39062 87.158203 L 185.39062 82.318359 L 189.58203 84.738281 L 190.07227 86.566406 L 193.23633 85.716797 L 192.38867 82.552734 L 190.50781 83.054688 L 186.33203 80.644531 L 190.56055 78.203125 L 192.38867 78.691406 L 193.23633 75.525391 L 190.07227 74.677734 L 189.56641 76.556641 L 185.39062 78.966797 L 185.39062 74.085938 L 186.72852 72.748047 L 184.41016 70.431641 z "
     style="opacity:1;fill:#eeeeee;fill-opacity:1;fill-rule:nonzero;stroke:none;stroke-opacity:1" />
  <use
     height="100%"
     width="100%"
     transform="translate(35.519691,-41.339301)"
     id="use5121"
     xlink:href="#rect5107"
     y="0"
     x="0" />
  <use
     height="100%"
     width="100%"
     transform="translate(36.924424,40.536596)"
     id="use5123"
     xlink:href="#use5121"
     y="0"
     x="0" />
  <path
     style="opacity:1;fill:#737373;fill-opacity:1;fill-rule:evenodd;stroke:none;stroke-width:2.60869575px;stroke-linecap:butt;stroke-linejoin:miter;stroke-opacity:1"
     d="m -38.185917,83.671877 c 6.14436,29.862563 10.041175,60.173433 10.837296,91.105643 l -8.432405,33.31182 8.432405,9.63485 c -4.393758,14.45572 -6.825422,29.56779 -4.819972,46.1566 l 40.5366843,0 0,-180.208913 -46.5540083,0 z"
     id="path5150" />
  <path
     id="path5140"
     transform="matrix(2.6086957,0,0,2.6086957,-93.913045,0)"
     d="M 29.847656 32.074219 C 32.202994 43.521536 33.696773 55.1407 34.001953 66.998047 L 30.769531 79.767578 L 34.001953 83.460938 C 32.317679 89.002296 31.385541 94.795258 32.154297 101.1543 L 47.693359 101.1543 L 47.693359 32.074219 L 29.847656 32.074219 z "
     style="opacity:1;fill:#ababab;fill-opacity:1;fill-rule:evenodd;stroke:none;stroke-width:2.60869575px;stroke-linecap:butt;stroke-linejoin:miter;stroke-opacity:1" />
  <path
     id="path5138"
     d="m 5.2210073,83.671042 99.9367527,0 2.00677,51.373108 25.2852,30.90414 -4.41488,12.04058 c 22.37874,21.91978 54.55528,26.42126 86.29076,31.70684 l 16.85682,31.30549 -2.00677,22.87708 -84.68536,0.40135 -42.142,-12.84327 -11.237873,12.44192 -79.869134,0 c -2.0054514,-16.58879 0.422469,-31.6998 4.816228,-46.15552 L 7.6291203,208.0903 16.057521,174.77805 C 15.2614,143.84584 11.365367,113.53361 5.2210073,83.671042 Z"
     style="fill:#efedee;fill-rule:evenodd;stroke:none;stroke-width:2.60869575px;stroke-linecap:butt;stroke-linejoin:miter;stroke-opacity:1;opacity:1;fill-opacity:1" />
</svg>
