<?xml version="1.0" encoding="UTF-8" standalone="no"?>
<svg
   xmlns:dc="http://purl.org/dc/elements/1.1/"
   xmlns:cc="http://creativecommons.org/ns#"
   xmlns:rdf="http://www.w3.org/1999/02/22-rdf-syntax-ns#"
   xmlns:svg="http://www.w3.org/2000/svg"
   xmlns="http://www.w3.org/2000/svg"
   version="1.1"
   id="svg4136"
   viewBox="0 0 600.00001 300"
   height="115"
   width="302">
  <defs
     id="defs4138" />
  <metadata
     id="metadata4141">
    <rdf:RDF>
      <cc:Work
         rdf:about="">
        <dc:format>image/svg+xml</dc:format>
        <dc:type
           rdf:resource="http://purl.org/dc/dcmitype/StillImage" />
        <dc:title></dc:title>
      </cc:Work>
    </rdf:RDF>
  </metadata>
  <path
     style="opacity:1;fill:#c3c3c3;fill-opacity:1;fill-rule:evenodd;stroke:none;stroke-width:1px;stroke-linecap:butt;stroke-linejoin:miter;stroke-opacity:1"
     d="m 229,40 -28.3,0 -1.7,9 -14,0 0,40 16,0 0,7.4 -7,1.6 0,12 -27,0 0,7 -82,0 -5,6 -40,0 0,39 6,6 0,39 51,-3 29,-15 20,0 c 2.52426,32.86809 9.16971,62.67102 22,92 l 44,-15 -5,-14 -5,2 c -8.30257,-22.93056 -6.86833,-49.11374 -8,-74 l 55,0 c -8.77514,20.32662 -16.57229,41.99966 -20,65 l 37,14 2,-12 -3,-1 c 0.0378,-21.97918 2.27011,-35.14837 8,-41 l 42,0 10,-23 8,0 0,13 137,0 0,-18 15,0 5,-10 25,0 0,-27 7,0 0,7 41,0 0,-32 -41,0 0,8 -8,0 0,-22 -148,1 -1,-6 -35,0 0,14 -28,0 -7,-20 19,0 20,-50 -71,0 0,9 -32,0 z m 6,50 30,0 -6.42773,12 L 241,102 Z m 77,93 -4,10 -18.00014,0.80413 L 290.00014,183 Z"
     id="path4697" />
</svg>
