<?xml version="1.0" encoding="UTF-8" standalone="no"?>
<svg
   xmlns:dc="http://purl.org/dc/elements/1.1/"
   xmlns:cc="http://creativecommons.org/ns#"
   xmlns:rdf="http://www.w3.org/1999/02/22-rdf-syntax-ns#"
   xmlns:svg="http://www.w3.org/2000/svg"
   xmlns="http://www.w3.org/2000/svg"
   width="302"
   height="115"
   viewBox="0 0 600.00001 300"
   id="svg4136"
   version="1.1">
  <defs
     id="defs4138" />
  <metadata
     id="metadata4141">
    <rdf:RDF>
      <cc:Work
         rdf:about="">
        <dc:format>image/svg+xml</dc:format>
        <dc:type
           rdf:resource="http://purl.org/dc/dcmitype/StillImage" />
        <dc:title></dc:title>
      </cc:Work>
    </rdf:RDF>
  </metadata>
  <path
     id="path4355"
     transform="matrix(2.6086957,0,0,2.6086957,-93.913045,0)"
     d="m 119.625,46.693359 c -1.18006,3.890155 -1.89914,7.95874 0,13.033203 l 2.24805,0 0,1.796876 c -3.26731,0.111676 -8.73908,15.86825 -13.12305,23.908203 -4.11552,-3.001734 -7.9546,-6.973549 -9.707031,-18.246094 l -15.007813,0 -1.529297,2.697265 -7.908203,-3.685546 c 1.666757,9.910301 0.463292,18.572448 -0.539062,27.322265 l 26.962886,0 5.30274,3.146485 11.41406,0 c -2.39211,-6.687737 0.16535,-10.076069 1.88672,-14.021485 l 10.06641,0 c 0.74094,1.666806 2.18671,2.871704 6.02148,2.515625 l 0,5.933594 11.14453,0 0,-3.416016 -1.79687,0 0,-8.71875 9.88672,0 4.31445,-4.3125 54.28516,0 0,-2.601562 6.27539,0 2.4414,-4.230469 8.17969,0 0,-4.763672 -16.98633,0 0,-2.515625 -44.58008,0 3.86524,-13.572265 -14.83008,0 0,3.207031 -22.13086,0 -2.67383,-2.127165 -11.54883,0 z m 3.64062,30.513672 6.15626,0 0,4.134766 -6.15626,0 z"
     style="opacity:1;fill:#c7c7c7;fill-opacity:1;fill-rule:evenodd;stroke:none;stroke-width:1px;stroke-linecap:butt;stroke-linejoin:miter;stroke-opacity:1" />
</svg>
