<?xml version="1.0" encoding="UTF-8" standalone="no"?>
<svg
   xmlns:dc="http://purl.org/dc/elements/1.1/"
   xmlns:cc="http://creativecommons.org/ns#"
   xmlns:rdf="http://www.w3.org/1999/02/22-rdf-syntax-ns#"
   xmlns:svg="http://www.w3.org/2000/svg"
   xmlns="http://www.w3.org/2000/svg"
   width="302"
   height="115"
   viewBox="0 0 600.00001 300"
   id="svg4136"
   version="1.1">
  <defs
     id="defs4138" />
  <metadata
     id="metadata4141">
    <rdf:RDF>
      <cc:Work
         rdf:about="">
        <dc:format>image/svg+xml</dc:format>
        <dc:type
           rdf:resource="http://purl.org/dc/dcmitype/StillImage" />
        <dc:title></dc:title>
      </cc:Work>
    </rdf:RDF>
  </metadata>
  <path
     id="path4697"
     d="m 242.42599,116.78276 -20.88478,0 -1.25456,5.67347 -10.33168,0 0,25.21547 11.80762,0 0,4.66485 -5.16583,1.00862 0,7.56463 -19.92541,0 0,4.4127 -60.51419,0 -3.6899,3.78233 -29.5191,0 0,24.58505 4.42786,3.78233 0,24.58507 37.63687,-1.89116 21.40137,-9.45581 14.75956,0 c 1.86284,20.7196 6.76705,39.50696 16.2355,57.99555 l 32.47103,-9.4558 -3.68987,-8.8254 -3.6899,1.26077 c -6.12711,-14.45512 -5.06867,-30.96063 -5.90382,-46.64858 l 40.58878,0 c -6.47585,12.81361 -12.22999,26.47601 -14.75955,40.9751 l 27.30518,8.8254 1.47596,-7.56463 -2.21394,-0.63038 c 0.028,-13.85537 1.67528,-22.15705 5.90383,-25.84584 l 30.99507,0 7.37978,-14.49888 5.90383,0 0,8.19501 101.10296,0 0,-11.34695 11.06967,0 3.68989,-6.30386 18.44944,0 0,-17.02043 5.16585,0 0,4.41271 30.25711,0 0,-20.17236 -30.25711,0 0,5.04309 -5.90382,0 0,-13.8685 -109.22073,0.63038 -0.73798,-3.78232 -25.82922,0 0,8.82541 -20.6634,0 -5.16582,-12.60772 14.02158,0 14.75955,-31.51932 -52.39643,0 0,5.67347 -23.6153,0 z m 4.42787,31.51932 22.13933,0 -4.74351,7.56463 -12.96796,0 z m 56.8243,58.62592 -2.95191,6.30387 -13.28371,0.5069 2.1e-4,-6.81077 z"
     style="opacity:1;fill:#c3c3c3;fill-opacity:1;fill-rule:evenodd;stroke:none;stroke-width:1px;stroke-linecap:butt;stroke-linejoin:miter;stroke-opacity:1" />
</svg>
