<?xml version="1.0" encoding="UTF-8" standalone="no"?>
<svg
   xmlns:dc="http://purl.org/dc/elements/1.1/"
   xmlns:cc="http://creativecommons.org/ns#"
   xmlns:rdf="http://www.w3.org/1999/02/22-rdf-syntax-ns#"
   xmlns:svg="http://www.w3.org/2000/svg"
   xmlns="http://www.w3.org/2000/svg"
   width="600"
   height="300"
   viewBox="0 0 600.00001 300"
   id="svg4136"
   version="1.1">
  <defs
     id="defs4138" />
  <metadata
     id="metadata4141">
    <rdf:RDF>
      <cc:Work
         rdf:about="">
        <dc:format>image/svg+xml</dc:format>
        <dc:type
           rdf:resource="http://purl.org/dc/dcmitype/StillImage" />
        <dc:title></dc:title>
      </cc:Work>
    </rdf:RDF>
  </metadata>
  <path
     id="path4739"
     d="m 287,49 -2,7 -15,0 0,36 17,0 -8,16 -85,2 -3,7 -88,0 -5,5 -41,0 0,33 5,6 0,33 50,-2 36,-15 22,0 c 1.0865,29.83874 10.53649,60.2002 27,91 l 46,-12 -1,-12 -8,0 c -13.49635,-28.61601 -15.47009,-49.3672 -15,-71 l 57,0 c -7.75551,17.32212 -16.35704,35.354 -19,55 l 38,12 5,-11 -6,-1 c -0.53049,-13.15751 -0.25081,-29.14216 8,-35 l 43,0 12,-20 10,0 0,9 97,0 0,-15 20,0 8,-10 22,0 0,-15 30,0 0,-28 -31,0 0,-12 -85,0 -8,-6 -57,0 0,13 -30,0 -7,-17 19,0 22,-43 z m 58,124 -5,11 -19,0 -1,-11 z"
     style="fill:#c3c3c3;fill-opacity:1;fill-rule:evenodd;stroke:none;stroke-width:1px;stroke-linecap:butt;stroke-linejoin:miter;stroke-opacity:1" />
</svg>
