<?xml version="1.0" encoding="UTF-8" standalone="no"?>
<svg
   xmlns:dc="http://purl.org/dc/elements/1.1/"
   xmlns:cc="http://creativecommons.org/ns#"
   xmlns:rdf="http://www.w3.org/1999/02/22-rdf-syntax-ns#"
   xmlns:svg="http://www.w3.org/2000/svg"
   xmlns="http://www.w3.org/2000/svg"
   version="1.1"
   id="svg4136"
   viewBox="0 0 600.00001 300"
   height="115"
   width="302">
  <defs
     id="defs4138" />
  <metadata
     id="metadata4141">
    <rdf:RDF>
      <cc:Work
         rdf:about="">
        <dc:format>image/svg+xml</dc:format>
        <dc:type
           rdf:resource="http://purl.org/dc/dcmitype/StillImage" />
        <dc:title></dc:title>
      </cc:Work>
    </rdf:RDF>
  </metadata>
  <path
     id="path4192"
     transform="matrix(2.6086957,0,0,2.6086957,-93.913045,0)"
     d="m 139.30664,41.914062 0,2.011719 -13.70508,0 c -0.0914,-0.68356 0.26825,-1.544958 -1.54687,-1.546875 l -6.59375,0 c -0.99865,7.21e-4 -0.88525,0.836379 -0.90625,1.570313 l -4.06641,0 -0.002,12.708984 4.19531,0 0,1.652344 -1.14453,0 0,2.794922 -2.67188,0 -2.02929,2.03125 -21.21094,0 -2.431641,1.402343 -10.802734,0 0,9.152344 1.269531,0 0,10.548828 C 84.404632,83.571527 92.818152,84.479402 98.125,79.15625 l 5.97266,0 c 1.01694,7.329663 2.27576,14.603696 6.35546,21.22656 l 15.12696,-3.304685 -0.89063,-3.431641 -1.90625,0.507813 c -1.75467,-5.078316 -2.93439,-10.348898 -2.54297,-16.142578 l 14.23633,0 c -3.02168,4.615594 -4.22332,9.607431 -5.33789,14.617187 l 10.29492,3.050782 0.76172,-2.667969 -1.39648,-0.25586 c 0.10803,-3.237135 0.18382,-6.476872 2.16015,-9.480468 l 11.5625,0 2.92774,-5.072266 2.22461,0 0.95312,-0.953125 37.11328,0 0,-1.689453 4.60547,0 0.86133,-1.488281 7.37109,0 0,-3.558594 10.29493,0 0,1.779297 11.5664,0 0,-9.78711 -11.43945,0 0,1.398438 -10.80273,0 0,-2.160156 -40.92774,0 0,-1.398438 -10.29492,0 0,1.398438 -7.92578,0 0,-2.462891 -1.73438,-3.005859 10.01172,0 8.29102,-14.361329 z m -12.58398,14.617188 11.94726,0 -1.81054,3.140625 -8.99219,0 z m 18.93945,21.798828 6.60937,0 -1.01757,2.22461 -5.5918,0 z"
     style="fill:#c7c7c7;fill-rule:evenodd;stroke:none;stroke-width:1px;stroke-linecap:butt;stroke-linejoin:miter;stroke-opacity:1;fill-opacity:1;opacity:1" />
</svg>
