<?xml version="1.0" encoding="UTF-8" standalone="no"?>
<svg
   xmlns:dc="http://purl.org/dc/elements/1.1/"
   xmlns:cc="http://creativecommons.org/ns#"
   xmlns:rdf="http://www.w3.org/1999/02/22-rdf-syntax-ns#"
   xmlns:svg="http://www.w3.org/2000/svg"
   xmlns="http://www.w3.org/2000/svg"
   version="1.1"
   id="svg4136"
   viewBox="0 0 600.00001 300"
   height="115"
   width="302">
  <defs
     id="defs4138" />
  <metadata
     id="metadata4141">
    <rdf:RDF>
      <cc:Work
         rdf:about="">
        <dc:format>image/svg+xml</dc:format>
        <dc:type
           rdf:resource="http://purl.org/dc/dcmitype/StillImage" />
        <dc:title></dc:title>
      </cc:Work>
    </rdf:RDF>
  </metadata>
  <path
     style="fill:#c3c3c3;fill-opacity:1;fill-rule:evenodd;stroke:none;stroke-width:1px;stroke-linecap:butt;stroke-linejoin:miter;stroke-opacity:1"
     d="m 264.89979,119.67256 -1.40284,5.0815 -10.52126,0 0,26.13339 11.9241,0 -5.61135,11.61485 -59.62046,1.45186 -2.10425,5.08149 -61.72472,0 -3.50708,3.62964 -28.7581,0 0,23.95563 3.50709,4.35557 0,23.95562 35.07086,-1.45186 25.25102,-10.88892 15.43117,0 c 0.76209,21.66078 7.39047,43.701 18.93827,66.05944 l 32.26518,-8.71114 -0.70142,-8.71113 -5.61133,0 c -9.46657,-20.77316 -10.85099,-35.83703 -10.52126,-51.54088 l 39.98078,0 c -5.43984,12.57461 -11.4731,25.66446 -13.32692,39.92603 l 26.65385,8.71113 3.50709,-7.9852 -4.20851,-0.72593 c -0.3721,-9.5514 -0.17591,-21.1551 5.61133,-25.40747 l 30.16094,0 8.417,-14.51856 7.01416,0 0,6.53335 68.03748,0 0,-10.88892 14.02833,0 5.61134,-7.25928 15.43117,0 0,-10.88891 21.04252,0 0,-20.32599 -21.74392,0 0,-8.71114 -59.62046,0 -5.61134,-4.35556 -39.98077,0 0,9.43706 -21.04252,0 -4.90992,-12.34078 13.32693,0 15.43116,-31.21489 z m 40.68218,90.01506 -3.5071,7.98521 -13.32691,0 -0.70141,-7.98521 z"
     id="path4739" />
</svg>
