<?xml version="1.0" encoding="UTF-8" standalone="no"?>
<svg
   xmlns:dc="http://purl.org/dc/elements/1.1/"
   xmlns:cc="http://creativecommons.org/ns#"
   xmlns:rdf="http://www.w3.org/1999/02/22-rdf-syntax-ns#"
   xmlns:svg="http://www.w3.org/2000/svg"
   xmlns="http://www.w3.org/2000/svg"
   version="1.1"
   id="svg2"
   viewBox="0 0 300 300"
   height="300"
   width="300">
  <defs
     id="defs4" />
  <metadata
     id="metadata7">
    <rdf:RDF>
      <cc:Work
         rdf:about="">
        <dc:format>image/svg+xml</dc:format>
        <dc:type
           rdf:resource="http://purl.org/dc/dcmitype/StillImage" />
        <dc:title></dc:title>
      </cc:Work>
    </rdf:RDF>
  </metadata>
  <path
     id="rect4516"
     d="M 189.64844 55.244141 L 21.138672 161.1543 L 22.335938 163.05859 A 14.777542 13.361731 0 0 0 20.816406 168.92383 A 14.777542 13.361731 0 0 0 35.59375 182.28516 A 14.777542 13.361731 0 0 0 50.371094 168.92383 A 14.777542 13.361731 0 0 0 50.015625 166.08789 L 200.04688 71.791016 L 189.64844 55.244141 z "
     style="opacity:1;fill:#b7c7a0;fill-opacity:1;fill-rule:evenodd;stroke:none;stroke-width:2;stroke-miterlimit:4;stroke-dasharray:none;stroke-opacity:1" />
  <path
     id="path4502"
     d="M 204.66016 40.677734 L 177.63086 56.283203 L 177.63086 69.279297 L 186.22852 75.634766 L 159.85156 95.021484 L 142.05469 78.496094 L 139.66211 79.876953 C 134.29574 75.194879 128.01954 72.029021 120.92188 70.232422 L 119.33203 75.794922 C 120.24516 74.664374 129.9441 78.701274 135.62109 82.210938 L 91.287109 107.80664 L 90.572266 117.26758 L 103.91992 141.41992 L 119.17383 132.83984 L 123.30469 138.55859 L 117.10156 169.27539 A 72.583313 43.1455 0 0 0 90.785156 202.47266 A 72.583313 43.1455 0 0 0 163.36914 245.61914 A 72.583313 43.1455 0 0 0 235.95117 202.47266 A 72.583313 43.1455 0 0 0 224.71094 179.4375 L 229.13086 176.37695 L 243.43164 176.37695 L 273.62305 154.44922 L 278.70703 125.5293 L 267.90234 124.57617 L 272.0332 109.32227 L 242.16016 90.890625 L 238.34766 101.05859 L 226.90625 105.50781 L 211.33398 117.90234 L 204.66016 140.4668 L 192.90234 145.23242 L 179.87305 142.05469 L 178.60156 132.52148 L 184.95703 129.34375 L 184.95703 116.63086 L 214.85742 99.369141 L 214.85742 81.355469 L 200.21094 81.355469 L 220.55078 58.15625 L 220.55078 40.677734 L 204.66016 40.677734 z "
     style="opacity:1;fill:#ffffff;fill-opacity:1;fill-rule:evenodd;stroke:none;stroke-width:2;stroke-miterlimit:4;stroke-dasharray:none;stroke-opacity:1" />
  <path
     id="path4512"
     d="m 266.28862,122.92368 c -8.00888,-24.240002 -20.29972,-18.61963 -34.15685,-13.03353 -1.84507,13.75083 -3.80094,30.36934 -26.5165,31.23554 l -9.21337,4.26961 c -11.94171,18.73409 24.32824,28.42054 40.44891,26.96593 l 14.15712,-5.16847 c -4.44487,-18.04023 6.20068,-34.58689 15.28069,-44.26908 z"
     style="fill:#b7c7a0;fill-rule:evenodd;stroke:none;stroke-width:1px;stroke-linecap:butt;stroke-linejoin:miter;stroke-opacity:1;fill-opacity:1;opacity:1" />
  <path
     id="path4520"
     d="m 35.013823,151.12863 a 16.366524,17.558262 87.280876 0 0 -16.76246,17.17978 16.366524,17.558262 87.280876 0 0 1.615238,6.13731 l 3.355052,0.44681 a 12.155719,13.040845 87.280876 0 1 -1.566485,-5.23431 12.155719,13.040845 87.280876 0 1 12.449642,-12.76122 12.155719,13.040845 87.280876 0 1 13.603023,11.52389 12.155719,13.040845 87.280876 0 1 -3.887562,9.21433 l 5.049346,0.67333 a 16.366524,17.558262 87.280876 0 0 4.457444,-11.666 16.366524,17.558262 87.280876 0 0 -18.313238,-15.51392 z"
     style="opacity:0.76700003;fill:#ffffff;fill-opacity:1;fill-rule:evenodd;stroke:none;stroke-width:2;stroke-miterlimit:4;stroke-dasharray:none;stroke-opacity:1" />
</svg>
