<?xml version="1.0" encoding="UTF-8" standalone="no"?>
<svg
   xmlns:dc="http://purl.org/dc/elements/1.1/"
   xmlns:cc="http://creativecommons.org/ns#"
   xmlns:rdf="http://www.w3.org/1999/02/22-rdf-syntax-ns#"
   xmlns:svg="http://www.w3.org/2000/svg"
   xmlns="http://www.w3.org/2000/svg"
   xmlns:xlink="http://www.w3.org/1999/xlink"
   width="302"
   height="115"
   viewBox="0 0 600 300"
   id="svg2"
   version="1.1">
  <defs
     id="defs4" />
  <metadata
     id="metadata7">
    <rdf:RDF>
      <cc:Work
         rdf:about="">
        <dc:format>image/svg+xml</dc:format>
        <dc:type
           rdf:resource="http://purl.org/dc/dcmitype/StillImage" />
        <dc:title></dc:title>
      </cc:Work>
    </rdf:RDF>
  </metadata>
  <g
     transform="matrix(1.2486353,0,0,1.2486353,-79.096796,-51.004456)"
     id="g4153">
    <path
       style="opacity:1;fill:#f0f0f0;fill-opacity:1;fill-rule:evenodd;stroke:none;stroke-width:1px;stroke-linecap:butt;stroke-linejoin:miter;stroke-opacity:1"
       d="m 481.28188,119.25407 a 22.321428,22.321428 0 0 0 -22.32031,22.32226 22.321428,22.321428 0 0 0 14.13672,20.74414 c -25.80416,8.97213 -43.93522,33.91563 -46.63671,48.09571 -2.71301,14.24053 9.43137,16.94792 12.85742,12.5 3.42604,-4.44791 8.41787,-20.28008 15.71289,-26.42969 l 0,50.71484 56.42968,0 0,-50.12304 c 8.26489,9.37042 11.71,19.39656 15.23828,26.00781 2.44709,4.58531 15.05655,4.89215 13.03321,-12.38086 -2.01365,-17.19026 -25.03996,-40.30984 -50.23047,-48.38281 a 22.321428,22.321428 0 0 0 14.10156,-20.7461 22.321428,22.321428 0 0 0 -22.32227,-22.32226 z"
       id="path4590" />
    <circle
       style="opacity:1;fill:#ffffff;fill-opacity:1;stroke:none;stroke-opacity:1"
       id="circle4592"
       cx="480.95886"
       cy="134.46126"
       r="8.9651041" />
  </g>
  <use
     style="opacity:0.77899996"
     height="100%"
     width="100%"
     transform="translate(-47.269328,4.3809543e-6)"
     id="use8824"
     xlink:href="#g4153"
     y="0"
     x="0" />
  <use
     style="opacity:0.68699999"
     height="100%"
     width="100%"
     transform="translate(-107.47228,4.3809543e-6)"
     id="use8826"
     xlink:href="#g4153"
     y="0"
     x="0" />
  <use
     style="opacity:0.60199998"
     height="100%"
     width="100%"
     transform="translate(-183.72769,4.3809543e-6)"
     id="use8828"
     xlink:href="#g4153"
     y="0"
     x="0" />
  <use
     style="opacity:0.5"
     height="100%"
     width="100%"
     transform="translate(-259.53733,4.3809543e-6)"
     id="use8830"
     xlink:href="#g4153"
     y="0"
     x="0" />
  <use
     style="opacity:0.40800003"
     height="100%"
     width="100%"
     transform="translate(-345.60452,4.3809543e-6)"
     id="use8832"
     xlink:href="#g4153"
     y="0"
     x="0" />
  <use
     style="opacity:0.25200004"
     height="100%"
     width="100%"
     transform="translate(-447.2784,4.3809543e-6)"
     id="use8834"
     xlink:href="#g4153"
     y="0"
     x="0" />
</svg>
