<?xml version="1.0" encoding="UTF-8" standalone="no"?>
<svg
   xmlns:dc="http://purl.org/dc/elements/1.1/"
   xmlns:cc="http://creativecommons.org/ns#"
   xmlns:rdf="http://www.w3.org/1999/02/22-rdf-syntax-ns#"
   xmlns:svg="http://www.w3.org/2000/svg"
   xmlns="http://www.w3.org/2000/svg"
   version="1.1"
   id="svg2"
   viewBox="0 0 600 300"
   height="300"
   width="600">
  <defs
     id="defs4" />
  <metadata
     id="metadata7">
    <rdf:RDF>
      <cc:Work
         rdf:about="">
        <dc:format>image/svg+xml</dc:format>
        <dc:type
           rdf:resource="http://purl.org/dc/dcmitype/StillImage" />
        <dc:title></dc:title>
      </cc:Work>
    </rdf:RDF>
  </metadata>
  <path
     id="path4559"
     d="m 481.28188,119.25407 a 22.321428,22.321428 0 0 0 -22.32031,22.32226 22.321428,22.321428 0 0 0 14.13672,20.74414 c -25.80416,8.97213 -43.93522,33.91563 -46.63671,48.09571 -2.71301,14.24053 9.43137,16.94792 12.85742,12.5 3.42604,-4.44791 8.41787,-20.28008 15.71289,-26.42969 l 0,50.71484 56.42968,0 0,-50.12304 c 8.26489,9.37042 11.71,19.39656 15.23828,26.00781 2.44709,4.58531 15.05655,4.89215 13.03321,-12.38086 -2.01365,-17.19026 -25.03996,-40.30984 -50.23047,-48.38281 a 22.321428,22.321428 0 0 0 14.10156,-20.7461 22.321428,22.321428 0 0 0 -22.32227,-22.32226 z"
     style="opacity:0.13300003;fill:#dcdcdc;fill-opacity:1;fill-rule:evenodd;stroke:none;stroke-width:1px;stroke-linecap:butt;stroke-linejoin:miter;stroke-opacity:1" />
  <circle
     r="8.9651041"
     cy="134.46126"
     cx="480.95886"
     id="path4586"
     style="opacity:1;fill:#ffffff;fill-opacity:1;stroke:none;stroke-opacity:1" />
  <path
     style="opacity:1;fill:#f0f0f0;fill-opacity:1;fill-rule:evenodd;stroke:none;stroke-width:1px;stroke-linecap:butt;stroke-linejoin:miter;stroke-opacity:1"
     d="m 481.28188,119.25407 a 22.321428,22.321428 0 0 0 -22.32031,22.32226 22.321428,22.321428 0 0 0 14.13672,20.74414 c -25.80416,8.97213 -43.93522,33.91563 -46.63671,48.09571 -2.71301,14.24053 9.43137,16.94792 12.85742,12.5 3.42604,-4.44791 8.41787,-20.28008 15.71289,-26.42969 l 0,50.71484 56.42968,0 0,-50.12304 c 8.26489,9.37042 11.71,19.39656 15.23828,26.00781 2.44709,4.58531 15.05655,4.89215 13.03321,-12.38086 -2.01365,-17.19026 -25.03996,-40.30984 -50.23047,-48.38281 a 22.321428,22.321428 0 0 0 14.10156,-20.7461 22.321428,22.321428 0 0 0 -22.32227,-22.32226 z"
     id="path4590" />
  <circle
     style="opacity:1;fill:#ffffff;fill-opacity:1;stroke:none;stroke-opacity:1"
     id="circle4592"
     cx="480.95886"
     cy="134.46126"
     r="8.9651041" />
  <path
     id="path4594"
     d="m 443.42474,119.25407 a 22.321428,22.321428 0 0 0 -22.32031,22.32226 22.321428,22.321428 0 0 0 14.13672,20.74414 c -25.80416,8.97213 -43.93522,33.91563 -46.63671,48.09571 -2.71301,14.24053 9.43137,16.94792 12.85742,12.5 3.42604,-4.44791 8.41787,-20.28008 15.71289,-26.42969 l 0,50.71484 56.42968,0 0,-50.12304 c 8.26489,9.37042 11.71,19.39656 15.23828,26.00781 2.44709,4.58531 15.05655,4.89215 13.03321,-12.38086 -2.01365,-17.19026 -25.03996,-40.30984 -50.23047,-48.38281 a 22.321428,22.321428 0 0 0 14.10156,-20.7461 22.321428,22.321428 0 0 0 -22.32227,-22.32226 z"
     style="opacity:0.779;fill:#f0f0f0;fill-opacity:1;fill-rule:evenodd;stroke:none;stroke-width:1px;stroke-linecap:butt;stroke-linejoin:miter;stroke-opacity:1" />
  <circle
     r="8.9651041"
     cy="134.46126"
     cx="443.10172"
     id="circle4596"
     style="opacity:0.779;fill:#ffffff;fill-opacity:1;stroke:none;stroke-opacity:1" />
  <path
     style="opacity:0.687;fill:#f0f0f0;fill-opacity:1;fill-rule:evenodd;stroke:none;stroke-width:1px;stroke-linecap:butt;stroke-linejoin:miter;stroke-opacity:1"
     d="m 395.21046,119.25407 a 22.321428,22.321428 0 0 0 -22.32031,22.32226 22.321428,22.321428 0 0 0 14.13672,20.74414 c -25.80416,8.97213 -43.93522,33.91563 -46.63671,48.09571 -2.71301,14.24053 9.43137,16.94792 12.85742,12.5 3.42604,-4.44791 8.41787,-20.28008 15.71289,-26.42969 l 0,50.71484 56.42968,0 0,-50.12304 c 8.26489,9.37042 11.71,19.39656 15.23828,26.00781 2.44709,4.58531 15.05655,4.89215 13.03321,-12.38086 -2.01365,-17.19026 -25.03996,-40.30984 -50.23047,-48.38281 a 22.321428,22.321428 0 0 0 14.10156,-20.7461 22.321428,22.321428 0 0 0 -22.32227,-22.32226 z"
     id="path4598" />
  <circle
     style="opacity:0.687;fill:#ffffff;fill-opacity:1;stroke:none;stroke-opacity:1"
     id="circle4600"
     cx="394.88745"
     cy="134.46126"
     r="8.9651041" />
  <path
     id="path4602"
     d="m 334.13903,119.25407 a 22.321428,22.321428 0 0 0 -22.32031,22.32226 22.321428,22.321428 0 0 0 14.13672,20.74414 c -25.80416,8.97213 -43.93522,33.91563 -46.63671,48.09571 -2.71301,14.24053 9.43137,16.94792 12.85742,12.5 3.42604,-4.44791 8.41787,-20.28008 15.71289,-26.42969 l 0,50.71484 56.42968,0 0,-50.12304 c 8.26489,9.37042 11.71,19.39656 15.23828,26.00781 2.44709,4.58531 15.05655,4.89215 13.03321,-12.38086 -2.01365,-17.19026 -25.03996,-40.30984 -50.23047,-48.38281 a 22.321428,22.321428 0 0 0 14.10156,-20.7461 22.321428,22.321428 0 0 0 -22.32227,-22.32226 z"
     style="opacity:0.602;fill:#f0f0f0;fill-opacity:1;fill-rule:evenodd;stroke:none;stroke-width:1px;stroke-linecap:butt;stroke-linejoin:miter;stroke-opacity:1" />
  <circle
     r="8.9651041"
     cy="134.46126"
     cx="333.81601"
     id="circle4604"
     style="opacity:0.602;fill:#ffffff;fill-opacity:1;stroke:none;stroke-opacity:1" />
  <path
     style="opacity:0.5;fill:#f0f0f0;fill-opacity:1;fill-rule:evenodd;stroke:none;stroke-width:1px;stroke-linecap:butt;stroke-linejoin:miter;stroke-opacity:1"
     d="m 273.42474,119.25407 a 22.321428,22.321428 0 0 0 -22.32031,22.32226 22.321428,22.321428 0 0 0 14.13672,20.74414 c -25.80416,8.97213 -43.93522,33.91563 -46.63671,48.09571 -2.71301,14.24053 9.43137,16.94792 12.85742,12.5 3.42604,-4.44791 8.41787,-20.28008 15.71289,-26.42969 l 0,50.71484 56.42968,0 0,-50.12304 c 8.26489,9.37042 11.71,19.39656 15.23828,26.00781 2.44709,4.58531 15.05655,4.89215 13.03321,-12.38086 -2.01365,-17.19026 -25.03996,-40.30984 -50.23047,-48.38281 a 22.321428,22.321428 0 0 0 14.10156,-20.7461 22.321428,22.321428 0 0 0 -22.32227,-22.32226 z"
     id="path4606" />
  <circle
     style="opacity:0.5;fill:#ffffff;fill-opacity:1;stroke:none;stroke-opacity:1"
     id="circle4608"
     cx="273.10172"
     cy="134.46126"
     r="8.9651041" />
  <path
     id="path4610"
     d="m 204.49617,119.25407 a 22.321428,22.321428 0 0 0 -22.32031,22.32226 22.321428,22.321428 0 0 0 14.13672,20.74414 c -25.80416,8.97213 -43.93522,33.91563 -46.63671,48.09571 -2.71301,14.24053 9.43137,16.94792 12.85742,12.5 3.42604,-4.44791 8.41787,-20.28008 15.71289,-26.42969 l 0,50.71484 56.42968,0 0,-50.12304 c 8.26489,9.37042 11.71,19.39656 15.23828,26.00781 2.44709,4.58531 15.05655,4.89215 13.03321,-12.38086 -2.01365,-17.19026 -25.03996,-40.30984 -50.23047,-48.38281 a 22.321428,22.321428 0 0 0 14.10156,-20.7461 22.321428,22.321428 0 0 0 -22.32227,-22.32226 z"
     style="opacity:0.408;fill:#f0f0f0;fill-opacity:1;fill-rule:evenodd;stroke:none;stroke-width:1px;stroke-linecap:butt;stroke-linejoin:miter;stroke-opacity:1" />
  <circle
     r="8.9651041"
     cy="134.46126"
     cx="204.17314"
     id="circle4612"
     style="opacity:1;fill:#ffffff;fill-opacity:1;stroke:none;stroke-opacity:1" />
  <path
     style="opacity:0.252;fill:#f0f0f0;fill-opacity:1;fill-rule:evenodd;stroke:none;stroke-width:1px;stroke-linecap:butt;stroke-linejoin:miter;stroke-opacity:1"
     d="m 123.0676,119.25407 a 22.321428,22.321428 0 0 0 -22.32031,22.32226 22.321428,22.321428 0 0 0 14.13672,20.74414 c -25.804162,8.97213 -43.935222,33.91563 -46.636712,48.09571 -2.71301,14.24053 9.43137,16.94792 12.85742,12.5 3.42604,-4.44791 8.41787,-20.28008 15.71289,-26.42969 l 0,50.71484 56.429682,0 0,-50.12304 c 8.26489,9.37042 11.71,19.39656 15.23828,26.00781 2.44709,4.58531 15.05655,4.89215 13.03321,-12.38086 -2.01365,-17.19026 -25.03996,-40.30984 -50.23047,-48.38281 a 22.321428,22.321428 0 0 0 14.10156,-20.7461 22.321428,22.321428 0 0 0 -22.32227,-22.32226 z"
     id="path4614" />
  <circle
     style="opacity:0.252;fill:#ffffff;fill-opacity:1;stroke:none;stroke-opacity:1"
     id="circle4616"
     cx="122.74457"
     cy="134.46126"
     r="8.9651041" />
</svg>
