<?xml version="1.0" encoding="UTF-8" standalone="no"?>
<svg
   xmlns:dc="http://purl.org/dc/elements/1.1/"
   xmlns:cc="http://creativecommons.org/ns#"
   xmlns:rdf="http://www.w3.org/1999/02/22-rdf-syntax-ns#"
   xmlns:svg="http://www.w3.org/2000/svg"
   xmlns="http://www.w3.org/2000/svg"
   xmlns:xlink="http://www.w3.org/1999/xlink"
   version="1.1"
   id="svg2"
   viewBox="0 0 300 300"
   height="300"
   width="300">
  <defs
     id="defs4" />
  <metadata
     id="metadata7">
    <rdf:RDF>
      <cc:Work
         rdf:about="">
        <dc:format>image/svg+xml</dc:format>
        <dc:type
           rdf:resource="http://purl.org/dc/dcmitype/StillImage" />
        <dc:title></dc:title>
      </cc:Work>
    </rdf:RDF>
  </metadata>
  <path
     id="path4965"
     d="M 151.74805 6.6738281 A 6.8326273 5.4025426 0 0 0 144.91602 12.076172 A 6.8326273 5.4025426 0 0 0 151.74805 17.478516 A 6.8326273 5.4025426 0 0 0 154.87305 16.878906 A 5.4025426 4.2902541 0 0 0 158.39844 20.095703 A 6.1970339 4.1313558 0 0 0 162.74414 21.595703 A 6.1970339 2.8601694 0 0 0 164.31641 22.722656 A 13.983051 5.0847459 0 0 0 178.2832 27.648438 A 13.983051 5.0847459 0 0 0 178.61719 27.644531 A 9.8516951 5.2436442 0 0 0 178.60156 27.806641 A 9.8516951 5.2436442 0 0 0 187.28906 33.011719 A 17.319916 6.5148306 0 0 0 182.09766 37.658203 A 17.319916 6.5148306 0 0 0 197.43945 44.126953 A 10.963984 8.1038132 0 0 0 195.44531 48.78125 A 10.963984 8.1038132 0 0 0 202.07422 56.222656 A 21.292374 10.487288 0 0 0 192.90234 64.830078 A 21.292374 10.487288 0 0 0 210.82812 75.173828 A 6.6737289 10.487288 0 0 0 210.69922 77.224609 A 6.6737289 10.487288 0 0 0 210.7832 78.822266 A 9.8516951 9.375 0 0 0 207.13281 84.228516 A 7.9449153 6.8326273 0 0 0 199.57617 91.048828 A 7.9449153 6.8326273 0 0 0 201.40039 95.398438 A 9.0572033 12.711864 0 0 0 194.49219 107.73242 A 9.0572033 12.711864 0 0 0 203.54883 120.44531 A 9.0572033 12.711864 0 0 0 211.33203 114.20703 A 12.870763 7.3093219 0 0 0 219.75586 115.99609 A 12.870763 7.3093219 0 0 0 225.21289 115.29688 A 16.366526 10.487288 0 0 0 223.09375 120.44531 A 16.366526 10.487288 0 0 0 226.26953 126.63477 A 12.552966 9.6927967 0 0 0 220.86914 134.58594 A 12.552966 9.6927967 0 0 0 222.70117 139.61133 A 9.375 6.3559322 0 0 0 217.69141 145.23242 A 9.375 6.3559322 0 0 0 227.06641 151.58984 A 9.375 6.3559322 0 0 0 229.07812 151.43164 A 16.207626 10.487288 0 0 0 242.47852 156.03906 A 16.207626 10.487288 0 0 0 258.68555 145.55078 A 16.207626 10.487288 0 0 0 245.92773 135.31055 A 12.552966 9.6927967 0 0 0 245.97461 134.58594 A 12.552966 9.6927967 0 0 0 244.71094 130.36328 A 16.366526 10.487288 0 0 0 255.82617 120.44531 A 16.366526 10.487288 0 0 0 253.32227 114.88086 A 13.347458 11.758474 0 0 0 253.60156 112.5 A 13.347458 11.758474 0 0 0 246.49609 102.11523 A 22.881355 11.122881 0 0 0 249.15234 96.927734 A 22.881355 11.122881 0 0 0 226.57227 85.8125 A 9.8516951 9.375 0 0 0 226.24805 83.849609 A 6.3559322 8.1038132 0 0 0 229.13086 77.066406 A 6.3559322 8.1038132 0 0 0 228.14453 72.736328 A 21.292374 10.487288 0 0 0 235.48633 64.830078 A 21.292374 10.487288 0 0 0 228.49609 57.076172 A 8.7394066 4.2902541 0 0 0 229.44922 55.138672 A 8.7394066 4.2902541 0 0 0 220.70898 50.847656 A 8.7394066 4.2902541 0 0 0 216.82227 51.296875 A 10.963984 8.1038132 0 0 0 217.37305 48.78125 A 10.963984 8.1038132 0 0 0 212.35156 41.980469 A 17.319916 6.5148306 0 0 0 216.73633 37.658203 A 17.319916 6.5148306 0 0 0 202.37305 31.246094 A 6.5148306 3.6546609 0 0 0 197.88477 29.314453 A 9.8516951 5.2436442 0 0 0 198.30469 27.806641 A 9.8516951 5.2436442 0 0 0 192.21289 22.960938 A 13.983051 5.0847459 0 0 0 192.26758 22.564453 A 13.983051 5.0847459 0 0 0 178.2832 17.478516 A 13.983051 5.0847459 0 0 0 171.48047 18.126953 A 6.1970339 2.8601694 0 0 0 169.36133 17.820312 A 6.1970339 4.1313558 0 0 0 169.38477 17.478516 A 6.1970339 4.1313558 0 0 0 164.44922 13.435547 A 5.4025426 4.2902541 0 0 0 160.16992 11.757812 A 5.4025426 4.2902541 0 0 0 158.57422 11.953125 A 6.8326273 5.4025426 0 0 0 151.74805 6.6738281 z M 127.43555 47.033203 A 4.4491525 6.5148306 0 0 0 122.98633 53.548828 A 4.4491525 6.5148306 0 0 0 126.42773 59.886719 A 3.4957628 8.4216099 0 0 0 126.16602 63.082031 A 3.4957628 8.4216099 0 0 0 126.56055 66.966797 A 4.4491525 9.0572033 0 0 0 123.62305 75.476562 A 4.4491525 9.0572033 0 0 0 127.46875 84.439453 A 4.4491525 5.5614405 0 0 0 127.125 86.449219 A 6.0381355 4.9258475 0 0 0 121.39844 91.367188 A 6.0381355 4.9258475 0 0 0 122.10156 93.667969 A 6.0381355 6.6737289 0 0 0 119.49219 99.152344 A 6.0381355 6.6737289 0 0 0 120.01172 101.83984 A 7.7860169 6.8326273 0 0 0 115.04297 108.20898 A 7.7860169 6.8326273 0 0 0 116.51953 112.19922 A 9.6927967 8.4216099 0 0 0 113.73047 114.91602 A 11.599576 8.4216099 0 0 0 106.62109 113.13477 A 11.599576 8.4216099 0 0 0 95.021484 121.55664 A 11.599576 8.4216099 0 0 0 99.966797 128.44922 A 12.711864 8.5805082 0 0 0 95.339844 135.06445 A 12.711864 8.5805082 0 0 0 95.359375 135.44531 A 9.0572033 4.7669492 0 0 0 92.314453 136.00195 A 19.70339 14.141949 0 0 0 77.224609 130.93164 A 19.70339 14.141949 0 0 0 61.871094 136.23047 A 8.8983049 9.375 0 0 0 55.296875 133.15625 A 8.8983049 9.375 0 0 0 46.398438 142.53125 A 8.8983049 9.375 0 0 0 55.296875 151.90625 A 8.8983049 9.375 0 0 0 59.298828 150.90234 A 19.70339 14.141949 0 0 0 63.162109 154.93555 A 17.002119 11.599576 0 0 0 60.064453 161.59961 A 17.002119 11.599576 0 0 0 61.744141 166.60352 A 10.32839 12.394068 0 0 0 61.621094 167.18359 A 11.758474 9.0572033 0 0 0 61.017578 167.16016 A 11.758474 9.0572033 0 0 0 51.433594 170.98047 A 10.010593 8.7394066 0 0 0 45.396484 172.88672 A 6.6737289 7.9449153 0 0 0 39.40625 168.43164 A 6.6737289 7.9449153 0 0 0 32.732422 176.37695 A 6.6737289 7.9449153 0 0 0 38.669922 184.26367 A 16.85371 8.4268551 0 0 0 36.179688 188.65234 A 16.85371 8.4268551 0 0 0 53.033203 197.08008 A 16.85371 8.4268551 0 0 0 64.839844 194.66211 A 14.141949 9.375 0 0 0 72.298828 196.08008 A 14.141949 9.375 0 0 0 86.441406 186.70508 A 14.141949 9.375 0 0 0 84.248047 181.69727 A 12.076271 8.7394066 0 0 0 85.804688 181.7793 A 12.076271 8.7394066 0 0 0 97.880859 173.04102 A 12.076271 8.7394066 0 0 0 92.822266 165.9375 A 17.002119 11.599576 0 0 0 94.068359 161.59961 A 17.002119 11.599576 0 0 0 91.117188 155.08594 A 19.70339 14.141949 0 0 0 94.482422 151.89258 A 11.440678 5.5614405 0 0 0 95.021484 151.90625 A 11.440678 5.5614405 0 0 0 101.625 150.87891 A 13.824153 10.169492 0 0 0 109.79883 152.85938 A 13.824153 10.169492 0 0 0 123.62305 142.69141 A 13.824153 10.169492 0 0 0 120.59961 136.36914 A 12.711864 8.5805082 0 0 0 120.76367 135.06445 A 12.711864 8.5805082 0 0 0 118.9707 130.68945 A 6.1970339 8.7394066 0 0 0 119.77148 127.16016 A 9.6927967 8.4216099 0 0 0 122.19336 127.43555 A 9.6927967 8.4216099 0 0 0 131.88477 119.01562 A 9.6927967 8.4216099 0 0 0 128.64453 112.74219 A 7.7860169 6.8326273 0 0 0 130.61523 108.20898 A 7.7860169 6.8326273 0 0 0 129.27539 104.38672 A 6.0381355 6.6737289 0 0 0 131.56836 99.152344 A 6.0381355 6.6737289 0 0 0 131.5625 99.003906 A 5.0847459 4.4491525 0 0 0 132.83984 99.152344 A 5.0847459 4.4491525 0 0 0 137.92383 94.703125 A 5.0847459 4.4491525 0 0 0 134.6875 90.564453 A 4.4491525 5.5614405 0 0 0 136.01758 86.599609 A 4.4491525 5.5614405 0 0 0 131.57617 81.039062 A 4.4491525 9.0572033 0 0 0 132.52148 75.476562 A 4.4491525 9.0572033 0 0 0 131.625 70.039062 A 3.4957628 8.4216099 0 0 0 133.15625 63.082031 A 3.4957628 8.4216099 0 0 0 131.55273 56.011719 A 4.4491525 6.5148306 0 0 0 131.88477 53.548828 A 4.4491525 6.5148306 0 0 0 127.43555 47.033203 z "
     style="opacity:1;fill:#9a8582;fill-opacity:1;fill-rule:evenodd;stroke:none;stroke-width:16;stroke-miterlimit:4;stroke-dasharray:none;stroke-opacity:1" />
  <path
     id="path5074"
     d="m 253.70508,142.02539 -10.41644,6.08203 -4.64062,-3.38672 1.39648,5.46094 -9.93598,6.44954 2.92273,8.08952 5.39258,-2.47265 c 0,0 10.85493,28.77123 11.46094,29.88867 12.53757,23.11823 30.23645,6.26604 22.24609,-8.98828 l -17.30209,-29.88725 6.29232,-4.27096 z"
     style="fill:#ffffff;fill-rule:evenodd;stroke:none;stroke-width:1px;stroke-linecap:butt;stroke-linejoin:miter;stroke-opacity:1;fill-opacity:1" />
  <use
     height="100%"
     width="100%"
     transform="matrix(0.83998248,0.89079373,-0.89079373,0.83998248,-23.47231,-149.85628)"
     id="use5079"
     xlink:href="#path5074"
     y="0"
     x="0" />
  <path
     id="path5081"
     d="m 141.34645,274.15764 c 5.59228,23.58304 19.6334,17.6054 22.69633,0.44944 l 8.08978,-17.97729 -14.15711,11.90995 -5.84262,-23.37048 -4.71904,22.02218 -13.03354,-6.51676 z"
     style="fill:#ffffff;fill-rule:evenodd;stroke:none;stroke-width:1px;stroke-linecap:butt;stroke-linejoin:miter;stroke-opacity:1;fill-opacity:1" />
  <use
     height="100%"
     width="100%"
     transform="matrix(0.71254797,0,0,0.71254797,17.504559,53.17126)"
     id="use5083"
     xlink:href="#path5081"
     y="0"
     x="0" />
  <use
     height="100%"
     width="100%"
     transform="matrix(0.77380952,0,0,0.77380952,43.878502,21.040173)"
     id="use5091"
     xlink:href="#path5081"
     y="0"
     x="0" />
  <use
     height="100%"
     width="100%"
     transform="matrix(0.50074121,0,0,0.50074121,63.71978,73.414791)"
     id="use5095"
     xlink:href="#path5081"
     y="0"
     x="0" />
  <use
     height="100%"
     width="100%"
     transform="matrix(0.43518197,0,0,0.43518197,94.327111,71.061177)"
     id="use5099"
     xlink:href="#path5081"
     y="0"
     x="0" />
  <use
     height="100%"
     width="100%"
     transform="matrix(0.37970877,0,0,0.37970877,80.658297,77.920016)"
     id="use5101"
     xlink:href="#path5081"
     y="0"
     x="0" />
  <use
     height="100%"
     width="100%"
     transform="matrix(0.39483782,0,0,0.39483782,90.535206,58.705424)"
     id="use5103"
     xlink:href="#path5081"
     y="0"
     x="0" />
  <use
     height="100%"
     width="100%"
     transform="matrix(0.3040635,0,0,0.3040635,104.53121,66.129237)"
     id="use5105"
     xlink:href="#path5081"
     y="0"
     x="0" />
  <use
     height="100%"
     width="100%"
     transform="matrix(0.22841822,0,0,0.22841822,116.26946,71.866307)"
     id="use5107"
     xlink:href="#path5081"
     y="0"
     x="0" />
</svg>
