<?xml version="1.0" encoding="UTF-8" standalone="no"?>
<svg
   xmlns:dc="http://purl.org/dc/elements/1.1/"
   xmlns:cc="http://creativecommons.org/ns#"
   xmlns:rdf="http://www.w3.org/1999/02/22-rdf-syntax-ns#"
   xmlns:svg="http://www.w3.org/2000/svg"
   xmlns="http://www.w3.org/2000/svg"
   xmlns:xlink="http://www.w3.org/1999/xlink"
   width="302"
   height="115"
   viewBox="0 0 600.00001 300"
   id="svg4136"
   version="1.1">
  <defs
     id="defs4138" />
  <metadata
     id="metadata4141">
    <rdf:RDF>
      <cc:Work
         rdf:about="">
        <dc:format>image/svg+xml</dc:format>
        <dc:type
           rdf:resource="http://purl.org/dc/dcmitype/StillImage" />
        <dc:title></dc:title>
      </cc:Work>
    </rdf:RDF>
  </metadata>
  <g
     transform="matrix(1.1451565,0,0,1.1451565,-487.82721,-35.650765)"
     id="g4153"
     style="opacity:0.40100002">
    <path
       style="opacity:1;fill:#f0f0f0;fill-opacity:1;fill-rule:evenodd;stroke:none;stroke-width:1px;stroke-linecap:butt;stroke-linejoin:miter;stroke-opacity:1"
       d="m 481.28188,119.25407 a 22.321428,22.321428 0 0 0 -22.32031,22.32226 22.321428,22.321428 0 0 0 14.13672,20.74414 c -25.80416,8.97213 -43.93522,33.91563 -46.63671,48.09571 -2.71301,14.24053 9.43137,16.94792 12.85742,12.5 3.42604,-4.44791 8.41787,-20.28008 15.71289,-26.42969 l 0,50.71484 56.42968,0 0,-50.12304 c 8.26489,9.37042 11.71,19.39656 15.23828,26.00781 2.44709,4.58531 15.05655,4.89215 13.03321,-12.38086 -2.01365,-17.19026 -25.03996,-40.30984 -50.23047,-48.38281 a 22.321428,22.321428 0 0 0 14.10156,-20.7461 22.321428,22.321428 0 0 0 -22.32227,-22.32226 z"
       id="path4590" />
    <circle
       style="opacity:1;fill:#ffffff;fill-opacity:1;stroke:none;stroke-opacity:1"
       id="circle4592"
       cx="480.95886"
       cy="134.46126"
       r="8.9651041" />
  </g>
  <use
     x="0"
     y="0"
     xlink:href="#g4153"
     id="use4806"
     transform="translate(429.12489,0)"
     width="100%"
     height="100%"
     style="opacity:0.6800001" />
  <path
     style="fill:#ffffff;fill-rule:evenodd;stroke:none;stroke-width:1px;stroke-linecap:butt;stroke-linejoin:miter;stroke-opacity:1;fill-opacity:1"
     d="M 136.00586 57.921875 L 136.00586 64.537109 L 122.2793 64.537109 L 122.2793 71.613281 L 136.00586 71.613281 L 136.00586 78.845703 L 160.92969 67.458984 L 136.00586 57.921875 z M 90.925781 64.537109 L 90.925781 71.613281 L 99.433594 71.613281 L 99.433594 64.537109 L 90.925781 64.537109 z M 104.98242 64.537109 L 104.98242 71.613281 L 116.83984 71.613281 L 116.83984 64.537109 L 104.98242 64.537109 z "
     transform="matrix(2.6086957,0,0,2.6086957,-93.913045,0)"
     id="path4810" />
  <path
     style="opacity:0.73999999;fill:#ffffff;fill-opacity:1;fill-rule:nonzero;stroke:none;stroke-opacity:1"
     d="m 448.37466,130.64613 a 141.47673,34.716987 0 0 0 -98.39163,33.05707 141.47673,34.716987 0 0 0 141.47588,34.71808 141.47673,34.716987 0 0 0 141.47588,-34.71808 141.47673,34.716987 0 0 0 -98.0197,-32.99592 44.951474,53.379872 0 0 1 1.49288,9.43105 122.61317,20.468973 0 0 1 76.46228,18.94871 122.61317,20.468973 0 0 1 -122.61379,20.46705 122.61317,20.468973 0 0 1 -122.61378,-20.46705 122.61317,20.468973 0 0 1 79.31045,-19.13723 44.951474,53.379872 0 0 1 1.42153,-9.30368 z"
     id="path4818" />
  <path
     style="opacity:0.74;fill:#ffffff;fill-opacity:1;fill-rule:nonzero;stroke:none;stroke-opacity:1"
     d="M 209.97461 64.414062 A 54.232745 13.308178 0 0 0 170.16016 77.230469 A 54.232745 13.308178 0 0 0 224.39258 90.539062 A 54.232745 13.308178 0 0 0 278.625 77.230469 A 54.232745 13.308178 0 0 0 240.80664 64.5625 C 242.29384 65.793821 243.66542 67.099283 244.875 68.447266 A 47.001714 7.8464395 0 0 1 270.93359 75.460938 A 47.001714 7.8464395 0 0 1 223.93164 83.306641 A 47.001714 7.8464395 0 0 1 176.92969 75.460938 A 47.001714 7.8464395 0 0 1 206.38281 68.185547 C 207.45658 66.894965 208.6498 65.620817 209.97461 64.414062 z "
     transform="matrix(2.6086957,0,0,2.6086957,-93.913045,0)"
     id="path4836" />
  <use
     style="opacity:0.6800001"
     height="100%"
     width="100%"
     transform="translate(429.12489,0)"
     id="use4853"
     xlink:href="#g4153"
     y="0"
     x="0" />
</svg>
