<?xml version="1.0" encoding="UTF-8" standalone="no"?>
<svg
   xmlns:dc="http://purl.org/dc/elements/1.1/"
   xmlns:cc="http://creativecommons.org/ns#"
   xmlns:rdf="http://www.w3.org/1999/02/22-rdf-syntax-ns#"
   xmlns:svg="http://www.w3.org/2000/svg"
   xmlns="http://www.w3.org/2000/svg"
   version="1.1"
   id="svg2"
   viewBox="0 0 300 300"
   height="300"
   width="300">
  <defs
     id="defs4" />
  <metadata
     id="metadata7">
    <rdf:RDF>
      <cc:Work
         rdf:about="">
        <dc:format>image/svg+xml</dc:format>
        <dc:type
           rdf:resource="http://purl.org/dc/dcmitype/StillImage" />
        <dc:title></dc:title>
      </cc:Work>
    </rdf:RDF>
  </metadata>
  <path
     id="path4185"
     d="m 105.82627,86.122881 -27.330507,0 0,12.711865 -19.385593,0 0,11.440674 -29.237289,2.86017 0,2.54238 -15.719639,2.22457 0.542513,4.52627 13.254377,-0.13165 c 1.918008,3.94141 -7.201764,9.80428 -13.649285,9.27064 l -0.898865,3.47318 c 6.581149,3.91311 19.314448,-2.13796 20.284459,-12.68929 l 29.555084,-3.17796 c 15.092989,6.82088 30.909427,17.25899 41.949155,3.81356 l 19.70339,0 z"
     style="fill:#9eb3b8;fill-rule:evenodd;stroke:none;stroke-width:1px;stroke-linecap:butt;stroke-linejoin:miter;stroke-opacity:1;fill-opacity:1;opacity:1" />
  <path
     id="path4187"
     d="M 114.15625 14.160156 L 101.57227 26.746094 L 114.15625 35.734375 L 114.15625 45.621094 L 92.583984 66.744141 L 114.15625 111.6875 L 108.76172 122.47461 L 114.60547 129.21484 L 95.728516 153.48438 L 103.36914 171.01367 L 112.35742 173.25977 L 97.527344 199.77734 L 77.302734 206.51758 L 87.189453 226.29297 L 134.38086 215.50586 L 140.22266 207.41602 L 131.23438 200.22656 L 136.17773 193.93359 L 141.12109 193.48438 L 158.19922 172.36133 L 152.80664 144.49609 L 166.74023 140.00195 L 173.03125 166.51953 L 157.75 207.86719 L 168.53711 208.31641 L 167.63867 231.23633 L 156.85156 250.11328 L 144.26758 255.50586 L 144.26758 261.34961 L 150.11133 268.98828 C 150.11133 268.98828 164.04297 265.84268 164.04297 268.08984 L 164.04297 276.62891 L 179.32422 276.62891 L 198.42383 257.5293 L 198.42383 238.87695 L 189.12695 233.50977 L 201.99023 220.64648 L 210.17773 190.08789 L 198.7207 183.47266 L 215.90625 153.70898 L 204.23828 146.97266 L 209.88477 146.97266 L 209.88477 75.283203 L 213.92969 38.878906 L 179.73242 21.902344 L 161.79492 21.902344 L 159.3418 31.0625 L 146.51562 31.0625 L 146.51562 20.003906 L 143.36914 14.160156 L 114.15625 14.160156 z M 167.41406 29.441406 L 175.72852 29.441406 L 207.41211 44.048828 L 204.04297 50.789062 L 167.41406 35.285156 L 167.41406 29.441406 z "
     style="fill:#ffffff;fill-rule:evenodd;stroke:none;stroke-width:1px;stroke-linecap:butt;stroke-linejoin:miter;stroke-opacity:1;fill-opacity:1;opacity:1" />
  <path
     id="path4192"
     d="m 231.45762,15.059937 42.24664,25.617639 -28.31424,45.39266 -4.49432,33.257984 -31.46026,17.07843 -4.49432,9.43808 -51.68471,22.47161 -4.15509,-7.19682 -26.85574,-0.44353 -31.46026,15.2807 -15.280698,17.07843 c -15.287688,-0.8522 -20.216691,-9.18568 -13.9324,-25.61764 l 26.067072,-3.14603 30.561396,-16.17956 -0.44943,-8.08978 19.77502,-15.2807 -5.39319,-7.64035 40.89834,-16.62899 5.39318,7.19092 8.08978,-4.94376 z"
     style="fill:#9eb3b8;fill-rule:evenodd;stroke:none;stroke-width:1px;stroke-linecap:butt;stroke-linejoin:miter;stroke-opacity:1;fill-opacity:1" />
</svg>
