<?xml version="1.0" encoding="UTF-8" standalone="no"?>
<svg
   xmlns:dc="http://purl.org/dc/elements/1.1/"
   xmlns:cc="http://creativecommons.org/ns#"
   xmlns:rdf="http://www.w3.org/1999/02/22-rdf-syntax-ns#"
   xmlns:svg="http://www.w3.org/2000/svg"
   xmlns="http://www.w3.org/2000/svg"
   version="1.1"
   id="svg2"
   viewBox="0 0 300 300"
   height="300"
   width="300">
  <defs
     id="defs4" />
  <metadata
     id="metadata7">
    <rdf:RDF>
      <cc:Work
         rdf:about="">
        <dc:format>image/svg+xml</dc:format>
        <dc:type
           rdf:resource="http://purl.org/dc/dcmitype/StillImage" />
        <dc:title></dc:title>
      </cc:Work>
    </rdf:RDF>
  </metadata>
  <path
     style="fill:#ffffff;fill-rule:evenodd;stroke:none;stroke-width:1px;stroke-linecap:butt;stroke-linejoin:miter;stroke-opacity:1;fill-opacity:1"
     d="m 84.493268,28.093 0,36.853919 24.718772,-26.067072 56.17904,0.898865 2.7326,4.733011 0,20.435196 36.81744,0 14.1394,52.768961 -52.34115,0 -5.39318,24.53339 15.73013,6.29205 26.06707,54.83074 -16.17956,15.2807 -6.29205,-4.94376 -3.14603,4.49433 8.98864,16.62899 -5.39318,4.94375 14.83126,26.51651 13.03354,0 2.81486,-4.87548 4.15134,0 0,7.79679 -4.94376,6.9662 -64.8306,0 -1.97271,-3.41684 0,-7.59425 18.37699,0 -6.51677,-15.73013 -5.84262,0 -15.61777,-32.24677 20.44917,-15.28069 -16.40428,-33.14563 c -13.13009,6.30572 -22.74847,0.67165 -33.03327,-2.6966 l -8.089786,26.85358 11.123446,31.23554 -6.74148,26.74122 -5.168472,0.33708 1.235938,13.25825 8.651574,0 0,9.43808 -3.37074,3.37074 -45.392664,0 -3.146026,-3.14603 0,-10.33694 15.505413,0 0,-5.16847 -10.224584,0 9.550436,-15.95485 -5.617904,-8.42685 6.966201,-9.88751 -13.482969,-24.3817 9.999869,-55.61725 28.201875,0 -5.505545,-28.31423 -60.111568,-3.70782 15.393056,-51.235275 16.067204,0 0,-26.404147 8.539213,-6.629598 z"
     id="path4158" />
  <path
     id="path4151"
     d="M 127.63867 34.609375 C 122.23821 34.905428 120.52768 38.200131 119.88672 42.363281 L 119.99805 113.03711 C 120.92563 116.29654 121.24919 120.05876 125.61719 120.45117 L 155.2793 120.45117 C 158.98266 120.45917 160.47993 117.6616 160.89648 113.48633 L 160.89648 43.375 C 160.44964 39.114237 158.56171 35.880719 153.92969 34.609375 L 127.63867 34.609375 z M 18.755859 95.722656 C 15.499908 95.721555 13.146018 98.666073 11.572266 104.16016 L 13.146484 134.7207 C 23.579619 168.0253 40.674456 166.6875 56.853516 170.11328 L 56.853516 149.66406 L 60.673828 149.66406 L 60.673828 117.75586 C 47.987411 108.66632 37.319041 109.33049 26.353516 108.55859 L 25.617188 98.992188 C 22.988039 96.784638 20.70943 95.723317 18.755859 95.722656 z M 251.53516 103.60156 L 186.07031 117.7168 L 186.07031 129.34375 L 179.07812 129.34375 L 178.75977 146.98047 C 178.82097 149.22223 179.0155 151.30411 179.31641 153.25195 L 186.15039 167.63086 C 194.65037 175.23467 210.50304 173.82313 233.95117 163.09766 L 264.78125 154.83789 L 263.64062 150.58203 L 285.01172 144.85547 C 285.43478 139.52601 285.37448 134.31709 281.07617 130.16797 L 260.69531 135.62891 L 257.63672 124.21484 L 278.25781 118.68945 C 279.96441 113.03404 278.71745 108.26589 274.43164 104.4082 L 253.27148 110.07812 L 251.53516 103.60156 z "
     style="fill:#9db1ba;fill-rule:evenodd;stroke:none;stroke-width:1px;stroke-linecap:butt;stroke-linejoin:miter;stroke-opacity:1;fill-opacity:1;opacity:1" />
</svg>
