<?xml version="1.0" encoding="UTF-8" standalone="no"?>
<svg
   xmlns:dc="http://purl.org/dc/elements/1.1/"
   xmlns:cc="http://creativecommons.org/ns#"
   xmlns:rdf="http://www.w3.org/1999/02/22-rdf-syntax-ns#"
   xmlns:svg="http://www.w3.org/2000/svg"
   xmlns="http://www.w3.org/2000/svg"
   version="1.1"
   id="svg4136"
   viewBox="0 0 600.00001 300"
   height="115"
   width="302">
  <defs
     id="defs4138" />
  <metadata
     id="metadata4141">
    <rdf:RDF>
      <cc:Work
         rdf:about="">
        <dc:format>image/svg+xml</dc:format>
        <dc:type
           rdf:resource="http://purl.org/dc/dcmitype/StillImage" />
        <dc:title></dc:title>
      </cc:Work>
    </rdf:RDF>
  </metadata>
  <path
     id="path5035"
     transform="matrix(2.6086957,0,0,2.6086957,-93.913045,0)"
     d="m 253.70117,36.998047 c -8.26929,10.786093 -15.81497,22.069674 -43.23242,19.691406 0.66388,-5.683608 -1.56187,-10.128804 -3.69141,-14.615234 -6.85797,7.682858 -16.59654,12.197058 -27.54101,15.384765 -1.735,-4.497921 -4.63075,-7.544893 -8,-10 -2.68997,7.196114 -9.6847,10.894612 -18.92383,12.769532 l 0,5.230468 65.23438,17.539063 c 13.64578,0.0052 36.02046,3.656747 36.15429,-46 z m -209.533201,6.527344 0,2.285156 -4.132813,0 -13.164062,7.070312 0,14.904297 3.916015,0 c -5.287733,8.250537 -8.478187,17.759442 -10.878906,27.742188 l 19.039063,5.439456 0.326172,-4.351566 -2.06836,-0.435546 c 0.711691,-6.05599 2.012809,-12.111979 4.460938,-18.167969 l 20.996093,0 5.765625,-8.160157 13.056641,0 0,10.226563 4.458984,0 0,3.263672 14.578121,20.996093 c 12.73393,8.04681 20.62396,-0.21607 17.95118,-10.769531 l -6.20118,-8.59375 19.36329,7.615235 c 5.79601,2.003423 10.48631,1.005628 14.25195,-2.501953 l 6.0918,-14.142579 -5.00391,-1.958984 -8.8125,11.53125 -28.50195,-10.333984 -0.97852,-2.720703 0,-6.091797 13.70703,0 5.43945,4.460937 19.69141,-4.896484 0,-11.205078 -18.92969,-4.351563 -6.31054,4.78711 -12.67383,0 0,-3.208985 -1.25195,-1.251953 -15.990239,0 0,4.896484 -5.658203,0 0,-5.765624 -5.220703,0 -2.285156,2.501953 0,-7.181641 -5.222657,0 -1.197265,-1.630859 z m 9.138672,26.761718 9.90039,0 -2.828125,4.896485 -9.791015,0 c -0.07732,-1.795829 1.062136,-3.389647 2.71875,-4.896485 z"
     style="fill:#f5f5f5;fill-rule:evenodd;stroke:none;stroke-width:1px;stroke-linecap:butt;stroke-linejoin:miter;stroke-opacity:1;fill-opacity:1;opacity:1" />
</svg>
