<?xml version="1.0" encoding="UTF-8" standalone="no"?>
<svg
   xmlns:dc="http://purl.org/dc/elements/1.1/"
   xmlns:cc="http://creativecommons.org/ns#"
   xmlns:rdf="http://www.w3.org/1999/02/22-rdf-syntax-ns#"
   xmlns:svg="http://www.w3.org/2000/svg"
   xmlns="http://www.w3.org/2000/svg"
   width="1200"
   height="300"
   viewBox="0 0 1200 300"
   id="svg2"
   version="1.1">
  <defs
     id="defs4" />
  <metadata
     id="metadata7">
    <rdf:RDF>
      <cc:Work
         rdf:about="">
        <dc:format>image/svg+xml</dc:format>
        <dc:type
           rdf:resource="http://purl.org/dc/dcmitype/StillImage" />
        <dc:title></dc:title>
      </cc:Work>
    </rdf:RDF>
  </metadata>
  <circle
     r="146.04692"
     cy="148.99287"
     cx="603.60358"
     id="path4158"
     style="opacity:0.91799999;fill:#f3f3ff;fill-opacity:0.60204083;fill-rule:evenodd;stroke:none;stroke-width:1;stroke-miterlimit:4;stroke-dasharray:none;stroke-opacity:1" />
  <path
     id="path4150"
     d="m 734.05764,110.227 0,22.87137 406.68156,0 12.8653,-22.87137 -419.54686,0 z m 0,35.02228 0,22.87145 383.45306,0 12.8653,-22.87145 -396.31836,0 z m 0,34.30635 19.58365,22.87144 219.49392,0 12.86528,-22.87144 -251.94285,0 z"
     style="opacity:0.91799999;fill:#e5e6e8;fill-opacity:1;fill-rule:evenodd;stroke:none;stroke-width:1px;stroke-linecap:butt;stroke-linejoin:miter;stroke-opacity:1" />
  <path
     style="opacity:0.91799999;fill:#e5e6e8;fill-opacity:1;fill-rule:evenodd;stroke:none;stroke-width:1px;stroke-linecap:butt;stroke-linejoin:miter;stroke-opacity:1"
     d="m 471.3521,110.227 0,22.87137 -406.681699,0 -12.865282,-22.87137 419.546981,0 z m 0,35.02228 0,22.87145 -383.453151,0 -12.865203,-22.87145 396.318354,0 z m 0,34.30635 -19.58365,22.87144 -219.49392,0 -12.86527,-22.87144 251.94284,0 z"
     id="path4162" />
  <g
     transform="matrix(0.79514962,0,0,0.79514962,483.00073,11.991125)"
     id="g4178">
    <ellipse
       style="opacity:1;fill:#8b8b8b;fill-opacity:1;fill-rule:evenodd;stroke:none;stroke-width:16;stroke-miterlimit:4;stroke-dasharray:none;stroke-opacity:1"
       id="path5131"
       cx="150.24341"
       cy="111.37544"
       rx="35.420994"
       ry="40.52182" />
    <path
       style="fill:#d9d9d9;fill-opacity:1;fill-rule:evenodd;stroke:none;stroke-width:1px;stroke-linecap:butt;stroke-linejoin:miter;stroke-opacity:1"
       d="m 137.51219,148.79594 c -17.25992,2.07369 -64.686419,-14.3132 -39.671515,-73.270867 l 12.144335,14.978022 c 0.69786,-61.015345 17.25729,-70.785617 31.37288,-88.4512886 1.40306,14.3496286 0.1662,32.3951516 6.477,39.8739236 4.248,-4.771123 7.99786,-10.206465 13.76358,-12.953967 -4.91949,29.327112 1.90215,37.128809 9.71547,43.112414 9.16726,-4.354992 10.27328,-14.290837 12.75157,-23.276656 -1.90355,11.37646 53.90398,75.919109 -17.8117,101.202859 4.20751,-14.66924 15.21679,-28.8694 5.06013,-44.52926 l -9.51306,5.46496 c -10.05293,-7.48218 -13.18684,-21.191447 -18.21651,-33.194541 -4.41338,-1.225936 -14.19148,40.834551 -9.71548,41.897991 0.88068,0.20922 -11.7459,-9.19982 -12.54915,-7.08421 -7.77282,20.47224 15.39042,37.91488 16.19245,36.23062 z"
       id="path5133" />
    <path
       id="path4170"
       d="m 52.372376,122.06216 c 1.024559,65.99582 15.981723,116.73574 37.850132,176.71973 l 120.319732,0 c 6.04574,-16.58316 11.53559,-32.45378 16.37623,-48.14157 41.84969,-10.30194 123.97633,-123.26553 21.12854,-116.70531 0.1637,-3.90529 0.2803,-7.86027 0.3426,-11.87285 z M 233.3341,228.36638 c 6.73487,-25.26699 11.53647,-50.68859 13.73758,-78.44203 59.00921,-7.38558 14.37007,65.36455 -13.73758,78.44203 z"
       style="fill:#383838;fill-opacity:1" />
    <path
       id="path4147"
       d="m 135.90791,132.75697 -43.917978,26.62356 0,60.52953 -14.563055,18.65833 34.587033,29.3549 5.00689,-5.46092 14.56308,19.11412 18.26409,0 0.39597,0 18.26411,0 14.56305,-19.11412 5.00689,5.46092 34.58705,-29.3549 -14.56306,-18.65833 0,-60.52953 -43.91797,-26.62356 -13.0302,0 -2.21569,0 -13.03021,0 z m -17.06739,83.51189 a 13.880702,13.880702 0 0 1 13.88198,13.88022 13.880702,13.880702 0 0 1 -13.88198,13.88199 13.880702,13.880702 0 0 1 -13.88022,-13.88199 13.880702,13.880702 0 0 1 13.88022,-13.88022 z m 62.41086,0 a 13.880702,13.880702 0 0 1 13.88023,13.88022 13.880702,13.880702 0 0 1 -13.88023,13.88199 13.880702,13.880702 0 0 1 -13.88198,-13.88199 13.880702,13.880702 0 0 1 13.88198,-13.88022 z m -31.20631,29.06628 9.32036,14.64578 -5.14942,2.89501 -2.73487,-4.42434 -1.09641,0 -0.67755,0 -1.09641,0 -2.73486,4.42434 -5.14943,-2.89501 9.31859,-14.64578 z"
       style="fill:#ffffff;fill-opacity:1;fill-rule:evenodd;stroke:none;stroke-width:0.85713428px;stroke-linecap:butt;stroke-linejoin:miter;stroke-opacity:1" />
  </g>
</svg>
