<?xml version="1.0" encoding="UTF-8" standalone="no"?>
<svg
   xmlns:dc="http://purl.org/dc/elements/1.1/"
   xmlns:cc="http://creativecommons.org/ns#"
   xmlns:rdf="http://www.w3.org/1999/02/22-rdf-syntax-ns#"
   xmlns:svg="http://www.w3.org/2000/svg"
   xmlns="http://www.w3.org/2000/svg"
   width="302"
   height="115"
   viewBox="0 0 600 300"
   id="svg2"
   version="1.1">
  <defs
     id="defs4" />
  <metadata
     id="metadata7">
    <rdf:RDF>
      <cc:Work
         rdf:about="">
        <dc:format>image/svg+xml</dc:format>
        <dc:type
           rdf:resource="http://purl.org/dc/dcmitype/StillImage" />
        <dc:title></dc:title>
      </cc:Work>
    </rdf:RDF>
  </metadata>
  <g
     style="opacity:1;stroke:none;stroke-opacity:1"
     id="g4153"
     transform="matrix(1.5598628,0,0,1.5598628,-449.20907,-104.72044)">
    <path
       id="path4590"
       d="m 481.28188,119.25407 a 22.321428,22.321428 0 0 0 -22.32031,22.32226 22.321428,22.321428 0 0 0 14.13672,20.74414 c -25.80416,8.97213 -43.93522,33.91563 -46.63671,48.09571 -2.71301,14.24053 9.43137,16.94792 12.85742,12.5 3.42604,-4.44791 8.41787,-20.28008 15.71289,-26.42969 l 0,50.71484 56.42968,0 0,-50.12304 c 8.26489,9.37042 11.71,19.39656 15.23828,26.00781 2.44709,4.58531 15.05655,4.89215 13.03321,-12.38086 -2.01365,-17.19026 -25.03996,-40.30984 -50.23047,-48.38281 a 22.321428,22.321428 0 0 0 14.10156,-20.7461 22.321428,22.321428 0 0 0 -22.32227,-22.32226 z"
       style="opacity:1;fill:#b9b9b9;fill-opacity:1;fill-rule:evenodd;stroke:none;stroke-width:1px;stroke-linecap:butt;stroke-linejoin:miter;stroke-opacity:1" />
    <circle
       r="8.9651041"
       cy="134.46126"
       cx="480.95886"
       id="circle4592"
       style="opacity:1;fill:#d5d5d5;fill-opacity:1;stroke:none;stroke-opacity:1" />
  </g>
  <path
     id="path8916"
     d="M 335.71289,125.74805 A 35.300972,35.300972 0 0 1 301.75,151.55078 35.300972,35.300972 0 0 1 268.0957,126.77734 c -7.08901,2.13881 -14.22288,4.8671 -21.40039,8.15625 l 0,33.94141 c 36.23905,-9.57763 72.90424,-13.82673 111.01563,0 l 0,-33.94141 c -7.26633,-3.92203 -14.60118,-6.96049 -21.99805,-9.18554 z"
     style="opacity:1;fill:#d9d9d9;fill-opacity:1;fill-rule:evenodd;stroke:none;stroke-width:1px;stroke-linecap:butt;stroke-linejoin:miter;stroke-opacity:1" />
  <path
     id="path8918"
     d="m 265.71875,122.91211 c -7.69272,1.15645 -14.85227,3.64611 -21.21289,8.13281 -3.44656,6.57171 -5.8581,13.55643 -5.98242,21.45703 l -9.88477,0 -12.32617,13.57617 c -0.22645,12.035 3.71022,14.42788 9.92773,16.92383 9.67864,-7.39174 19.58777,-13.15945 29.93165,-15.89453 l 0,-27.22461 -5.125,-5.12695 c 3.56862,-3.41042 7.65044,-5.79207 12.55078,-6.53906 l -2.82813,6.71679 c -1.27556,9.19239 -1.29746,18.38379 1.41406,27.57618 -6.04386,16.73839 -2.27578,29.9737 0.70703,43.48828 l 13.78711,8.83789 2.47657,-3.53516 45.57226,0 2.47461,3.53516 13.78906,-8.83789 c 2.98282,-13.51458 6.7509,-26.74989 0.70704,-43.48828 2.71152,-9.19239 2.68962,-18.38379 1.41406,-27.57618 l -2.82813,-6.71679 c 4.90034,0.74699 8.98216,3.12864 12.55078,6.53906 l -5.12695,5.12695 0,27.22461 c 10.34388,2.73508 20.25496,8.50279 29.93359,15.89453 6.21751,-2.49595 10.15224,-4.88883 9.92579,-16.92383 l -12.32422,-13.57617 -9.88672,0 c -0.12432,-7.9006 -2.53391,-14.88532 -5.98047,-21.45703 -6.36062,-4.4867 -13.52017,-6.97636 -21.21289,-8.13281 -23.53464,23.53464 -48.11732,24.32604 -72.44336,0 z"
     style="opacity:1;fill:#ffffff;fill-opacity:1;fill-rule:evenodd;stroke:none;stroke-width:1px;stroke-linecap:butt;stroke-linejoin:miter;stroke-opacity:1" />
</svg>
