<?xml version="1.0" encoding="UTF-8" standalone="no"?>
<svg
   xmlns:dc="http://purl.org/dc/elements/1.1/"
   xmlns:cc="http://creativecommons.org/ns#"
   xmlns:rdf="http://www.w3.org/1999/02/22-rdf-syntax-ns#"
   xmlns:svg="http://www.w3.org/2000/svg"
   xmlns="http://www.w3.org/2000/svg"
   width="302"
   height="115"
   viewBox="0 0 600.00001 300"
   id="svg4136"
   version="1.1">
  <defs
     id="defs4138" />
  <metadata
     id="metadata4141">
    <rdf:RDF>
      <cc:Work
         rdf:about="">
        <dc:format>image/svg+xml</dc:format>
        <dc:type
           rdf:resource="http://purl.org/dc/dcmitype/StillImage" />
        <dc:title></dc:title>
      </cc:Work>
    </rdf:RDF>
  </metadata>
  <path
     id="path4454"
     transform="matrix(2.6086957,0,0,2.6086957,-93.913045,0)"
     d="m 139.81445,50.082031 c -3.70318,-1.74e-4 -6.70525,3.001895 -6.70507,6.705078 l -4.28907,0.0625 -8.19922,-3.558593 -1.90625,1.970703 -21.035152,0 -1.144532,1.58789 -9.722656,0 0,14.363282 1.587891,0 0,15.251953 6.927734,0 14.425785,-6.800782 21.54492,0 c -3.44563,3.365831 -4.89344,7.855432 -6.48242,12.265626 l 9.02539,4.576171 1.65234,-1.841797 -1.01758,-1.017578 c 0.36636,-3.067864 0.90605,-6.094946 2.66992,-8.833984 l 10.35743,-0.888672 5.33984,-6.054687 9.72266,0 0,-4.304688 1.9707,0 0,4.304688 9.22266,0 2.72461,-1.572266 10.54882,0 0,-3.496094 2.79688,0 0,3.304688 6.48242,0 c 1.54891,-5.662477 1.61745,-11.480784 0,-17.476563 l -6.41797,0 0,3.304688 -2.73242,0 0,-2.414063 -13.60156,0 0,-1.46289 -10.92969,0 0,-1.207032 -2.54288,-0.0625 c 1.8e-4,-3.703187 -3.00189,-6.705257 -6.70508,-6.705078 -3.70319,-1.79e-4 -6.70526,3.001891 -6.70508,6.705078 l -0.15807,0 c 1.8e-4,-3.703187 -3.00189,-6.705257 -6.70508,-6.705078 z m 3.5586,27.740235 5.7832,0 -2.73242,3.75 -4.83008,0.634765 z"
     style="fill:#c7c7c7;fill-rule:evenodd;stroke:none;stroke-width:1px;stroke-linecap:butt;stroke-linejoin:miter;stroke-opacity:1;fill-opacity:1;opacity:1" />
</svg>
