<?xml version="1.0" encoding="UTF-8" standalone="no"?>
<svg
   xmlns:dc="http://purl.org/dc/elements/1.1/"
   xmlns:cc="http://creativecommons.org/ns#"
   xmlns:rdf="http://www.w3.org/1999/02/22-rdf-syntax-ns#"
   xmlns:svg="http://www.w3.org/2000/svg"
   xmlns="http://www.w3.org/2000/svg"
   version="1.1"
   id="svg2"
   viewBox="0 0 300 300"
   height="300"
   width="300">
  <defs
     id="defs4" />
  <metadata
     id="metadata7">
    <rdf:RDF>
      <cc:Work
         rdf:about="">
        <dc:format>image/svg+xml</dc:format>
        <dc:type
           rdf:resource="http://purl.org/dc/dcmitype/StillImage" />
        <dc:title></dc:title>
      </cc:Work>
    </rdf:RDF>
  </metadata>
  <path
     id="path4476"
     d="m 103.03556,57.058313 14.64721,52.022857 29.29443,10.6066 29.7995,-25.253813 14.64721,7.576143 34.34518,-33.840109 24.74874,1.010152 33.84011,77.781747 -11.11168,14.14213 -16.16244,0 -21.2132,20.70813 -0.50508,9.09138 -42.93148,24.74873 -3.53553,51.51778 -18.68783,-2.0203 -48.48732,-40.4061 C 73.172277,228.56504 62.966539,206.02399 59.599,178.78169 L 2.5253814,152.51773 C 4.649276,136.50222 11.769692,124.13801 26.263966,117.16239 L 81.31728,140.90097 85.862966,133.32483 60.861691,81.807051 C 67.543336,64.228607 80.189305,54.193279 103.03556,57.058313 Z"
     style="fill:#edf5f8;fill-rule:evenodd;stroke:none;stroke-width:1px;stroke-linecap:butt;stroke-linejoin:miter;stroke-opacity:1;fill-opacity:1;opacity:1" />
  <path
     id="path4493"
     d="M 111.26562 86.289062 C 97.763431 92.079609 84.878947 98.946112 73.5625 107.98047 L 80.914062 123.125 C 90.058301 113.44777 101.47374 106.2663 115.75391 102.22852 L 111.26562 86.289062 z M 53.554688 128.92969 C 45.961377 139.57999 40.003725 152.38681 36.294922 168.05664 L 54.314453 176.34961 C 58.206847 161.28029 63.483267 147.73089 70.714844 136.32812 L 53.554688 128.92969 z "
     style="fill:#c1c6c6;fill-rule:evenodd;stroke:none;stroke-width:1px;stroke-linecap:butt;stroke-linejoin:miter;stroke-opacity:1;fill-opacity:1;opacity:1" />
  <path
     id="path4516"
     d="m 210.71429,147.5 54.64285,0 L 237.5,89.285714 Z"
     style="fill:#bdc5c8;fill-rule:evenodd;stroke:none;stroke-width:1px;stroke-linecap:butt;stroke-linejoin:miter;stroke-opacity:1;fill-opacity:1;opacity:1" />
</svg>
