<?xml version="1.0" encoding="UTF-8" standalone="no"?>
<svg
   xmlns:dc="http://purl.org/dc/elements/1.1/"
   xmlns:cc="http://creativecommons.org/ns#"
   xmlns:rdf="http://www.w3.org/1999/02/22-rdf-syntax-ns#"
   xmlns:svg="http://www.w3.org/2000/svg"
   xmlns="http://www.w3.org/2000/svg"
   width="302"
   height="115"
   viewBox="0 0 600.00001 300"
   id="svg4136"
   version="1.1">
  <defs
     id="defs4138" />
  <metadata
     id="metadata4141">
    <rdf:RDF>
      <cc:Work
         rdf:about="">
        <dc:format>image/svg+xml</dc:format>
        <dc:type
           rdf:resource="http://purl.org/dc/dcmitype/StillImage" />
        <dc:title></dc:title>
      </cc:Work>
    </rdf:RDF>
  </metadata>
  <path
     id="path4169"
     transform="matrix(2.6086957,0,0,2.6086957,-93.913045,0)"
     d="m 126.72656,49.839844 c -3.87201,-7.53e-4 -7.01139,3.137751 -7.01172,7.009765 5.5e-4,0.02149 0.001,0.04297 0.002,0.06445 l -4.94141,0 -5.5918,5.464844 -23.134762,0 -1.52539,2.414063 -11.183594,0 0,5.21289 1.652344,1.269532 0,11.185547 19.574218,-3.177735 0,-2.287109 15.251954,-1.90625 0,2.794922 20.8457,0 c -3.11868,3.83371 -5.00548,8.31578 -5.84765,13.347656 l 10.54882,4.447266 1.14454,-2.160157 -1.7793,-0.890625 c -0.0319,-2.853387 -0.38514,-5.528221 1.65234,-9.53125 l 10.29492,0 7.11915,-7.11914 5.71874,0 0,4.449218 26.1836,0 0,-4.957031 30.12305,0 0,-18.048828 -5.97266,0 -1.90625,2.033203 -5.84766,0 -0.76172,-1.271484 -42.32617,0 -1.77929,-1.269532 -9.11524,0 c 0.001,-0.02148 0.003,-0.04296 0.004,-0.06445 -3.3e-4,-3.872014 -3.13971,-7.010518 -7.01172,-7.009765 -3.87125,3.24e-4 -7.00944,3.138512 -7.00977,7.009765 5.5e-4,0.02149 0.001,0.04297 0.002,0.06445 l -0.36524,0 c 0.001,-0.02148 0.003,-0.04296 0.004,-0.06445 -3.3e-4,-3.871253 -3.13852,-7.009441 -7.00977,-7.009765 z m 16.49219,26.603515 6.60547,0 -3.28125,4 -4.94336,0 z"
     style="fill:#c6c6c6;fill-rule:evenodd;stroke:none;stroke-width:1px;stroke-linecap:butt;stroke-linejoin:miter;stroke-opacity:1;fill-opacity:1;opacity:1" />
</svg>
