<?xml version="1.0" encoding="UTF-8" standalone="no"?>
<svg
   xmlns:dc="http://purl.org/dc/elements/1.1/"
   xmlns:cc="http://creativecommons.org/ns#"
   xmlns:rdf="http://www.w3.org/1999/02/22-rdf-syntax-ns#"
   xmlns:svg="http://www.w3.org/2000/svg"
   xmlns="http://www.w3.org/2000/svg"
   width="302"
   height="115"
   viewBox="0 0 600.00001 300"
   id="svg4136"
   version="1.1">
  <defs
     id="defs4138" />
  <metadata
     id="metadata4141">
    <rdf:RDF>
      <cc:Work
         rdf:about="">
        <dc:format>image/svg+xml</dc:format>
        <dc:type
           rdf:resource="http://purl.org/dc/dcmitype/StillImage" />
        <dc:title></dc:title>
      </cc:Work>
    </rdf:RDF>
  </metadata>
  <path
     id="path4487"
     transform="matrix(2.6086957,0,0,2.6086957,-93.913045,0)"
     d="M 125.6875 46.763672 L 111.45703 52.421875 L 111.45703 53.658203 L 107.12695 53.658203 L 107.12695 57.900391 L 89.714844 57.900391 L 89.714844 66.740234 L 91.835938 68.949219 L 91.835938 82.03125 L 101.11719 82.03125 L 106.24219 75.224609 L 111.54688 75.224609 L 111.54688 79.025391 L 123.83203 79.025391 C 119.41477 85.353062 116.6587 92.09646 114.9043 99.089844 L 130.37305 103.24414 L 131.52148 100.41602 L 129.8418 99.708984 C 130.18445 95.089515 131.39063 90.757778 133.73242 86.804688 L 153.44141 86.804688 L 159.36328 79.291016 L 161.13281 79.291016 L 161.13281 75.755859 L 187.4707 75.755859 L 187.4707 70.453125 L 206.38672 71.423828 L 206.38672 66.033203 L 208.86133 61.347656 L 206.38672 53.746094 L 206.38672 48.53125 L 200.81836 48.53125 L 200.81836 49.857422 L 193.57031 49.857422 L 193.57031 51.890625 L 182.78711 51.890625 L 182.78711 49.503906 L 161.30859 48.796875 L 161.30859 46.763672 L 125.6875 46.763672 z M 145.13281 79.46875 L 155.25391 79.46875 L 151.58594 84.064453 L 144.11719 84.064453 L 145.13281 79.46875 z "
     style="fill:#c7c7c7;fill-rule:evenodd;stroke:none;stroke-width:1px;stroke-linecap:butt;stroke-linejoin:miter;stroke-opacity:1;fill-opacity:1;opacity:1" />
</svg>
