<?xml version="1.0" encoding="UTF-8" standalone="no"?>
<svg
   xmlns:dc="http://purl.org/dc/elements/1.1/"
   xmlns:cc="http://creativecommons.org/ns#"
   xmlns:rdf="http://www.w3.org/1999/02/22-rdf-syntax-ns#"
   xmlns:svg="http://www.w3.org/2000/svg"
   xmlns="http://www.w3.org/2000/svg"
   width="302"
   height="115"
   viewBox="0 0 600.00001 300"
   id="svg4136"
   version="1.1">
  <defs
     id="defs4138" />
  <metadata
     id="metadata4141">
    <rdf:RDF>
      <cc:Work
         rdf:about="">
        <dc:format>image/svg+xml</dc:format>
        <dc:type
           rdf:resource="http://purl.org/dc/dcmitype/StillImage" />
        <dc:title></dc:title>
      </cc:Work>
    </rdf:RDF>
  </metadata>
  <path
     id="path4199"
     transform="matrix(2.6086957,0,0,2.6086957,-93.913045,0)"
     d="M 131.29883 50.304688 L 124.5625 53.736328 L 124.5625 57.041016 L 120.75 57.041016 L 110.58008 53.353516 L 106.64062 54.878906 L 88.591797 54.878906 L 86.431641 57.929688 L 76.261719 57.929688 L 76.261719 72.800781 L 78.042969 74.326172 L 78.042969 88.054688 L 83.888672 88.181641 C 90.928006 87.203343 97.864317 84.878091 104.73438 81.699219 L 121.89258 81.699219 C 118.41021 87.009014 116.31194 92.743837 115.0293 98.730469 L 126.97656 102.03516 L 127.99414 99.621094 L 126.08789 98.603516 C 126.45579 94.778581 127.20512 91.116827 128.75586 87.798828 L 141.97656 87.798828 L 147.31445 81.316406 L 160.2793 81.316406 L 160.2793 78.648438 L 162.56641 78.648438 L 162.56641 82.333984 L 170.57422 82.333984 L 175.53125 79.029297 L 184.04688 79.029297 L 184.04688 76.359375 L 186.84375 76.359375 L 186.84375 78.267578 L 193.32617 78.267578 L 195.23242 70.386719 L 193.32617 59.074219 L 172.86133 59.074219 L 172.86133 61.361328 L 170.06641 61.361328 L 170.06641 58.310547 L 160.2793 58.310547 L 160.2793 55.896484 L 155.32227 55.896484 L 145.78906 50.304688 L 141.84766 52.972656 L 135.875 52.972656 L 131.29883 50.304688 z M 136.95508 81.445312 L 144.00977 81.445312 L 140.76758 85.576172 L 135.62109 85.576172 L 136.95508 81.445312 z "
     style="fill:#c7c7c7;fill-rule:evenodd;stroke:none;stroke-width:1px;stroke-linecap:butt;stroke-linejoin:miter;stroke-opacity:1;fill-opacity:1;opacity:1" />
</svg>
