<?xml version="1.0" encoding="UTF-8" standalone="no"?>
<svg
   xmlns:dc="http://purl.org/dc/elements/1.1/"
   xmlns:cc="http://creativecommons.org/ns#"
   xmlns:rdf="http://www.w3.org/1999/02/22-rdf-syntax-ns#"
   xmlns:svg="http://www.w3.org/2000/svg"
   xmlns="http://www.w3.org/2000/svg"
   width="302"
   height="115"
   viewBox="0 0 600.00001 300"
   id="svg4136"
   version="1.1">
  <defs
     id="defs4138" />
  <metadata
     id="metadata4141">
    <rdf:RDF>
      <cc:Work
         rdf:about="">
        <dc:format>image/svg+xml</dc:format>
        <dc:type
           rdf:resource="http://purl.org/dc/dcmitype/StillImage" />
        <dc:title></dc:title>
      </cc:Work>
    </rdf:RDF>
  </metadata>
  <path
     id="path4325"
     transform="matrix(2.6086957,0,0,2.6086957,-93.913045,0)"
     d="m 123.49023,48.671875 0,2.335937 -6.4707,0 0,-2.15625 -6.83203,0 0,10.066407 4.85352,0 0,2.875 -8.44727,0 -1.79883,3.77539 -21.390623,0 0,2.695313 -9.166016,0 0,5.21289 1.960938,2.882813 0,8.833984 35.080081,1.84375 7.68945,2.605469 c -0.031,-3.280535 0.47103,-6.427816 1.39844,-9.46875 l 13.21875,0 0,-5.148437 2.73437,0 0,13.599609 11.69336,0 0,-2.605469 -1.77929,0 0,-11.820312 3.36718,0 1.27149,2.669922 36.98633,0 0,-4.576172 32.3496,0 0,1.652343 10.74024,0 0,-7.435546 -4.19531,0 0,-7.5 -2.47852,0 -1.33398,7.626953 -2.98633,0 0,1.460937 -22.43555,0 -4.06641,-5.464844 -14.10937,0 -0.95313,-1.84375 -19.38281,0 0,-1.332031 -4.59961,0 -1.43945,2.515625 -5.93164,0 0,-3.054687 4.31445,0 3.23633,-8.3125 -15.99805,0 0,-1.933594 z m 2.02539,11.101563 13.21876,0 -1.14454,2.605468 -10.92968,0 z m 0.82618,15.251953 5.52929,0 0,3.558593 -7.5,0 z m -31.839847,2.478515 19.128907,0 -2.79492,6.101563 -18.939456,0 z"
     style="fill:#c7c7c7;fill-rule:evenodd;stroke:none;stroke-width:1px;stroke-linecap:butt;stroke-linejoin:miter;stroke-opacity:1;fill-opacity:1;opacity:1" />
</svg>
