<?xml version="1.0" encoding="UTF-8" standalone="no"?>
<svg
   xmlns:dc="http://purl.org/dc/elements/1.1/"
   xmlns:cc="http://creativecommons.org/ns#"
   xmlns:rdf="http://www.w3.org/1999/02/22-rdf-syntax-ns#"
   xmlns:svg="http://www.w3.org/2000/svg"
   xmlns="http://www.w3.org/2000/svg"
   version="1.1"
   id="svg2"
   viewBox="0 0 300 300"
   height="300"
   width="300">
  <defs
     id="defs4" />
  <metadata
     id="metadata7">
    <rdf:RDF>
      <cc:Work
         rdf:about="">
        <dc:format>image/svg+xml</dc:format>
        <dc:type
           rdf:resource="http://purl.org/dc/dcmitype/StillImage" />
        <dc:title></dc:title>
      </cc:Work>
    </rdf:RDF>
  </metadata>
  <path
     id="path5131"
     d="M 141.35742 2.0527344 C 127.24183 19.718406 110.68223 29.488561 109.98438 90.503906 L 97.839844 75.525391 C 89.278855 95.702798 89.2065 110.89087 93.501953 122.0625 L 52.373047 122.0625 C 53.397606 188.05832 68.354247 238.79726 90.222656 298.78125 L 210.54297 298.78125 C 216.58871 282.19809 222.07733 266.32844 226.91797 250.64062 C 268.76766 240.33868 350.89464 127.37533 248.04688 133.93555 C 248.21058 130.03026 248.32637 126.07508 248.38867 122.0625 L 200.36719 122.0625 C 211.55886 93.161849 182.68796 57.04482 184.06641 48.806641 C 181.58812 57.79246 180.48171 67.728992 171.31445 72.083984 C 163.50113 66.100379 156.67817 58.299768 161.59766 28.972656 C 155.83194 31.720158 152.08198 37.154658 147.83398 41.925781 C 141.52318 34.447009 142.76048 16.402363 141.35742 2.0527344 z M 135.9082 132.75781 L 148.9375 132.75781 L 151.1543 132.75781 L 164.18359 132.75781 L 208.10156 159.38086 L 208.10156 219.91016 L 222.66602 238.56836 L 188.07812 267.92383 L 183.07031 262.46289 L 168.50781 281.57617 L 150.24414 281.57617 L 149.84766 281.57617 L 131.58398 281.57617 L 117.02148 262.46289 L 112.01367 267.92383 L 77.427734 238.56836 L 91.990234 219.91016 L 91.990234 159.38086 L 135.9082 132.75781 z M 254.69922 149.40039 C 301.93251 149.22878 260.12409 215.90271 233.33398 228.36719 C 240.06885 203.1002 244.87116 177.67727 247.07227 149.92383 C 249.83832 149.57763 252.37627 149.40883 254.69922 149.40039 z M 118.83984 216.26953 A 13.880702 13.880702 0 0 0 104.96094 230.14844 A 13.880702 13.880702 0 0 0 118.83984 244.03125 A 13.880702 13.880702 0 0 0 132.72266 230.14844 A 13.880702 13.880702 0 0 0 118.83984 216.26953 z M 181.25195 216.26953 A 13.880702 13.880702 0 0 0 167.36914 230.14844 A 13.880702 13.880702 0 0 0 181.25195 244.03125 A 13.880702 13.880702 0 0 0 195.13086 230.14844 A 13.880702 13.880702 0 0 0 181.25195 216.26953 z M 150.04492 245.33594 L 140.72656 259.98047 L 145.875 262.875 L 148.61133 258.45117 L 149.70703 258.45117 L 150.38477 258.45117 L 151.48047 258.45117 L 154.2168 262.875 L 159.36523 259.98047 L 150.04492 245.33594 z "
     style="opacity:1;fill:#ffffff;fill-opacity:1;fill-rule:evenodd;stroke:none;stroke-width:16;stroke-miterlimit:4;stroke-dasharray:none;stroke-opacity:1" />
</svg>
