<?xml version="1.0" encoding="UTF-8" standalone="no"?>
<svg
   xmlns:dc="http://purl.org/dc/elements/1.1/"
   xmlns:cc="http://creativecommons.org/ns#"
   xmlns:rdf="http://www.w3.org/1999/02/22-rdf-syntax-ns#"
   xmlns:svg="http://www.w3.org/2000/svg"
   xmlns="http://www.w3.org/2000/svg"
   version="1.1"
   id="svg2"
   viewBox="0 0 300 300"
   height="300"
   width="300">
  <defs
     id="defs4" />
  <metadata
     id="metadata7">
    <rdf:RDF>
      <cc:Work
         rdf:about="">
        <dc:format>image/svg+xml</dc:format>
        <dc:type
           rdf:resource="http://purl.org/dc/dcmitype/StillImage" />
        <dc:title></dc:title>
      </cc:Work>
    </rdf:RDF>
  </metadata>
  <path
     style="opacity:1;fill:#afcad1;fill-opacity:1;fill-rule:evenodd;stroke:none;stroke-width:1px;stroke-linecap:butt;stroke-linejoin:miter;stroke-opacity:1"
     d="m 90.093227,133.18264 a 24.439847,24.439847 0 0 0 -24.438623,24.44076 24.439847,24.439847 0 0 0 15.478368,22.71287 c -28.25311,9.82363 -48.104902,37.1344 -51.062777,52.66024 -2.970489,15.59203 10.326456,18.55636 14.077655,13.68631 3.751189,-4.87004 9.21677,-22.20476 17.204125,-28.938 l 0,55.52794 61.785155,0 0,-54.87998 c 9.04927,10.25973 12.82134,21.2374 16.68447,28.47609 2.67934,5.02048 16.4855,5.35644 14.27013,-13.55587 -2.20475,-18.8217 -27.41638,-44.13545 -54.997605,-52.97459 A 24.439847,24.439847 0 0 0 114.534,157.6234 24.439847,24.439847 0 0 0 90.093227,133.18264 Z"
     id="path4614" />
  <circle
     style="opacity:1;fill:#ffffff;fill-opacity:1;stroke:none;stroke-opacity:1"
     id="circle4616"
     cx="89.739548"
     cy="149.83307"
     r="9.8159389" />
  <path
     id="path4648"
     d="M 164.24609 32 C 154.80906 31.958529 145.33993 34.546576 136.18164 39.990234 L 142.41992 48.429688 C 149.5766 44.664265 156.93663 42.860016 164.28516 42.902344 L 164.28516 32.001953 C 164.27213 32.001886 164.25912 32.000057 164.24609 32 z M 169.64258 32.320312 L 169.64258 43.257812 C 177.0536 44.21168 184.39792 47.055219 191.45508 51.689453 L 197.51562 43.123047 C 188.55918 37.048661 179.15078 33.365938 169.64258 32.320312 z M 131.68164 42.916016 C 125.24996 47.459569 119.00454 53.463311 113.06641 61.013672 L 119.88477 67.951172 C 125.55873 60.796782 131.57501 55.229744 137.7832 51.169922 L 131.68164 42.916016 z M 201.84961 46.273438 L 195.81055 54.806641 C 202.65626 60.119864 209.16857 67.192545 215.14648 75.898438 L 223.4668 69.425781 C 216.80236 60.028252 209.52347 52.244735 201.84961 46.273438 z M 109.81836 65.349609 C 105.54994 71.306681 101.45555 78.088926 97.591797 85.757812 L 106.13086 89.830078 C 109.43745 83.261887 112.95455 77.433354 116.62891 72.279297 L 109.81836 65.349609 z M 226.48633 73.865234 L 218.09375 80.392578 C 223.34419 88.784308 228.11754 98.532076 232.25977 109.55859 L 242.45312 105.06055 C 237.80425 93.390167 232.42337 82.947563 226.48633 73.865234 z M 95.251953 90.576172 C 91.735325 98.065529 88.422817 106.31079 85.357422 115.35742 L 95 117.14258 C 97.695936 108.93652 100.64488 101.45053 103.79883 94.652344 L 95.251953 90.576172 z M 244.36914 110.07031 L 234.07812 114.60938 C 237.35882 124.09117 240.17851 134.4674 242.45898 145.67773 L 253.86328 143.02344 C 251.30885 131.22684 248.11421 120.20915 244.36914 110.07031 z M 254.94141 148.27344 L 243.47461 150.94336 C 245.17737 160.20421 246.51762 170.01105 247.44336 180.34766 L 259.375 179.67188 C 258.39204 168.69982 256.89407 158.22034 254.94141 148.27344 z M 259.80664 185.01367 L 247.86133 185.68945 C 248.51782 194.50306 248.89524 203.6663 248.92773 213.21484 L 234.64258 213.21484 L 256.42773 252.5 L 276.42773 213.21484 L 260.71484 213.21484 C 260.78957 203.50006 260.47136 194.09691 259.80664 185.01367 z "
     style="fill:#afcad1;fill-rule:evenodd;stroke:none;stroke-width:1px;stroke-linecap:butt;stroke-linejoin:miter;stroke-opacity:1;fill-opacity:1" />
</svg>
