<?xml version="1.0" encoding="UTF-8" standalone="no"?>
<svg
   xmlns:dc="http://purl.org/dc/elements/1.1/"
   xmlns:cc="http://creativecommons.org/ns#"
   xmlns:rdf="http://www.w3.org/1999/02/22-rdf-syntax-ns#"
   xmlns:svg="http://www.w3.org/2000/svg"
   xmlns="http://www.w3.org/2000/svg"
   width="302"
   height="115"
   viewBox="0 0 600.00001 300"
   id="svg4136"
   version="1.1">
  <defs
     id="defs4138" />
  <metadata
     id="metadata4141">
    <rdf:RDF>
      <cc:Work
         rdf:about="">
        <dc:format>image/svg+xml</dc:format>
        <dc:type
           rdf:resource="http://purl.org/dc/dcmitype/StillImage" />
        <dc:title></dc:title>
      </cc:Work>
    </rdf:RDF>
  </metadata>
  <path
     id="path4145"
     transform="matrix(2.6086957,0,0,2.6086957,-93.913045,0)"
     d="m 128.45117,61.792969 0,1.791015 c 0.72166,0.35187 0.93607,0.921497 1.07422,1.523438 l -7.16601,0 -5.73243,1.433594 0,3.044922 c -4.27005,0.08181 -8.52691,0.499939 -12.63086,4.568359 l -27.140621,0 -2.240235,1.253906 0,13.972656 c 19.965759,1.998528 30.535156,-9.777974 38.826176,-13.113281 l 1.57226,2.722656 14.95899,0 0,-3.761718 7.25586,0 c 43.18805,-3.336675 57.01897,-0.435176 73.36132,-1.88086 l 1.25391,-1.523437 4.03125,0 1.07422,-2.865235 7.16601,0 0,-2.417968 -11.82226,0 -0.98633,-1.613282 -77.66016,0 c -0.44201,-1.664214 -1.49441,-2.371522 -2.50976,-3.134765 z m -9.13672,13.435547 8.73243,0 0,2.777343 -6.94141,0 c -1.26878,-0.880996 -1.34833,-1.841274 -1.79102,-2.777343 z m -5.01757,0.314453 3.00195,0 c -0.003,0.938267 0.58509,1.699211 1.16406,2.46289 l -2.73242,0 z"
     style="fill:#c7c7c7;fill-opacity:1;fill-rule:evenodd;stroke:none;stroke-width:0.19999999;stroke-linecap:butt;stroke-linejoin:miter;stroke-miterlimit:4;stroke-dasharray:none;stroke-opacity:1" />
</svg>
