<?xml version="1.0" encoding="UTF-8" standalone="no"?>
<svg
   xmlns:dc="http://purl.org/dc/elements/1.1/"
   xmlns:cc="http://creativecommons.org/ns#"
   xmlns:rdf="http://www.w3.org/1999/02/22-rdf-syntax-ns#"
   xmlns:svg="http://www.w3.org/2000/svg"
   xmlns="http://www.w3.org/2000/svg"
   version="1.1"
   id="svg2"
   viewBox="0 0 300 300"
   height="300"
   width="300">
  <defs
     id="defs4" />
  <metadata
     id="metadata7">
    <rdf:RDF>
      <cc:Work
         rdf:about="">
        <dc:format>image/svg+xml</dc:format>
        <dc:type
           rdf:resource="http://purl.org/dc/dcmitype/StillImage" />
        <dc:title></dc:title>
      </cc:Work>
    </rdf:RDF>
  </metadata>
  <ellipse
     ry="39.406776"
     rx="31.915421"
     cy="198.30508"
     cx="258.05084"
     id="path4273-5"
     style="opacity:1;fill:#9cb3ba;fill-opacity:1;fill-rule:evenodd;stroke:none;stroke-opacity:1" />
  <path
     id="path4271"
     d="m 240.88983,240.88983 -61.01695,27.33051 -5.08474,-6.35593 -17.79661,5.08474 L 27.330508,127.75424 37.5,120.12712 23.516949,106.14407 l 3.177966,-5.72034 7.627119,-0.635595 0,-29.237288 17.161017,-17.161017 11.440678,-0.635593 12.711864,-6.991525 -6.355932,-8.898305 20.338983,-14.618644 6.991526,10.805084 3.177966,-1.271186 0,-8.262712 13.983054,0 0,-20.9745763 5.08474,0 0,29.8728813 22.88136,17.161017 -2.54237,5.720339 19.70339,17.161017 14.61864,0 27.33051,23.516949 L 225,127.11864 l 1.27119,9.5339 20.97457,24.15254 9.5339,-6.99152 15.88983,22.88136 -0.63559,22.24576 z"
     style="opacity:1;fill:#ffffff;fill-opacity:1;fill-rule:evenodd;stroke:none;stroke-width:1px;stroke-linecap:butt;stroke-linejoin:miter;stroke-opacity:1" />
  <path
     id="path4273"
     d="m 31.093901,124.30069 c -9.416359,8.96268 -8.336288,5.90078 -8.348966,22.8396 0.01048,20.00493 9.298781,33.33026 25.393737,35.62533 1.478055,20.30363 15.253535,35.86384 31.763672,35.87891 4.52878,-0.0125 9.00355,-1.21491 13.126953,-3.52734 -2.533729,5.76581 -3.861635,12.22139 -3.863281,18.78125 2.35e-4,21.7629 14.288364,39.40532 31.914064,39.40625 14.71038,-0.0209 27.5037,-12.45366 30.97656,-30.10352 -2.20391,0.12617 -4.01867,0.0798 -4.59961,-0.40429 l -51.164061,-63.56055 -11.123047,0 0,-8.58008 -31.87294,-37.73959 -14.533172,0.49453 z"
     style="opacity:1;fill:#97aeb9;fill-opacity:1;fill-rule:evenodd;stroke:none;stroke-opacity:1" />
  <path
     id="path4371"
     d="m 68.326271,34.322034 c 1.90678,-0.635594 22.56356,-19.067797 25.105932,-17.478814 2.542373,1.588983 12.711867,9.533898 12.711867,9.533898 l 13.66525,-1.588983 28.2839,20.974577 -2.22458,39.724576 36.86441,41.472462 8.89831,-4.92585 7.15042,9.53389 -9.375,4.76695 7.62712,9.05721 -14.30085,8.10381 -7.94491,-8.26271 -9.53391,5.08475 -7.62711,-8.26272 9.2161,-6.03813 L 121.39831,88.983051 93.114407,85.169491 69.597458,67.055084 73.728814,42.584745 Z"
     style="fill:#97aeb9;fill-rule:evenodd;stroke:none;stroke-width:1px;stroke-linecap:butt;stroke-linejoin:miter;stroke-opacity:1;fill-opacity:1" />
</svg>
