<?xml version="1.0" encoding="UTF-8" standalone="no"?>
<svg
   xmlns:dc="http://purl.org/dc/elements/1.1/"
   xmlns:cc="http://creativecommons.org/ns#"
   xmlns:rdf="http://www.w3.org/1999/02/22-rdf-syntax-ns#"
   xmlns:svg="http://www.w3.org/2000/svg"
   xmlns="http://www.w3.org/2000/svg"
   width="302"
   height="115"
   viewBox="0 0 600.00001 300"
   id="svg4136"
   version="1.1">
  <defs
     id="defs4138" />
  <metadata
     id="metadata4141">
    <rdf:RDF>
      <cc:Work
         rdf:about="">
        <dc:format>image/svg+xml</dc:format>
        <dc:type
           rdf:resource="http://purl.org/dc/dcmitype/StillImage" />
        <dc:title></dc:title>
      </cc:Work>
    </rdf:RDF>
  </metadata>
  <path
     id="path4133"
     d="m 279,118 -11,-15 -19,0 c -12.01157,16.04966 -26.91071,26.85761 -40,28 -13.90252,1.62054 -22.74273,6.61596 -28,14 l 0,13 -14,5 0,6 -122,0 0,6 122,0 0,6 14,6 0,13 c 4.59313,9.40687 15.82011,12.17989 28,14 20.46838,5.00497 30.87948,16.41003 41,28 l 19,0 10,-17 -17.1,0 -44.9,-20 265,0 0,-8 48,0 0,-7 9,0 0,6 6,0 c 8.97641,-15.25263 8.03158,-30.54866 0,-45 l -6,0 0,5 -9,0 0,-6 -48,0 0,-7 -265,0 42,-25 z"
     style="opacity:1;fill:#c8c8c8;fill-opacity:1;fill-rule:evenodd;stroke:none;stroke-width:1px;stroke-linecap:butt;stroke-linejoin:miter;stroke-opacity:1" />
  <path
     id="path4135"
     d="m 202,149 c -18.08881,3.48025 -17.66465,45.37702 0,49 l 191,-1 0,-47 z m 129,6 14,0 0,12 13,0 0,13 -13,0 0,12 -14,0 0,-12 -12,0 0,-13 12,0 z"
     style="fill:#ffffff;fill-opacity:1;fill-rule:evenodd;stroke:none;stroke-width:1px;stroke-linecap:butt;stroke-linejoin:miter;stroke-opacity:1" />
</svg>
