<?xml version="1.0" encoding="UTF-8" standalone="no"?>
<svg
   xmlns:dc="http://purl.org/dc/elements/1.1/"
   xmlns:cc="http://creativecommons.org/ns#"
   xmlns:rdf="http://www.w3.org/1999/02/22-rdf-syntax-ns#"
   xmlns:svg="http://www.w3.org/2000/svg"
   xmlns="http://www.w3.org/2000/svg"
   width="302"
   height="115"
   viewBox="0 0 600.00001 300"
   id="svg4136"
   version="1.1">
  <defs
     id="defs4138" />
  <metadata
     id="metadata4141">
    <rdf:RDF>
      <cc:Work
         rdf:about="">
        <dc:format>image/svg+xml</dc:format>
        <dc:type
           rdf:resource="http://purl.org/dc/dcmitype/StillImage" />
        <dc:title></dc:title>
      </cc:Work>
    </rdf:RDF>
  </metadata>
  <path
     id="path4257"
     transform="matrix(2.6086957,0,0,2.6086957,-93.913045,0)"
     d="M 142.27344 39.234375 L 142.27344 41.210938 L 139.21875 41.210938 L 139.21875 40.132812 L 125.28711 39.953125 L 122.14258 47.501953 L 125.19727 49.300781 L 124.29883 54.154297 L 108.03125 54.154297 L 106.77344 55.591797 L 87.539062 55.591797 L 85.113281 58.017578 L 77.023438 58.017578 L 77.023438 65.208984 L 78.552734 70.511719 L 78.462891 81.476562 C 83.479721 81.581375 88.207176 80.99335 92.033203 78.240234 L 99.402344 105.74219 L 102.45898 105.74219 L 111.98633 99.900391 L 105.96484 75.882812 L 122.5918 75.882812 L 122.5918 79.697266 C 118.86975 83.8103 117.2046 88.510329 115.06055 93.074219 L 124.81641 98.222656 L 126.70703 96.332031 L 124.7207 94.345703 C 124.92218 88.945181 128.56572 84.869425 131.75781 80.619141 L 131.75781 81.746094 L 135.71289 81.746094 L 137.96094 75.994141 L 154.85742 75.994141 L 159.98047 79.318359 L 193.68359 79.318359 L 193.86328 76.802734 L 197.9082 76.802734 L 200.24414 71.230469 L 210.84961 85.070312 L 215.88281 85.070312 L 218.49023 88.755859 L 216.42188 90.462891 L 219.92773 94.148438 L 232.59961 82.105469 L 231.3418 80.308594 L 231.3418 77.521484 L 228.10547 77.521484 L 228.10547 80.757812 L 224.0625 83.542969 L 206.53516 63.679688 L 206.53516 59.90625 L 209.32227 59.90625 L 210.66992 61.164062 L 221.54492 61.164062 L 221.54492 55.681641 L 210.49023 55.681641 L 209.50195 56.939453 L 206.80469 56.939453 L 206.80469 44.357422 L 203.30078 44.357422 L 203.30078 50.199219 L 200.42383 57.298828 L 197.87305 57.298828 L 195.00977 54.435547 L 192.14453 57.298828 L 192.03125 57.298828 L 189.16797 54.435547 L 186.4043 57.199219 L 183.64062 54.435547 L 180.77539 57.298828 L 180.16797 57.298828 L 177.30273 54.435547 L 174.44922 57.289062 L 171.5957 54.435547 L 168.73242 57.298828 L 166.90039 57.298828 L 165.55273 55.501953 L 160.42969 55.501953 L 160.42969 52.804688 L 146.97266 52.1875 L 146.31836 49.75 L 152.07031 49.75 L 152.07031 39.234375 L 142.27344 39.234375 z "
     style="fill:#c7c7c7;fill-rule:evenodd;stroke:none;stroke-width:1px;stroke-linecap:butt;stroke-linejoin:miter;stroke-opacity:1;fill-opacity:1;opacity:1" />
</svg>
