<?xml version="1.0" encoding="UTF-8" standalone="no"?>
<svg
   xmlns:dc="http://purl.org/dc/elements/1.1/"
   xmlns:cc="http://creativecommons.org/ns#"
   xmlns:rdf="http://www.w3.org/1999/02/22-rdf-syntax-ns#"
   xmlns:svg="http://www.w3.org/2000/svg"
   xmlns="http://www.w3.org/2000/svg"
   width="300"
   height="300"
   viewBox="0 0 300 300"
   id="svg2"
   version="1.1">
  <defs
     id="defs4" />
  <metadata
     id="metadata7">
    <rdf:RDF>
      <cc:Work
         rdf:about="">
        <dc:format>image/svg+xml</dc:format>
        <dc:type
           rdf:resource="http://purl.org/dc/dcmitype/StillImage" />
        <dc:title></dc:title>
      </cc:Work>
    </rdf:RDF>
  </metadata>
  <path
     id="path4195"
     d="m 261.92383,49.232422 c -0.33088,-0.01062 -0.66941,-0.0025 -1.01367,0.02539 l -46.3418,21.011719 -3.55078,-3.849609 -24.78906,0 -42.26758,22.5625 -27.01172,0 -6.35547,10.80664 -27.013672,0 c -11.056696,2.191088 -17.013435,9.250308 -18.75,20.337888 l -29.236328,10.80469 0,10.48828 -18.75,6.03711 0,47.66992 21.291016,0 0,17.79688 108.050784,0 c 4.75199,-0.67561 9.05373,-1.9652 9.21679,-8.89844 l -2.22461,-29.23633 0,-23.19922 34.82032,-12.63672 -6.87696,36.55469 -5.39257,-0.90039 -10.78711,60.67383 -5.39258,-1.79687 -3.59571,13.48242 27.41602,7.1914 12.13477,-75.05468 -5.39453,-1.34961 8.32031,-40.46485 32.5664,0 15.45118,41.58008 -5.25391,1.81445 18.65039,73.70703 26.68164,-9.56054 -4.75977,-13.11719 -5.21679,2.26367 -16.04883,-59.49804 -5.29492,1.36718 -17.17578,-47.73828 0,-12.42969 3.17773,-1.90625 0,-14.619136 -12.41406,-13.460938 c 10.13432,-3.777438 22.54788,-8.420318 31.80078,-11.96289 15.21523,-5.825317 11.58734,-24.166726 1.33008,-24.496094 z"
     style="fill:#ffffff;fill-rule:evenodd;stroke:none;stroke-width:1px;stroke-linecap:butt;stroke-linejoin:miter;stroke-opacity:1;fill-opacity:1;opacity:1" />
</svg>
