<?xml version="1.0" encoding="UTF-8" standalone="no"?>
<svg
   xmlns:dc="http://purl.org/dc/elements/1.1/"
   xmlns:cc="http://creativecommons.org/ns#"
   xmlns:rdf="http://www.w3.org/1999/02/22-rdf-syntax-ns#"
   xmlns:svg="http://www.w3.org/2000/svg"
   xmlns="http://www.w3.org/2000/svg"
   xmlns:xlink="http://www.w3.org/1999/xlink"
   version="1.1"
   id="svg2"
   viewBox="0 0 300 300"
   height="300"
   width="300">
  <defs
     id="defs4">
    <linearGradient
       id="linearGradient5165">
      <stop
         id="stop5167"
         offset="0"
         style="stop-color:#a0827f;stop-opacity:1" />
      <stop
         id="stop5169"
         offset="1"
         style="stop-color:#b49490;stop-opacity:0;" />
    </linearGradient>
    <linearGradient
       gradientTransform="translate(-1.1235807,-1.1235807)"
       gradientUnits="userSpaceOnUse"
       y2="9.773819"
       x2="37.851833"
       y1="86.851456"
       x1="91.445091"
       id="linearGradient5171"
       xlink:href="#linearGradient5165" />
  </defs>
  <metadata
     id="metadata7">
    <rdf:RDF>
      <cc:Work
         rdf:about="">
        <dc:format>image/svg+xml</dc:format>
        <dc:type
           rdf:resource="http://purl.org/dc/dcmitype/StillImage" />
        <dc:title></dc:title>
      </cc:Work>
    </rdf:RDF>
  </metadata>
  <path
     id="path5154"
     d="M 300,300 300,191.94915 20.021441,300 Z"
     style="fill:#ba8180;fill-rule:evenodd;stroke:none;stroke-width:1px;stroke-linecap:butt;stroke-linejoin:miter;stroke-opacity:1;fill-opacity:1;opacity:1" />
  <g
     id="g5173">
    <path
       style="opacity:1;fill:url(#linearGradient5171);fill-opacity:1;fill-rule:evenodd;stroke:none;stroke-width:1px;stroke-linecap:butt;stroke-linejoin:miter;stroke-opacity:1"
       d="M 84.717984,89.89041 96.178507,80.901765 41.797201,6.9701555 l -6.9662,4.4943225 z"
       id="path5163" />
    <path
       style="fill:#b49490;fill-rule:evenodd;stroke:none;stroke-width:1px;stroke-linecap:butt;stroke-linejoin:miter;stroke-opacity:1;fill-opacity:1;opacity:1"
       d="m 102.9661,118.53814 68.96187,101.69491 c 16.14295,7.67172 28.28174,9.69655 21.29237,-15.25424 l -71.82203,-94.70339 2.54237,-22.245759 -9.51793,-10.92075 -10.82105,9.331767 -7.309327,-8.262712 -14.300847,10.487288 5.402542,7.627119 -15.572034,3.177966 11.440678,14.936441 z"
       id="path5156" />
    <path
       style="fill:#ffffff;fill-rule:evenodd;stroke:none;stroke-width:1px;stroke-linecap:butt;stroke-linejoin:miter;stroke-opacity:1;fill-opacity:1"
       d="M 154.17773 153.49805 C 145.4266 155.07776 139.28107 159.26273 134.02148 164.33398 L 149.50391 187.16602 C 155.37659 180.69005 162.46026 176.75252 170.75977 175.36133 L 154.17773 153.49805 z "
       id="path5158" />
  </g>
  <use
     height="100%"
     width="100%"
     transform="translate(15.280697,-119.99842)"
     id="use5178"
     xlink:href="#g5173"
     y="0"
     x="0" />
  <use
     height="100%"
     width="100%"
     transform="matrix(1.2070168,0.18798213,-0.18798213,1.2070168,-113.23033,-106.64072)"
     id="use5180"
     xlink:href="#g5173"
     y="0"
     x="0" />
</svg>
