<?xml version="1.0" encoding="UTF-8" standalone="no"?>
<svg
   xmlns:dc="http://purl.org/dc/elements/1.1/"
   xmlns:cc="http://creativecommons.org/ns#"
   xmlns:rdf="http://www.w3.org/1999/02/22-rdf-syntax-ns#"
   xmlns:svg="http://www.w3.org/2000/svg"
   xmlns="http://www.w3.org/2000/svg"
   version="1.1"
   id="svg4136"
   viewBox="0 0 600.00001 300"
   height="115"
   width="302">
  <defs
     id="defs4138" />
  <metadata
     id="metadata4141">
    <rdf:RDF>
      <cc:Work
         rdf:about="">
        <dc:format>image/svg+xml</dc:format>
        <dc:type
           rdf:resource="http://purl.org/dc/dcmitype/StillImage" />
        <dc:title></dc:title>
      </cc:Work>
    </rdf:RDF>
  </metadata>
  <path
     id="path4343"
     transform="matrix(2.6086957,0,0,2.6086957,-93.913045,0)"
     d="M 175.15039 57.421875 L 175.15039 59.074219 L 166.01172 59.074219 L 166.01172 60.748047 L 164.72656 61.488281 L 160.15234 61.488281 L 160.15234 59.582031 L 153.28711 59.582031 L 153.28711 61.488281 L 151.25391 61.488281 L 150.23828 62.505859 L 129.39258 62.505859 C 129.39166 60.303632 128.88481 58.605441 126.97656 58.310547 L 120.87695 58.310547 C 118.39707 58.619027 119.42421 61.032339 119.09766 62.632812 L 115.53711 62.632812 L 115.53711 64.919922 L 81.855469 64.919922 L 81.474609 63.650391 L 74.609375 63.650391 L 80.964844 82.714844 L 86.875 82.714844 L 85.414062 77.376953 C 90.046002 73.494538 96.060277 70.687087 102.19141 67.970703 L 115.53711 67.716797 L 115.53711 69.75 L 114.26758 71.148438 L 114.26758 77.757812 L 115.91992 79.537109 L 123.03711 79.537109 L 126.3418 77.123047 L 128.50195 77.123047 L 128.50195 79.537109 L 123.67188 90.976562 L 133.20508 93.773438 L 134.0957 90.976562 L 132.57031 90.087891 L 135.23828 81.826172 L 151.12695 81.826172 L 153.66992 77.630859 L 156.71875 77.630859 L 156.71875 101.14648 C 157.05946 101.81102 157.58082 102.34605 158.75391 102.41602 L 165.23633 102.41602 C 166.32922 102.35277 166.6138 101.66063 166.63477 100.76367 L 166.63477 77.376953 L 170.32031 80.808594 L 176.92969 80.808594 L 179.72656 77.25 L 179.72656 71.275391 L 178.20117 69.623047 L 178.20117 68.097656 L 186.84375 68.097656 L 188.75 69.369141 L 195.61328 69.369141 L 195.61328 63.013672 L 188.24219 63.013672 L 187.22461 64.919922 L 178.00977 64.919922 L 178.00977 62.314453 L 176.54883 60.853516 L 176.54883 57.421875 L 175.15039 57.421875 z M 95.074219 67.908203 C 90.858971 69.490565 87.359006 71.606434 84.460938 73.626953 L 82.808594 68.035156 L 95.074219 67.908203 z M 142.03906 77.757812 L 146.96484 77.757812 L 144.74023 80.363281 L 141.88086 80.363281 L 142.03906 77.757812 z "
     style="fill:#c7c7c7;fill-rule:evenodd;stroke:none;stroke-width:1px;stroke-linecap:butt;stroke-linejoin:miter;stroke-opacity:1;fill-opacity:1;opacity:1" />
</svg>
