<?xml version="1.0" encoding="UTF-8" standalone="no"?>
<svg
   xmlns:dc="http://purl.org/dc/elements/1.1/"
   xmlns:cc="http://creativecommons.org/ns#"
   xmlns:rdf="http://www.w3.org/1999/02/22-rdf-syntax-ns#"
   xmlns:svg="http://www.w3.org/2000/svg"
   xmlns="http://www.w3.org/2000/svg"
   width="300"
   height="300"
   viewBox="0 0 300 300"
   id="svg2"
   version="1.1">
  <defs
     id="defs4" />
  <metadata
     id="metadata7">
    <rdf:RDF>
      <cc:Work
         rdf:about="">
        <dc:format>image/svg+xml</dc:format>
        <dc:type
           rdf:resource="http://purl.org/dc/dcmitype/StillImage" />
        <dc:title></dc:title>
      </cc:Work>
    </rdf:RDF>
  </metadata>
  <path
     id="path4167"
     d="M 184.32227 28.919922 L 184.32227 57.521484 L 173.67578 57.521484 L 173.67578 64.671875 L 184.32227 64.671875 L 184.32227 102.64844 L 173.19922 102.64844 L 173.19922 85.486328 L 98.199219 92.478516 L 98.199219 103.60156 L 94.068359 112.18164 L 89.300781 112.18164 L 88.982422 122.98633 L 75.953125 122.98633 L 61.970703 140.14844 L 36.865234 143.64453 L 36.865234 195.76367 L 60.335938 194.49609 L 89.212891 182.58594 C 84.408009 202.2743 83.036835 221.7342 82.695312 241.125 L 102.69531 255.05664 L 114.26758 245.84375 L 111.12305 239.88867 C 111.17922 231.14815 110.9559 222.3841 114.49219 213.93359 L 133.81836 213.93359 L 133.81836 201.79883 L 146.17773 201.79883 L 146.17773 206.74219 C 146.62166 209.51583 145.9881 212.70896 151.57031 213.48438 L 173.48047 213.48438 C 178.17921 213.70522 178.62276 210.20205 178.60156 206.29297 L 178.60156 201.80078 L 223.09375 201.80078 C 234.85501 195.12984 244.04754 185.8899 245.97461 169.38477 L 262.5 163.0293 C 282.0705 144.34634 278.85959 119.08797 252.33008 112.21094 L 232.74609 112.21094 L 227.22461 102.64844 L 224.8418 102.64844 L 224.8418 28.919922 L 184.32227 28.919922 z M 190.04297 33.845703 L 216.41992 33.845703 L 216.41992 57.521484 L 190.04297 57.521484 L 190.04297 33.845703 z M 190.04297 64.671875 L 216.41992 64.671875 L 216.41992 95.339844 L 190.04297 95.339844 L 190.04297 64.671875 z M 153.03125 93.486328 L 153.48047 100.22656 L 111.63672 109.91602 L 110.11133 99.328125 L 153.03125 93.486328 z "
     style="fill:#ffffff;fill-rule:evenodd;stroke:none;stroke-width:1px;stroke-linecap:butt;stroke-linejoin:miter;stroke-opacity:1;fill-opacity:1" />
  <circle
     r="20.224451"
     cy="137.97968"
     cx="249.43491"
     id="path4181"
     style="opacity:0.43200001;fill:#c7c7c7;fill-opacity:1;fill-rule:evenodd;stroke:none;stroke-opacity:1" />
</svg>
