<?xml version="1.0" encoding="UTF-8" standalone="no"?>
<svg
   xmlns:dc="http://purl.org/dc/elements/1.1/"
   xmlns:cc="http://creativecommons.org/ns#"
   xmlns:rdf="http://www.w3.org/1999/02/22-rdf-syntax-ns#"
   xmlns:svg="http://www.w3.org/2000/svg"
   xmlns="http://www.w3.org/2000/svg"
   version="1.1"
   id="svg2"
   viewBox="0 0 300 300"
   height="300"
   width="300">
  <defs
     id="defs4" />
  <metadata
     id="metadata7">
    <rdf:RDF>
      <cc:Work
         rdf:about="">
        <dc:format>image/svg+xml</dc:format>
        <dc:type
           rdf:resource="http://purl.org/dc/dcmitype/StillImage" />
        <dc:title></dc:title>
      </cc:Work>
    </rdf:RDF>
  </metadata>
  <path
     id="path5238"
     d="m 300,300 -196.63058,0 C 147.03253,208.34232 135.44102,184.1732 300,160.676 Z"
     style="opacity:1;fill:#b88584;fill-opacity:1;fill-rule:evenodd;stroke:none;stroke-width:1px;stroke-linecap:butt;stroke-linejoin:miter;stroke-opacity:1" />
  <path
     style="opacity:1;fill:#ba9f9c;fill-opacity:1;fill-rule:evenodd;stroke:none;stroke-width:1.04784143;stroke-miterlimit:4;stroke-dasharray:none;stroke-opacity:1"
     d="M -8.7029181,9.1711854 -9.0280864,92.169239 147.16974,210.23481 c -10.45405,10.78966 -14.8292,21.21292 -11.01645,26.24537 5.10454,6.737 23.02163,1.75862 40.02011,-11.11984 16.99945,-12.87928 26.64292,-28.7825 21.53928,-35.52081 -4.6599,-6.11407 -18.48735,-3.48468 -34.41473,7.34596 z"
     id="path5268" />
  <path
     id="path5259"
     d="M -8.9882812 33.486328 L -3.5957031 80.228516 L 153.00781 205.94141 A 8.9627247 22.613642 52.84979 0 0 146.55664 221.31055 A 8.9627247 22.613642 52.84979 0 0 169.99219 214.79883 A 8.9627247 22.613642 52.84979 0 0 182.60547 193.99805 A 8.9627247 22.613642 52.84979 0 0 161.53125 198.82617 L -8.9882812 33.486328 z "
     style="opacity:1;fill:#ffffff;fill-opacity:1;fill-rule:evenodd;stroke:none;stroke-width:0.61360997;stroke-miterlimit:4;stroke-dasharray:none;stroke-opacity:1" />
  <path
     id="path5270"
     d="M 167.63867 86.96875 L 161.79492 96.40625 L 174.83008 140.90039 L 176.62695 90.115234 L 167.63867 86.96875 z M 219.77148 106.74414 L 208.53711 113.48633 L 194.60352 162.02344 L 222.01953 119.32812 L 219.77148 106.74414 z M 51.234375 161.57422 L 36.853516 162.47461 L 40.449219 173.25977 C 40.449219 173.25977 70.560791 179.1033 74.15625 179.55273 L 51.234375 161.57422 z M 265.16602 176.40625 C 265.16602 176.40625 226.51474 191.68707 224.26758 192.58594 L 276.84961 187.19336 L 277.75 178.20312 L 265.16602 176.40625 z M 47.640625 209.66406 L 26.515625 216.40625 L 48.539062 229.88867 L 112.80664 218.65234 L 47.640625 209.66406 z M 248.08594 213.25977 C 248.08594 213.25977 220.22156 219.5523 218.42383 220.45117 L 248.08594 228.0918 L 256.625 220.90039 L 248.08594 213.25977 z M 162.69531 224.94531 L 146.51562 253.70898 L 151.00977 272.13477 L 163.14453 257.75391 L 162.69531 224.94531 z M 92.583984 249.66406 L 29.662109 276.62891 L 30.560547 283.37109 L 37.302734 286.06836 L 92.583984 249.66406 z "
     style="fill:#ffffff;fill-rule:evenodd;stroke:none;stroke-width:1px;stroke-linecap:butt;stroke-linejoin:miter;stroke-opacity:1;fill-opacity:1" />
</svg>
