<?xml version="1.0" encoding="UTF-8" standalone="no"?>
<svg
   xmlns:dc="http://purl.org/dc/elements/1.1/"
   xmlns:cc="http://creativecommons.org/ns#"
   xmlns:rdf="http://www.w3.org/1999/02/22-rdf-syntax-ns#"
   xmlns:svg="http://www.w3.org/2000/svg"
   xmlns="http://www.w3.org/2000/svg"
   version="1.1"
   id="svg4136"
   viewBox="0 0 600.00001 300"
   height="115"
   width="302">
  <defs
     id="defs4138" />
  <metadata
     id="metadata4141">
    <rdf:RDF>
      <cc:Work
         rdf:about="">
        <dc:format>image/svg+xml</dc:format>
        <dc:type
           rdf:resource="http://purl.org/dc/dcmitype/StillImage" />
        <dc:title></dc:title>
      </cc:Work>
    </rdf:RDF>
  </metadata>
  <path
     id="path4961"
     transform="matrix(2.6086957,0,0,2.6086957,-93.913045,0)"
     d="M 223.9043 43.505859 A 26.925431 26.925431 0 0 0 208.46289 51.96875 A 5.6026658 5.6026658 0 0 1 210.02148 55.837891 A 5.6026658 5.6026658 0 0 1 204.41797 61.439453 A 5.6026658 5.6026658 0 0 1 202.97852 61.25 A 26.925431 26.925431 0 0 0 201.47852 70.015625 A 26.925431 26.925431 0 0 0 203.45508 80.09375 A 5.6026658 5.6026658 0 0 1 204.41797 80.003906 A 5.6026658 5.6026658 0 0 1 210.02148 85.607422 A 5.6026658 5.6026658 0 0 1 209.07422 88.716797 A 26.925431 26.925431 0 0 0 223.82031 96.546875 A 5.6026658 5.6026658 0 0 1 229.11133 92.767578 A 5.6026658 5.6026658 0 0 1 234.29688 96.255859 A 26.925431 26.925431 0 0 0 248.28516 88.130859 A 5.6026658 5.6026658 0 0 1 247.50977 85.298828 A 5.6026658 5.6026658 0 0 1 253.11328 79.697266 A 5.6026658 5.6026658 0 0 1 253.51953 79.716797 A 26.925431 26.925431 0 0 0 255.33008 70.015625 A 26.925431 26.925431 0 0 0 253.77148 61.085938 A 5.6026658 5.6026658 0 0 1 253.11328 61.132812 A 5.6026658 5.6026658 0 0 1 247.50977 55.529297 A 5.6026658 5.6026658 0 0 1 248.58984 52.232422 A 26.925431 26.925431 0 0 0 234.20898 43.759766 A 5.6026658 5.6026658 0 0 1 229.11133 47.046875 A 5.6026658 5.6026658 0 0 1 223.9043 43.505859 z M 237.65039 49.074219 A 5.6026658 5.6026658 0 0 1 243.25391 54.675781 A 5.6026658 5.6026658 0 0 1 237.65039 60.279297 A 5.6026658 5.6026658 0 0 1 232.04883 54.675781 A 5.6026658 5.6026658 0 0 1 237.65039 49.074219 z M 219.88086 49.380859 A 5.6026658 5.6026658 0 0 1 225.48438 54.984375 A 5.6026658 5.6026658 0 0 1 219.88086 60.585938 A 5.6026658 5.6026658 0 0 1 214.2793 54.984375 A 5.6026658 5.6026658 0 0 1 219.88086 49.380859 z M 246.80469 64.542969 A 5.6026658 5.6026658 0 0 1 252.4082 70.144531 A 5.6026658 5.6026658 0 0 1 246.80469 75.748047 A 5.6026658 5.6026658 0 0 1 241.20312 70.144531 A 5.6026658 5.6026658 0 0 1 246.80469 64.542969 z M 210.72656 64.849609 A 5.6026658 5.6026658 0 0 1 216.33008 70.453125 A 5.6026658 5.6026658 0 0 1 210.72656 76.054688 A 5.6026658 5.6026658 0 0 1 205.125 70.453125 A 5.6026658 5.6026658 0 0 1 210.72656 64.849609 z M 237.65039 80.228516 A 5.6026658 5.6026658 0 0 1 243.25391 85.832031 A 5.6026658 5.6026658 0 0 1 237.65039 91.433594 A 5.6026658 5.6026658 0 0 1 232.04883 85.832031 A 5.6026658 5.6026658 0 0 1 237.65039 80.228516 z M 219.88086 80.537109 A 5.6026658 5.6026658 0 0 1 225.48438 86.138672 A 5.6026658 5.6026658 0 0 1 219.88086 91.742188 A 5.6026658 5.6026658 0 0 1 214.2793 86.138672 A 5.6026658 5.6026658 0 0 1 219.88086 80.537109 z "
     style="opacity:1;fill:#c7c7c7;fill-opacity:1;fill-rule:nonzero;stroke:none;stroke-width:1;stroke-opacity:1" />
  <path
     id="path5011"
     transform="matrix(2.6086957,0,0,2.6086957,-93.913045,0)"
     d="M 156.54883 37.650391 L 134.46484 41.566406 L 132.28906 45.048828 L 54.503906 45.048828 L 50.369141 41.458984 C 49.024874 40.960793 48.378317 41.594784 48.193359 42.980469 L 50.378906 47.285156 L 49.537109 50.427734 L 47.324219 49.835938 L 40.142578 55.492188 L 30.134766 55.818359 L 28.830078 57.667969 C 32.660219 58.657969 36.469878 59.240481 40.361328 61.474609 L 33.615234 65.609375 L 33.289062 70.613281 C 31.20775 70.038243 29.468149 70.893115 27.742188 71.810547 C 27.835132 73.333185 29.34175 74.598963 31.005859 75.835938 C 27.629496 79.566518 24.740921 88.436143 21.974609 98.572266 L 19.798828 104.55664 L 40.578125 104.55664 L 43.189453 98.681641 C 41.995215 93.650333 43.231329 74.569836 52.763672 84.103516 L 66.6875 84.103516 L 75.390625 78.554688 L 83.224609 78.554688 L 83.115234 80.730469 L 92.689453 80.623047 C 96.058079 73.197512 100.50874 70.78467 105.63477 69.199219 L 155.46094 69.199219 L 160.90039 58.865234 L 160.90039 49.835938 L 158.39844 47.224609 L 158.83203 42.4375 L 156.54883 37.650391 z M 63.105469 72.421875 C 65.734622 72.411856 68.417553 74.108187 69.84375 78.935547 L 66.851562 81.330078 L 57.712891 81.220703 C 53.257595 78.679341 58.086176 72.441001 63.105469 72.421875 z "
     style="fill:#c7c7c7;fill-rule:evenodd;stroke:none;stroke-width:1px;stroke-linecap:butt;stroke-linejoin:miter;stroke-opacity:1;fill-opacity:1;opacity:1" />
</svg>
