<?xml version="1.0" encoding="UTF-8" standalone="no"?>
<svg
   xmlns:dc="http://purl.org/dc/elements/1.1/"
   xmlns:cc="http://creativecommons.org/ns#"
   xmlns:rdf="http://www.w3.org/1999/02/22-rdf-syntax-ns#"
   xmlns:svg="http://www.w3.org/2000/svg"
   xmlns="http://www.w3.org/2000/svg"
   width="302"
   height="115"
   viewBox="0 0 600.00001 300"
   id="svg4136"
   version="1.1">
  <defs
     id="defs4138" />
  <metadata
     id="metadata4141">
    <rdf:RDF>
      <cc:Work
         rdf:about="">
        <dc:format>image/svg+xml</dc:format>
        <dc:type
           rdf:resource="http://purl.org/dc/dcmitype/StillImage" />
        <dc:title></dc:title>
      </cc:Work>
    </rdf:RDF>
  </metadata>
  <path
     id="path4414"
     transform="matrix(2.6086957,0,0,2.6086957,-93.913045,0)"
     d="m 112.86914,47 c -4.23393,0.905851 -9.15583,13.011253 0.38086,14.107422 -1.90599,0.617688 -3.34546,1.502017 -4.06641,2.796875 l 0,9.150391 8.89649,3.6875 c -1.48633,2.029941 -2.89489,4.137658 -3.05078,7.498046 l -26.818362,-12.455078 -8.007813,0 c -0.616446,7.419267 -3.133979,13.752361 -6.101563,19.828125 l 36.988278,2.351563 10.61328,3.685547 1.20704,-2.160157 -1.52539,-0.890625 c -0.12795,-4.185973 0.73436,-7.947549 1.77929,-11.630859 l 12.96485,-0.826172 4.44921,4.322266 25.80079,0 0.38281,-1.714844 31.58398,0 0.89063,1.015625 13.09179,0 c 4.13582,-1.276793 8.26944,-2.560166 12.07422,-4.830078 l 0,-22.878906 -19.38281,0 -6.54687,4.576171 0,1.716797 -2.60547,0 0,-1.779297 -5.14649,0 0,1.779297 -5.21093,0 0,-1.779297 -5.14844,0 0,1.779297 -4.83008,0 0,-1.779297 -5.14844,0 0,1.779297 -3.74804,0 0,-1.716797 c -11.94462,0.203777 -17.99334,-2.629444 -24.53125,-5.210937 -1.83094,1.394735 -1.82918,3.476619 -2.41602,5.337891 l 0,-7.371094 -1.90625,-0.509766 -0.76367,1.908203 -12.07422,-3.304687 0.63672,-2.289063 z m 18.68359,29.931641 4.19532,0 0,3.558593 -6.16602,0 c 0.36496,-1.259246 0.33217,-2.61774 1.9707,-3.558593 z"
     style="fill:#c7c7c7;fill-rule:evenodd;stroke:none;stroke-width:1px;stroke-linecap:butt;stroke-linejoin:miter;stroke-opacity:1;fill-opacity:1;opacity:1" />
</svg>
