<?xml version="1.0" encoding="UTF-8" standalone="no"?>
<svg
   xmlns:dc="http://purl.org/dc/elements/1.1/"
   xmlns:cc="http://creativecommons.org/ns#"
   xmlns:rdf="http://www.w3.org/1999/02/22-rdf-syntax-ns#"
   xmlns:svg="http://www.w3.org/2000/svg"
   xmlns="http://www.w3.org/2000/svg"
   version="1.1"
   id="svg4136"
   viewBox="0 0 600.00001 300"
   height="115"
   width="302">
  <defs
     id="defs4138" />
  <metadata
     id="metadata4141">
    <rdf:RDF>
      <cc:Work
         rdf:about="">
        <dc:format>image/svg+xml</dc:format>
        <dc:type
           rdf:resource="http://purl.org/dc/dcmitype/StillImage" />
        <dc:title></dc:title>
      </cc:Work>
    </rdf:RDF>
  </metadata>
  <path
     id="path5062"
     transform="matrix(2.6086957,0,0,2.6086957,-93.913045,0)"
     d="M 22.308594 33.765625 L 22.154297 35.919922 C 17.734754 37.345606 15.414065 41.13163 17.539062 49.919922 L 17.693359 52.998047 L 24.810547 53.990234 L 18 57.921875 L 18 72.537109 L 26 72.537109 L 32.308594 77.613281 L 22.308594 102.53711 L 41.078125 107.61523 L 41.232422 103.46094 L 39.232422 102.53711 L 42.771484 85.921875 L 70.617188 85.921875 L 70.617188 90.845703 L 91.388672 90.845703 L 111.23438 86.537109 C 112.68716 85.618811 112.17249 84.139081 112.3125 82.845703 L 112.3125 50.535156 L 80.464844 50.535156 L 79.541016 52.84375 L 73.080078 49.152344 L 71.541016 53.458984 L 70.001953 53.613281 L 69.080078 46.535156 L 65.232422 45.458984 L 65.080078 47.919922 L 45.232422 41.919922 L 45.541016 40.074219 L 22.308594 33.765625 z M 217.60547 42.375 C 211.99441 42.40319 205.80215 43.735251 199.19336 47.005859 C 202.90188 48.957624 207.68175 50.196257 208.98438 53.751953 C 186.49535 56.090695 153.61643 64.562054 148.39453 67.59375 C 154.92191 70.571051 186.49535 79.096805 208.98438 81.435547 C 207.68175 84.991243 202.90188 86.227923 199.19336 88.179688 C 225.62853 101.26212 245.40674 83.346401 247.93164 74.908203 C 254.56549 71.224038 252.73162 62.472455 247.93164 60.279297 C 246.03797 53.950649 234.43864 42.290424 217.60547 42.375 z M 223.12695 48.09375 C 229.17107 48.453961 232.8782 50.941594 235.74805 54.1875 C 233.01809 53.344592 230.39178 52.755666 228.24023 53.316406 C 227.13547 50.776294 225.06678 49.520444 223.12695 48.09375 z M 54.925781 78.152344 L 65.464844 78.152344 L 65.464844 82.921875 L 54.925781 82.921875 L 54.925781 78.152344 z M 235.74805 81.460938 C 232.8782 84.706841 229.17107 87.192524 223.12695 87.552734 C 225.06678 86.126041 227.13547 84.872144 228.24023 82.332031 C 230.39178 82.892771 233.01809 82.303843 235.74805 81.460938 z "
     style="fill:#dcdcdc;fill-rule:evenodd;stroke:none;stroke-width:1px;stroke-linecap:butt;stroke-linejoin:miter;stroke-opacity:1;fill-opacity:1;opacity:1" />
</svg>
