<?xml version="1.0" encoding="UTF-8" standalone="no"?>
<svg
   xmlns:dc="http://purl.org/dc/elements/1.1/"
   xmlns:cc="http://creativecommons.org/ns#"
   xmlns:rdf="http://www.w3.org/1999/02/22-rdf-syntax-ns#"
   xmlns:svg="http://www.w3.org/2000/svg"
   xmlns="http://www.w3.org/2000/svg"
   version="1.1"
   id="svg2"
   viewBox="0 0 300 300"
   height="300"
   width="300">
  <defs
     id="defs4" />
  <metadata
     id="metadata7">
    <rdf:RDF>
      <cc:Work
         rdf:about="">
        <dc:format>image/svg+xml</dc:format>
        <dc:type
           rdf:resource="http://purl.org/dc/dcmitype/StillImage" />
        <dc:title></dc:title>
      </cc:Work>
    </rdf:RDF>
  </metadata>
  <path
     id="path5238"
     d="m 300,300 -196.63058,0 C 147.03253,208.34232 135.44102,184.1732 300,160.676 Z"
     style="opacity:1;fill:#b88584;fill-opacity:1;fill-rule:evenodd;stroke:none;stroke-width:1px;stroke-linecap:butt;stroke-linejoin:miter;stroke-opacity:1" />
  <path
     id="rect5321"
     d="M -18.800781 20.306641 L -27.722656 30.765625 L 13.396484 65.841797 L 22.318359 55.382812 L -18.800781 20.306641 z M 36.607422 67.572266 L 27.685547 78.03125 L 81.511719 123.94727 L 90.433594 113.48828 L 36.607422 67.572266 z M 104.46484 125.45703 L 95.542969 135.91602 L 133.26953 168.09961 L 142.19141 157.64062 L 104.46484 125.45703 z M 152.65039 166.5625 L 143.72852 177.02148 L 186.59766 213.5918 L 195.51953 203.13281 L 152.65039 166.5625 z "
     style="opacity:1;fill:#ffffff;fill-opacity:1;fill-rule:evenodd;stroke:none;stroke-width:1;stroke-miterlimit:4;stroke-dasharray:none;stroke-opacity:1" />
  <path
     style="opacity:1;fill:#ffffff;fill-opacity:1;fill-rule:evenodd;stroke:none;stroke-width:16;stroke-miterlimit:4;stroke-dasharray:none;stroke-opacity:1"
     d="m 147.8166,162.96491 -11.3722,10.30004 4.22425,3.03353 a 46.405416,77.563338 64.354666 0 0 -26.65737,59.81843 l -16.893802,12.81899 6.881682,11.03715 18.04768,-13.32714 a 46.405416,77.563338 64.354666 0 0 82.31456,-1.39963 46.405416,77.563338 64.354666 0 0 7.68493,-4.04097 l 21.04683,18.19974 21.2082,-20.56972 -19.80084,-13.97803 a 46.405416,77.563338 64.354666 0 0 19.69953,-55.01485 46.405416,77.563338 64.354666 0 0 -15.51588,-14.67638 l 15.25928,-12.10481 -14.14309,-4.26073 -14.67248,12.05496 a 46.405416,77.563338 64.354666 0 0 -53.85425,7.58011 46.405416,77.563338 64.354666 0 0 -7.0803,3.14212 46.405416,77.563338 64.354666 0 0 -10.35173,5.63024 l -6.025,-4.24305 z m 25.28578,2.36154 a 36.934648,61.733624 64.354666 0 1 41.89601,-6.14941 l -6.30453,5.17978 10.62562,6.17009 8.89664,-7.05682 a 36.934648,61.733624 64.354666 0 1 10.8887,10.93445 36.934648,61.733624 64.354666 0 1 -14.99363,43.12033 l -12.67711,-8.94924 -18.85833,15.79395 9.86349,8.52916 a 36.934648,61.733624 64.354666 0 1 -3.00141,1.52024 36.934648,61.733624 64.354666 0 1 -63.9748,2.31877 l 8.89169,-6.56501 -7.86699,-11.11239 -9.33229,7.08178 a 36.934648,61.733624 64.354666 0 1 19.91826,-45.24361 l 4.21034,3.02453 11.50639,-10.41337 -2.55576,-1.79946 a 36.934648,61.733624 64.354666 0 1 7.23173,-3.88276 36.934648,61.733624 64.354666 0 1 5.63598,-2.50101 z"
     id="path4833" />
</svg>
