<?xml version="1.0" encoding="UTF-8" standalone="no"?>
<svg
   xmlns:dc="http://purl.org/dc/elements/1.1/"
   xmlns:cc="http://creativecommons.org/ns#"
   xmlns:rdf="http://www.w3.org/1999/02/22-rdf-syntax-ns#"
   xmlns:svg="http://www.w3.org/2000/svg"
   xmlns="http://www.w3.org/2000/svg"
   width="300"
   height="300"
   viewBox="0 0 300 300"
   id="svg2"
   version="1.1">
  <defs
     id="defs4" />
  <metadata
     id="metadata7">
    <rdf:RDF>
      <cc:Work
         rdf:about="">
        <dc:format>image/svg+xml</dc:format>
        <dc:type
           rdf:resource="http://purl.org/dc/dcmitype/StillImage" />
        <dc:title></dc:title>
      </cc:Work>
    </rdf:RDF>
  </metadata>
  <path
     id="path4285"
     d="M 153.15234 38.429688 L 145.41211 67.316406 A 75 76.112289 0 0 0 123.95312 76.345703 L 97.912109 61.310547 L 83.195312 76.027344 L 98.542969 102.60938 A 75 76.112289 0 0 0 90.400391 122.85156 L 60.478516 130.86914 L 60.478516 151.68164 L 90.416016 159.70312 A 75 76.112289 0 0 0 98.509766 179.71484 L 83.126953 206.35938 L 97.84375 221.07617 L 123.94531 206.00586 A 75 76.112289 0 0 0 144.95898 214.95508 L 152.68555 243.79297 L 173.49805 243.79297 L 181.21875 214.97656 A 75 76.112289 0 0 0 202.61523 205.82617 L 228.74023 220.91016 L 242.79688 206.85547 L 227.40039 180.18945 A 75 76.112289 0 0 0 235.86133 159.24805 L 265.8418 151.21484 L 265.8418 131.33594 L 235.9082 123.31445 A 75 76.112289 0 0 0 227.36719 102.13477 L 242.72656 75.53125 L 228.66992 61.474609 L 202.5293 76.566406 A 75 76.112289 0 0 0 180.77344 67.322266 L 173.03125 38.429688 L 153.15234 38.429688 z M 163.09375 86.306641 A 54.087364 54.889503 0 0 1 217.17969 141.19727 A 54.087364 54.889503 0 0 1 163.09375 196.08594 A 54.087364 54.889503 0 0 1 109.00586 141.19727 A 54.087364 54.889503 0 0 1 163.09375 86.306641 z "
     style="fill:#8ba4ab;fill-rule:evenodd;stroke:none;stroke-width:1px;stroke-linecap:butt;stroke-linejoin:miter;stroke-opacity:1;fill-opacity:1;opacity:1" />
  <path
     id="path4308"
     d="m 80.312782,103.20312 c -16.754988,0.24112 -32.38154,10.50432 -35.298878,26.45704 -6.012692,32.87888 11.429133,64.22642 78.341256,114.78906 l 0.16682,0.2539 0.16681,-0.2539 c 66.91217,-50.56267 84.35395,-81.91017 78.34126,-114.78906 -5.99754,-32.795972 -65.70184,-41.542162 -78.50896,11.41015 -6.57758,-27.19472 -25.518095,-38.12176 -43.208308,-37.86719 z"
     style="opacity:1;fill:#ffffff;fill-opacity:1;fill-rule:evenodd;stroke:none;stroke-width:1px;stroke-linecap:butt;stroke-linejoin:miter;stroke-opacity:1" />
</svg>
