<?xml version="1.0" encoding="UTF-8" standalone="no"?>
<svg
   xmlns:dc="http://purl.org/dc/elements/1.1/"
   xmlns:cc="http://creativecommons.org/ns#"
   xmlns:rdf="http://www.w3.org/1999/02/22-rdf-syntax-ns#"
   xmlns:svg="http://www.w3.org/2000/svg"
   xmlns="http://www.w3.org/2000/svg"
   width="300"
   height="300"
   viewBox="0 0 300 300"
   id="svg2"
   version="1.1">
  <defs
     id="defs4" />
  <metadata
     id="metadata7">
    <rdf:RDF>
      <cc:Work
         rdf:about="">
        <dc:format>image/svg+xml</dc:format>
        <dc:type
           rdf:resource="http://purl.org/dc/dcmitype/StillImage" />
        <dc:title></dc:title>
      </cc:Work>
    </rdf:RDF>
  </metadata>
  <path
     style="fill:#ffffff;fill-opacity:1;fill-rule:evenodd;stroke:none;stroke-width:1px;stroke-linecap:butt;stroke-linejoin:miter;stroke-opacity:1"
     d="M 130.13086 65.283203 L 47.097656 66.271484 L 47.097656 83.076172 L 36.222656 83.076172 L 36.222656 103.83398 L 48.085938 103.83398 L 48.085938 111.74219 L 66.867188 111.74219 L 66.867188 154.24805 L 61.923828 154.24805 L 61.923828 193.78711 L 72.796875 193.78711 L 72.796875 217.51172 L 39.189453 217.51172 L 39.189453 229.37305 L 196.35938 229.37305 L 196.35938 217.51172 L 155.83203 217.51172 L 155.83203 194.77539 L 174.61328 194.77539 L 174.61328 172.04102 L 191.41797 172.04102 L 191.41797 146.33984 L 174.61328 146.33984 L 174.61328 136.45508 L 148.91211 136.45508 L 148.91211 125.58203 L 158.79883 125.58203 L 158.79883 104.87305 L 228.81445 104.87305 L 228.81445 98.517578 L 276.80078 98.517578 L 276.80078 77.859375 L 158.79883 77.859375 L 158.79883 76.15625 L 130.13086 76.15625 L 130.13086 65.283203 z "
     id="path4147" />
</svg>
