<?xml version="1.0" encoding="UTF-8" standalone="no"?>
<svg
   xmlns:dc="http://purl.org/dc/elements/1.1/"
   xmlns:cc="http://creativecommons.org/ns#"
   xmlns:rdf="http://www.w3.org/1999/02/22-rdf-syntax-ns#"
   xmlns:svg="http://www.w3.org/2000/svg"
   xmlns="http://www.w3.org/2000/svg"
   version="1.1"
   id="svg4136"
   viewBox="0 0 600.00001 300"
   height="115"
   width="302">
  <defs
     id="defs4138" />
  <metadata
     id="metadata4141">
    <rdf:RDF>
      <cc:Work
         rdf:about="">
        <dc:format>image/svg+xml</dc:format>
        <dc:type
           rdf:resource="http://purl.org/dc/dcmitype/StillImage" />
        <dc:title></dc:title>
      </cc:Work>
    </rdf:RDF>
  </metadata>
  <path
     id="path4230"
     transform="matrix(2.6086957,0,0,2.6086957,-93.913045,0)"
     d="M 154.93945 53.609375 L 153.16016 57.421875 L 133.58594 57.421875 L 133.58594 55.769531 L 115.2832 55.769531 L 108.80078 59.962891 L 108.80078 62.314453 L 98.060547 62.314453 C 97.737083 60.996963 96.985586 60.967836 96.345703 60.599609 L 75.5 60.599609 L 75.5 81.189453 L 83.761719 81.189453 L 104.60742 76.742188 L 114.14062 76.742188 L 114.14062 80.046875 C 110.15534 84.926045 108.57059 90.005055 106.51367 95.044922 L 116.80859 98.730469 L 117.95312 96.316406 L 116.68164 95.552734 C 117.33198 91.665696 118.32914 87.702144 120.49414 83.478516 L 131.17188 83.478516 L 133.33203 75.724609 L 134.98438 75.724609 L 134.98438 99.748047 L 146.29688 99.748047 L 146.29688 76.359375 L 148.58594 76.359375 L 148.58594 80.300781 L 158.5 80.300781 L 164.0918 82.460938 L 178.32812 82.460938 L 178.32812 77.123047 L 188.49609 77.123047 L 188.49609 74.199219 L 193.45312 74.199219 L 193.45312 66.955078 L 188.49609 66.955078 L 188.49609 65.429688 L 195.35938 65.429688 L 195.35938 57.675781 L 188.49609 57.675781 L 188.49609 56.404297 L 180.99609 56.404297 L 180.99609 53.609375 L 154.93945 53.609375 z M 125.19727 76.105469 L 130.1543 76.105469 L 129.26562 81.445312 L 122.5293 81.445312 C 123.0752 79.780458 123.65553 78.102267 125.19727 76.105469 z "
     style="fill:#c7c7c7;fill-rule:evenodd;stroke:none;stroke-width:2.60869575px;stroke-linecap:butt;stroke-linejoin:miter;stroke-opacity:1;fill-opacity:1;opacity:1" />
</svg>
