<?xml version="1.0" encoding="UTF-8" standalone="no"?>
<svg
   xmlns:dc="http://purl.org/dc/elements/1.1/"
   xmlns:cc="http://creativecommons.org/ns#"
   xmlns:rdf="http://www.w3.org/1999/02/22-rdf-syntax-ns#"
   xmlns:svg="http://www.w3.org/2000/svg"
   xmlns="http://www.w3.org/2000/svg"
   width="300"
   height="300"
   viewBox="0 0 300 300"
   id="svg2"
   version="1.1">
  <defs
     id="defs4" />
  <metadata
     id="metadata7">
    <rdf:RDF>
      <cc:Work
         rdf:about="">
        <dc:format>image/svg+xml</dc:format>
        <dc:type
           rdf:resource="http://purl.org/dc/dcmitype/StillImage" />
        <dc:title></dc:title>
      </cc:Work>
    </rdf:RDF>
  </metadata>
  <path
     id="path4260"
     d="m 36.404014,258.2028 c 6.168983,-286.125399 217.146006,-285.622692 224.716136,0 z"
     style="fill:#ffffff;fill-rule:evenodd;stroke:none;stroke-width:1px;stroke-linecap:butt;stroke-linejoin:miter;stroke-opacity:1;fill-opacity:1" />
  <path
     style="fill:#7b99a1;fill-rule:evenodd;stroke:none;stroke-width:0.92623299px;stroke-linecap:butt;stroke-linejoin:miter;stroke-opacity:1;fill-opacity:1;opacity:1"
     d="m 52.955141,258.23968 c 5.264483,-268.614232 187.780329,-264.5531495 194.792029,0 z"
     id="path4264" />
  <g
     style="opacity:1"
     transform="translate(60.619568,-16.128182)"
     id="g4214">
    <path
       style="opacity:1;fill:#bbd4db;fill-opacity:1;fill-rule:evenodd;stroke:none;stroke-width:1px;stroke-linecap:butt;stroke-linejoin:miter;stroke-opacity:1"
       d="m 90.093227,133.18264 a 24.439847,24.439847 0 0 0 -24.438623,24.44076 24.439847,24.439847 0 0 0 15.478368,22.71287 c -28.25311,9.82363 -48.104902,37.1344 -51.062777,52.66024 -2.970489,15.59203 10.326456,18.55636 14.077655,13.68631 3.751189,-4.87004 9.21677,-22.20476 17.204125,-28.938 l 0,55.52794 61.785155,0 0,-54.87998 c 9.04927,10.25973 12.82134,21.2374 16.68447,28.47609 2.67934,5.02048 16.4855,5.35644 14.27013,-13.55587 -2.20475,-18.8217 -27.41638,-44.13545 -54.997605,-52.97459 A 24.439847,24.439847 0 0 0 114.534,157.6234 24.439847,24.439847 0 0 0 90.093227,133.18264 Z"
       id="path4614" />
    <circle
       style="opacity:1;fill:#dff2f8;fill-opacity:1;stroke:none;stroke-opacity:1"
       id="circle4616"
       cx="89.739548"
       cy="149.83307"
       r="9.8159389" />
  </g>
</svg>
