<?xml version="1.0" encoding="UTF-8" standalone="no"?>
<svg
   xmlns:dc="http://purl.org/dc/elements/1.1/"
   xmlns:cc="http://creativecommons.org/ns#"
   xmlns:rdf="http://www.w3.org/1999/02/22-rdf-syntax-ns#"
   xmlns:svg="http://www.w3.org/2000/svg"
   xmlns="http://www.w3.org/2000/svg"
   width="300"
   height="300"
   viewBox="0 0 300 300"
   id="svg2"
   version="1.1">
  <defs
     id="defs4" />
  <metadata
     id="metadata7">
    <rdf:RDF>
      <cc:Work
         rdf:about="">
        <dc:format>image/svg+xml</dc:format>
        <dc:type
           rdf:resource="http://purl.org/dc/dcmitype/StillImage" />
        <dc:title></dc:title>
      </cc:Work>
    </rdf:RDF>
  </metadata>
  <g
     transform="translate(24.215554,-16.128182)"
     id="g4214">
    <path
       style="opacity:1;fill:#afcad1;fill-opacity:1;fill-rule:evenodd;stroke:none;stroke-width:1px;stroke-linecap:butt;stroke-linejoin:miter;stroke-opacity:1"
       d="m 90.093227,133.18264 a 24.439847,24.439847 0 0 0 -24.438623,24.44076 24.439847,24.439847 0 0 0 15.478368,22.71287 c -28.25311,9.82363 -48.104902,37.1344 -51.062777,52.66024 -2.970489,15.59203 10.326456,18.55636 14.077655,13.68631 3.751189,-4.87004 9.21677,-22.20476 17.204125,-28.938 l 0,55.52794 61.785155,0 0,-54.87998 c 9.04927,10.25973 12.82134,21.2374 16.68447,28.47609 2.67934,5.02048 16.4855,5.35644 14.27013,-13.55587 -2.20475,-18.8217 -27.41638,-44.13545 -54.997605,-52.97459 A 24.439847,24.439847 0 0 0 114.534,157.6234 24.439847,24.439847 0 0 0 90.093227,133.18264 Z"
       id="path4614" />
    <circle
       style="opacity:1;fill:#ffffff;fill-opacity:1;stroke:none;stroke-opacity:1"
       id="circle4616"
       cx="89.739548"
       cy="149.83307"
       r="9.8159389" />
  </g>
  <path
     id="path4219"
     d="m 229.21046,255.5062 -36.85345,0 0,-164.941641 15.2807,0 c 13.995,47.557901 20.75823,103.005021 21.57275,164.941641 z"
     style="fill:#7999a2;fill-rule:evenodd;stroke:none;stroke-width:1px;stroke-linecap:butt;stroke-linejoin:miter;stroke-opacity:1;fill-opacity:1;opacity:1" />
  <path
     id="path4231"
     d="M 194.37891 90.564453 C 208.37391 138.12235 215.1386 193.56924 215.95312 255.50586 L 229.21094 255.50586 C 228.39642 193.56924 221.63367 138.12235 207.63867 90.564453 L 194.37891 90.564453 z "
     style="fill:#ffffff;fill-rule:evenodd;stroke:none;stroke-width:1px;stroke-linecap:butt;stroke-linejoin:miter;stroke-opacity:1;fill-opacity:1" />
</svg>
