<?xml version="1.0" encoding="UTF-8" standalone="no"?>
<svg
   xmlns:dc="http://purl.org/dc/elements/1.1/"
   xmlns:cc="http://creativecommons.org/ns#"
   xmlns:rdf="http://www.w3.org/1999/02/22-rdf-syntax-ns#"
   xmlns:svg="http://www.w3.org/2000/svg"
   xmlns="http://www.w3.org/2000/svg"
   xmlns:xlink="http://www.w3.org/1999/xlink"
   version="1.1"
   id="svg2"
   viewBox="0 0 300 300"
   height="300"
   width="300">
  <defs
     id="defs4" />
  <metadata
     id="metadata7">
    <rdf:RDF>
      <cc:Work
         rdf:about="">
        <dc:format>image/svg+xml</dc:format>
        <dc:type
           rdf:resource="http://purl.org/dc/dcmitype/StillImage" />
        <dc:title></dc:title>
      </cc:Work>
    </rdf:RDF>
  </metadata>
  <path
     id="path5238"
     d="M 300,300 0,300 C 85.39339,220.91857 181.16249,154.80678 300,117.5305 Z"
     style="fill:#b88584;fill-rule:evenodd;stroke:none;stroke-width:1px;stroke-linecap:butt;stroke-linejoin:miter;stroke-opacity:1;fill-opacity:1;opacity:1" />
  <path
     style="opacity:1;fill:#ddb9b8;fill-opacity:1;fill-rule:evenodd;stroke:none;stroke-width:16;stroke-miterlimit:4;stroke-dasharray:none;stroke-opacity:1"
     d="m 140.41404,170.29118 -14.84736,10.39824 4.5047,4.17806 a 54.822843,91.632465 71.517296 0 0 -40.058379,66.19064 l -21.690675,12.53753 6.440695,13.95109 23.118062,-12.96319 a 54.822843,91.632465 71.517296 0 0 96.692777,10.48457 54.822843,91.632465 71.517296 0 0 9.6033,-3.60471 l 21.98959,24.43346 27.88958,-20.98718 -21.15096,-19.30133 a 54.822843,91.632465 71.517296 0 0 31.19504,-61.58494 54.822843,91.632465 71.517296 0 0 -16.02537,-19.48874 l 19.66953,-11.94116 -15.95048,-7.07761 -18.97435,11.96916 a 54.822843,91.632465 71.517296 0 0 -64.2429,0.95229 54.822843,91.632465 71.517296 0 0 -8.76215,2.64015 54.822843,91.632465 71.517296 0 0 -12.96333,5.07475 l -6.43732,-5.86108 z m 29.29136,6.4928 a 43.634183,72.931418 71.517296 0 1 50.01507,-1.03674 l -8.15299,5.14289 11.54616,8.79758 11.46787,-6.9613 a 43.634183,72.931418 71.517296 0 1 11.15272,14.42097 43.634183,72.931418 71.517296 0 1 -23.92682,48.33574 l -13.54148,-12.35739 -24.43164,15.73529 10.3053,11.45054 a 43.634183,72.931418 71.517296 0 1 -3.74209,1.33987 43.634183,72.931418 71.517296 0 1 -75.33086,-6.70568 l 11.38959,-6.38553 -7.58455,-14.18443 -11.98218,6.92636 a 43.634183,72.931418 71.517296 0 1 30.01208,-50.09916 l 4.4897,4.16545 15.02137,-10.5113 -2.73072,-2.48575 a 43.634183,72.931418 71.517296 0 1 9.04875,-3.486 43.634183,72.931418 71.517296 0 1 6.97473,-2.10141 z"
     id="path4833" />
  <path
     id="path5205"
     d="m 179.43049,156.51548 -13.29724,7.67716 -31.52088,-12.02242 10.92631,-5.50241 -26.79155,-19.1853 24.80962,1.79402 -48.674395,-102.452534 63.738145,92.949584 10.37446,-22.510506 3.74261,33.701446 11.61172,-7.10697 z"
     style="fill:#ffffff;fill-opacity:1;fill-rule:evenodd;stroke:none;stroke-width:1px;stroke-linecap:butt;stroke-linejoin:miter;stroke-opacity:1" />
  <use
     height="100%"
     width="100%"
     transform="matrix(0.96592583,-0.25881905,0.25881905,0.96592583,-93.668971,41.636762)"
     id="use5234"
     xlink:href="#path5205"
     y="0"
     x="0" />
  <use
     height="100%"
     width="100%"
     transform="matrix(0.70710678,-0.70710678,0.70710678,0.70710678,-176.303,165.34821)"
     id="use5236"
     xlink:href="#path5205"
     y="0"
     x="0" />
</svg>
