<?xml version="1.0" encoding="UTF-8" standalone="no"?>
<svg
   xmlns:dc="http://purl.org/dc/elements/1.1/"
   xmlns:cc="http://creativecommons.org/ns#"
   xmlns:rdf="http://www.w3.org/1999/02/22-rdf-syntax-ns#"
   xmlns:svg="http://www.w3.org/2000/svg"
   xmlns="http://www.w3.org/2000/svg"
   width="302"
   height="115"
   viewBox="0 0 600.00001 300"
   id="svg4136"
   version="1.1">
  <defs
     id="defs4138" />
  <metadata
     id="metadata4141">
    <rdf:RDF>
      <cc:Work
         rdf:about="">
        <dc:format>image/svg+xml</dc:format>
        <dc:type
           rdf:resource="http://purl.org/dc/dcmitype/StillImage" />
        <dc:title></dc:title>
      </cc:Work>
    </rdf:RDF>
  </metadata>
  <path
     id="path4293"
     d="m 163.39043,216.44348 -16.24726,-51.72674 17.90514,0 0.66315,3.64734 42.11023,0 0,-9.28321 8.95258,0 c 0.27508,-5.98027 2.04698,-7.72399 4.97366,-7.95913 l 15.91567,0 c 4.05889,1.14679 4.49247,4.64051 4.64207,7.95913 l 60.67853,-9.4e-4 3.64734,-3.97892 21.22091,0.66316 1.32631,3.3167 5.96836,0 2.32103,-3.3167 20.88934,0 2.65263,-11.60519 3.64732,0 0,11.93676 6.96313,3.64734 54.71014,0 0,4.97366 38.79446,0 0,17.24198 -38.1313,0 0,3.97892 -59.6838,0 0,19.8946 -10.94205,0 -4.31047,-4.3105 -16.24727,0 c -6.66232,25.95757 1.64904,38.54578 12.26833,49.07335 l -13.59462,12.93149 C 316.44414,244.74053 307.51298,224.71239 316.91041,202.1849 l -7.95783,0 -6.63154,10.61045 -40.78393,0 c -5.22302,7.17 -7.44735,15.83935 -8.95257,24.86825 l 3.97893,1.98946 -3.31578,6.63153 c -7.82606,-1.87051 -15.4612,-0.68641 -23.8735,-11.93676 3.38713,-9.29762 6.59439,-18.63729 14.58936,-26.85771 l 0,-5.96838 -13.26305,0 -5.30523,6.63153 -16.24727,0 -3.64734,-4.64207 0,-8.62099 -28.51558,15.5841 0,5.96917 z"
     style="fill:#c7c7c7;fill-rule:evenodd;stroke:none;stroke-width:2.60869575px;stroke-linecap:butt;stroke-linejoin:miter;stroke-opacity:1;fill-opacity:1;opacity:1" />
</svg>
