<?xml version="1.0" encoding="UTF-8" standalone="no"?>
<svg
   xmlns:dc="http://purl.org/dc/elements/1.1/"
   xmlns:cc="http://creativecommons.org/ns#"
   xmlns:rdf="http://www.w3.org/1999/02/22-rdf-syntax-ns#"
   xmlns:svg="http://www.w3.org/2000/svg"
   xmlns="http://www.w3.org/2000/svg"
   version="1.1"
   id="svg4136"
   viewBox="0 0 600.00001 300"
   height="115"
   width="302">
  <defs
     id="defs4138" />
  <metadata
     id="metadata4141">
    <rdf:RDF>
      <cc:Work
         rdf:about="">
        <dc:format>image/svg+xml</dc:format>
        <dc:type
           rdf:resource="http://purl.org/dc/dcmitype/StillImage" />
        <dc:title></dc:title>
      </cc:Work>
    </rdf:RDF>
  </metadata>
  <path
     id="path4316"
     transform="matrix(2.6086957,0,0,2.6086957,-93.913045,0)"
     d="M 189.38477 57.167969 L 189.38477 59.455078 L 181.12305 59.455078 L 180.10742 61.234375 L 161.93164 61.234375 L 161.04102 59.455078 L 154.8125 59.455078 L 153.28711 61.445312 L 129.37695 61.445312 C 129.38247 60.06608 128.9805 58.934276 127.61328 58.390625 L 121.01367 58.390625 C 119.38157 58.771375 119.27184 60.109642 119.22461 61.488281 L 115.66406 61.488281 L 115.66406 64.919922 L 82.109375 64.919922 L 81.601562 63.140625 L 74.992188 63.140625 L 80.203125 83.351562 L 86.191406 83.273438 C 89.737703 79.183831 94.528559 75.683354 101.29102 73.117188 L 114.95117 73.117188 L 114.95117 78.914062 L 122.54688 78.914062 L 124.20898 77.251953 L 129.33203 77.251953 L 129.33203 79.318359 C 126.74247 82.772047 125.00311 86.652498 124.56836 91.183594 C 124.56836 91.183594 133.73619 93.699219 134.0957 93.699219 C 134.45522 93.699219 135.08398 91.722656 135.08398 91.722656 L 133.73633 90.914062 C 133.59302 87.657141 134.50925 84.823613 136.16211 82.285156 L 152.07031 82.285156 L 155.12695 77.791016 L 183.07812 77.791016 C 179.73494 81.695059 178.35809 86.336108 177.77539 91.273438 L 185.59375 95.40625 L 186.31445 93.25 L 185.14453 92.800781 C 184.64391 88.308947 185.49416 83.945557 187.50977 79.693359 L 192.75 79.693359 L 194.93945 77.503906 L 194.93945 70.658203 L 193.45312 70.259766 L 193.45312 68.230469 L 196.80859 68.230469 L 197.90234 68.861328 L 206.03711 68.861328 L 206.03711 62.982422 L 197.33008 62.982422 L 196.37695 64.539062 L 193.72656 64.539062 L 193.72656 60.949219 L 191.80078 59.835938 L 191.80078 57.167969 L 189.38477 57.167969 z M 83.855469 72.308594 L 95.539062 72.308594 C 91.804564 73.786923 88.027569 75.795207 85.476562 78.457031 L 83.855469 72.308594 z M 141.55469 77.431641 L 148.02734 77.431641 L 147.12695 79.947266 L 140.11719 79.947266 L 141.55469 77.431641 z "
     style="opacity:1;fill:#c7c7c7;fill-rule:evenodd;stroke:none;stroke-width:2.60869575px;stroke-linecap:butt;stroke-linejoin:miter;stroke-opacity:1;fill-opacity:1" />
</svg>
