<?xml version="1.0" encoding="UTF-8" standalone="no"?>
<svg
   xmlns:dc="http://purl.org/dc/elements/1.1/"
   xmlns:cc="http://creativecommons.org/ns#"
   xmlns:rdf="http://www.w3.org/1999/02/22-rdf-syntax-ns#"
   xmlns:svg="http://www.w3.org/2000/svg"
   xmlns="http://www.w3.org/2000/svg"
   version="1.1"
   id="svg4136"
   viewBox="0 0 600.00001 300"
   height="115"
   width="302">
  <defs
     id="defs4138" />
  <metadata
     id="metadata4141">
    <rdf:RDF>
      <cc:Work
         rdf:about="">
        <dc:format>image/svg+xml</dc:format>
        <dc:type
           rdf:resource="http://purl.org/dc/dcmitype/StillImage" />
        <dc:title></dc:title>
      </cc:Work>
    </rdf:RDF>
  </metadata>
  <path
     id="path4728"
     transform="matrix(2.6086957,0,0,2.6086957,-93.913045,0)"
     d="m 61.792969,50.880859 0,2.544922 -4.134766,0 0,-2.394531 -6.527344,0 c -3.389515,0.946841 -5.602927,3.406627 -6.96289,6.962891 l 0,19.472656 c 1.359963,3.556264 3.573375,6.01605 6.96289,6.962891 l 6.527344,0 0,-2.394532 4.134766,0 0,2.544922 99.433591,0 c 2.08222,-0.656776 4.15292,-1.328427 4.53516,-4.535156 l 0,-3.013672 9.60742,0 3.1543,-3.154297 0,6.417969 7.9414,0 0,-25.128906 -7.9414,0 0,6.417968 -3.1543,-3.154296 -9.60742,0 0,-3.013672 c -0.38224,-3.206729 -2.45294,-3.87838 -4.53516,-4.535157 z"
     style="fill:#ced0cd;fill-rule:evenodd;stroke:none;stroke-width:1px;stroke-linecap:butt;stroke-linejoin:miter;stroke-opacity:1;fill-opacity:1;opacity:1" />
  <path
     id="path4733"
     transform="matrix(2.6086957,0,0,2.6086957,-93.913045,0)"
     d="M 207.26367 36.132812 C 200.61227 35.803868 190.86665 44.93177 200.31445 50.998047 C 197.72072 75.818416 236.24185 48.703794 212.31445 41.613281 C 211.99448 37.838454 209.86639 36.26153 207.26367 36.132812 z M 232.14648 54.992188 C 226.59196 54.878491 220.80526 58.539716 216.70898 69.744141 C 219.69959 73.046171 222.50721 76.380459 219.86133 80.654297 A 8.431196 8.5943807 0 0 0 211.43359 72.136719 A 8.431196 8.5943807 0 0 0 203.00195 80.730469 A 8.431196 8.5943807 0 0 0 211.43359 89.326172 A 8.431196 8.5943807 0 0 0 211.8125 89.3125 L 211.8125 92.480469 C 224.65954 109.64428 259.85966 102.01075 262.11914 92.693359 A 18.113472 15.828891 0 0 0 280.13281 76.869141 A 18.113472 15.828891 0 0 0 262.01953 61.041016 A 18.113472 15.828891 0 0 0 243.90625 76.869141 A 18.113472 15.828891 0 0 0 250.03516 88.71875 L 249.89062 88.673828 C 236.23317 81.175387 240.16652 69.711493 246.19141 62.890625 C 243.0238 58.994732 237.70101 55.105882 232.14648 54.992188 z "
     style="fill:#ffffff;fill-rule:evenodd;stroke:none;stroke-width:1px;stroke-linecap:butt;stroke-linejoin:miter;stroke-opacity:1;fill-opacity:1;opacity:1" />
</svg>
