<?xml version="1.0" encoding="UTF-8" standalone="no"?>
<svg
   xmlns:dc="http://purl.org/dc/elements/1.1/"
   xmlns:cc="http://creativecommons.org/ns#"
   xmlns:rdf="http://www.w3.org/1999/02/22-rdf-syntax-ns#"
   xmlns:svg="http://www.w3.org/2000/svg"
   xmlns="http://www.w3.org/2000/svg"
   version="1.1"
   id="svg2"
   viewBox="0 0 300 300"
   height="300"
   width="300">
  <defs
     id="defs4" />
  <metadata
     id="metadata7">
    <rdf:RDF>
      <cc:Work
         rdf:about="">
        <dc:format>image/svg+xml</dc:format>
        <dc:type
           rdf:resource="http://purl.org/dc/dcmitype/StillImage" />
        <dc:title></dc:title>
      </cc:Work>
    </rdf:RDF>
  </metadata>
  <path
     id="path4928"
     d="M 19.775391 50.564453 L 59.439453 91.851562 L 64.460938 87.351562 C 42.853636 67.585019 25.254427 52.531287 19.775391 50.564453 z M 73.839844 96.013672 L 68.25 101.02344 L 125.3418 160.45117 L 133.71484 152.94727 C 115.08596 134.91513 93.484672 114.22407 73.839844 96.013672 z M 142.86914 161.8125 L 134.15234 169.625 L 173.48047 210.5625 L 156.40234 211.01172 L 166.28906 222.69727 L 142.91992 233.03516 L 166.74023 233.48438 L 155.95312 250.11328 L 174.83008 239.77539 L 167.63867 266.74219 L 185.16602 246.06836 L 191.9082 270.78711 L 194.60352 240.67578 C 194.60352 240.67578 213.93056 262.24805 216.17773 262.24805 C 218.42489 262.24805 206.28906 231.68555 206.28906 231.68555 L 232.80664 219.55078 L 207.63867 217.75391 L 207.1875 212.81055 L 215.27734 202.02344 L 202.24414 209.21484 L 199.09766 206.51758 L 199.09766 187.19336 L 191.45898 200.22656 L 186.06445 197.5293 L 184.26758 178.20312 L 178.875 197.08008 C 178.875 197.08008 163.77062 182.1258 142.86914 161.8125 z "
     style="fill:#ffffff;fill-rule:evenodd;stroke:none;stroke-width:1px;stroke-linecap:butt;stroke-linejoin:miter;stroke-opacity:1;fill-opacity:1" />
  <path
     id="path4936"
     d="M 40.359375 49.894531 L 115.52344 106.85742 L 119.25586 102.71289 L 40.359375 49.894531 z M 126.99414 107.89258 L 122.89453 112.44336 L 185.56055 159.93359 L 192.77148 151.92969 L 126.99414 107.89258 z M 200.50977 157.10938 L 192.93359 165.51953 L 222.77539 188.13477 C 222.77539 188.13477 202.43611 191.63199 202.75391 192.26758 C 203.0717 192.90317 222.77539 193.2207 222.77539 193.2207 L 213.55859 205.61523 L 229.44922 200.84766 L 221.82227 221.18555 L 237.07617 206.25 L 252.9668 219.91602 L 244.70312 198.94141 L 259.95703 201.16602 L 247.88086 191.63086 L 266.31445 185.27539 L 247.24609 184.64062 L 262.5 173.83398 C 262.5 173.83398 245.97432 176.37751 244.70312 176.69531 C 243.43194 177.0131 248.83398 157.94531 248.83398 157.94531 C 248.83398 157.94531 237.07617 173.19869 237.07617 175.10547 C 237.07617 177.01225 231.35547 162.07617 231.35547 162.07617 L 228.81445 176.05859 L 200.50977 157.10938 z "
     style="fill:#ffffff;fill-rule:evenodd;stroke:none;stroke-width:1px;stroke-linecap:butt;stroke-linejoin:miter;stroke-opacity:1;fill-opacity:1" />
</svg>
