<?xml version="1.0" encoding="UTF-8" standalone="no"?>
<svg
   xmlns:dc="http://purl.org/dc/elements/1.1/"
   xmlns:cc="http://creativecommons.org/ns#"
   xmlns:rdf="http://www.w3.org/1999/02/22-rdf-syntax-ns#"
   xmlns:svg="http://www.w3.org/2000/svg"
   xmlns="http://www.w3.org/2000/svg"
   xmlns:xlink="http://www.w3.org/1999/xlink"
   version="1.1"
   id="svg4136"
   viewBox="0 0 600.00001 300"
   height="115"
   width="302">
  <defs
     id="defs4138" />
  <metadata
     id="metadata4141">
    <rdf:RDF>
      <cc:Work
         rdf:about="">
        <dc:format>image/svg+xml</dc:format>
        <dc:type
           rdf:resource="http://purl.org/dc/dcmitype/StillImage" />
        <dc:title></dc:title>
      </cc:Work>
    </rdf:RDF>
  </metadata>
  <path
     id="path4763"
     d="m 304.22857,105.74543 24.08116,51.37311 62.20962,0 -47.76094,36.52307 25.2852,66.22315 -62.61097,-42.54336 -63.41369,44.55012 26.0879,-65.8218 -50.97175,-39.33253 62.20962,0 z"
     style="fill:#ffffff;fill-rule:evenodd;stroke:none;stroke-width:2.60869575px;stroke-linecap:butt;stroke-linejoin:miter;stroke-opacity:1;fill-opacity:1;opacity:1" />
  <path
     id="path4765"
     transform="matrix(2.6086957,0,0,2.6086957,-93.913045,0)"
     d="M 22.410156 49.943359 L 27.414062 57.994141 L 131.63477 57.994141 L 131.63477 49.943359 L 22.410156 49.943359 z M 29.232422 60.074219 L 33.693359 67.613281 L 123.54297 67.613281 L 114.61914 60.074219 L 29.232422 60.074219 z M 66.464844 70.382812 L 71.232422 77.767578 L 126.3125 77.767578 L 130.00391 72.84375 L 127.08203 70.382812 L 66.464844 70.382812 z "
     style="fill:#dbdbdb;fill-rule:evenodd;stroke:none;stroke-width:1px;stroke-linecap:butt;stroke-linejoin:miter;stroke-opacity:1;fill-opacity:1;opacity:1" />
  <use
     height="100%"
     width="100%"
     transform="matrix(-1,0,0,1,607.9433,0)"
     id="use4775"
     xlink:href="#path4765"
     y="0"
     x="0" />
</svg>
