<?xml version="1.0" encoding="UTF-8" standalone="no"?>
<svg
   xmlns:dc="http://purl.org/dc/elements/1.1/"
   xmlns:cc="http://creativecommons.org/ns#"
   xmlns:rdf="http://www.w3.org/1999/02/22-rdf-syntax-ns#"
   xmlns:svg="http://www.w3.org/2000/svg"
   xmlns="http://www.w3.org/2000/svg"
   width="302"
   height="115"
   viewBox="0 0 600 300"
   id="svg2"
   version="1.1">
  <defs
     id="defs4" />
  <metadata
     id="metadata7">
    <rdf:RDF>
      <cc:Work
         rdf:about="">
        <dc:format>image/svg+xml</dc:format>
        <dc:type
           rdf:resource="http://purl.org/dc/dcmitype/StillImage" />
        <dc:title></dc:title>
      </cc:Work>
    </rdf:RDF>
  </metadata>
  <path
     id="path9005"
     d="m 192.5,130.5 -19.5,19.56836 -18.43164,0 -8.06836,8.06836 -111.236328,0 L 31,150.75 11.25,150.75 5,157 l 0,46.00586 6.25,6.25 19.75,0 4.263672,-7.38477 111.236328,0 8.06836,8.06836 18.43164,0 19.5,19.56641 12.5,0 0,-5 5.5,0 0,4.625 128.5,-29.125 C 351.8208,186.13637 348.71562,172.93047 339,160 l -128.5,-29.125 0,4.625 -5.5,0 0,-5 z"
     style="fill:#cdcfcc;fill-rule:evenodd;stroke:none;stroke-width:1px;stroke-linecap:butt;stroke-linejoin:miter;stroke-opacity:1;fill-opacity:1;opacity:1" />
  <path
     id="path9010"
     d="M 511.94531 101.65625 L 505.58203 110.49609 L 504.52148 140.19336 L 514.77344 115.0918 L 511.94531 101.65625 z M 439.11328 103.77734 L 439.82031 110.84961 L 459.97266 131.35547 L 445.47656 106.95898 L 439.11328 103.77734 z M 564.27148 110.49609 L 557.55273 111.55664 L 531.39062 141.25391 L 563.56445 116.85938 L 564.27148 110.49609 z M 359.91797 128.52734 L 370.52344 139.83984 L 409.41406 147.97266 L 375.82812 128.52734 L 359.91797 128.52734 z M 545.88672 205.60156 L 586.54492 220.09766 L 598.91992 216.91406 L 589.72656 209.84375 L 545.88672 205.60156 z M 421.43555 210.19727 L 375.12109 221.86523 L 372.64453 226.46094 L 382.19141 230.34961 L 421.43555 210.19727 z M 455.02344 222.92578 L 430.62891 236.71484 L 425.32422 248.73438 L 435.57812 246.9668 L 455.02344 222.92578 z M 548.36133 227.875 L 581.5957 251.91602 L 589.01953 249.08789 L 578.06055 240.60352 L 548.36133 227.875 z M 514.06641 228.58203 L 522.90625 257.57422 L 535.63281 262.16992 L 533.1582 246.61328 L 514.06641 228.58203 z "
     style="fill:#929390;fill-rule:evenodd;stroke:none;stroke-width:1px;stroke-linecap:butt;stroke-linejoin:miter;stroke-opacity:1;fill-opacity:1;opacity:1" />
  <path
     id="path9036"
     d="M 423.20312 112.26367 L 407.29297 128.52734 L 387.84766 127.4668 L 395.98047 140.54688 L 379.36328 165.29688 L 410.47461 156.81055 L 431.68945 180.49805 L 429.56641 149.74023 L 448.66016 143.375 L 426.73828 135.24414 L 423.20312 112.26367 z M 511.5918 122.51562 L 512.29883 144.79102 L 493.91406 159.28516 L 514.77344 160.69922 L 517.24805 191.8125 L 533.86523 161.75977 L 564.97852 163.88281 L 544.47266 143.72852 L 550.48242 122.51562 L 529.97656 135.24414 L 511.5918 122.51562 z M 470.22656 190.39844 L 463.1543 215.5 L 448.30664 215.14648 L 461.38672 229.64258 L 455.73047 246.9668 L 473.05469 238.48242 L 487.9043 247.32031 L 486.84375 233.17773 L 507.34961 219.39062 L 480.47852 217.62109 L 470.22656 190.39844 z "
     style="fill:#ffffff;fill-rule:evenodd;stroke:none;stroke-width:1px;stroke-linecap:butt;stroke-linejoin:miter;stroke-opacity:1;fill-opacity:1;opacity:1" />
</svg>
