<?xml version="1.0" encoding="UTF-8" standalone="no"?>
<svg
   xmlns:dc="http://purl.org/dc/elements/1.1/"
   xmlns:cc="http://creativecommons.org/ns#"
   xmlns:rdf="http://www.w3.org/1999/02/22-rdf-syntax-ns#"
   xmlns:svg="http://www.w3.org/2000/svg"
   xmlns="http://www.w3.org/2000/svg"
   version="1.1"
   id="svg2"
   viewBox="0 0 300 300"
   height="300"
   width="300">
  <defs
     id="defs4" />
  <metadata
     id="metadata7">
    <rdf:RDF>
      <cc:Work
         rdf:about="">
        <dc:format>image/svg+xml</dc:format>
        <dc:type
           rdf:resource="http://purl.org/dc/dcmitype/StillImage" />
        <dc:title></dc:title>
      </cc:Work>
    </rdf:RDF>
  </metadata>
  <path
     id="path4242"
     d="M 95.279643,283.37101 33.707421,204.27093 37.302879,198.87774 13.033536,142.6987 18.426723,138.65381 6.2920519,117.08106 7.6403487,100.9015 29.213098,93.710585 31.010827,79.778184 20.224452,55.958274 44.493795,30.340634 61.572222,29.891202 69.212571,17.75653 l 42.696069,-1.348296 45.84209,41.347769 28.76366,-1.348297 41.79721,40.448905 8.53921,34.606289 31.01083,61.57222 -21.57275,7.64035 -10.33694,25.61764 -75.95406,43.1455 -26.96594,-8.53922 z"
     style="fill:#9cb3ba;fill-rule:evenodd;stroke:none;stroke-width:1px;stroke-linecap:butt;stroke-linejoin:miter;stroke-opacity:1;fill-opacity:1;opacity:1" />
  <path
     id="path4244"
     d="M 116.85156 57.755859 L 99.324219 58.654297 L 91.234375 65.845703 L 94.380859 85.171875 L 169.43555 171.46289 L 175.2793 171.46289 L 233.70508 235.28125 C 224.4472 253.69571 247.53949 265.19729 266.06445 248.31445 C 284.58941 231.4316 269.90843 212.26622 253.48047 215.95703 L 217.07617 179.55273 L 222.01953 175.50781 L 241.3457 193.48438 L 246.28906 188.0918 L 226.51367 168.76562 L 228.3125 164.27148 L 187.41406 120.67578 L 177.97461 121.57617 L 116.85156 57.755859 z M 224.26758 97.755859 L 218.42383 104.49609 L 226.96289 115.73242 L 216.17773 124.7207 C 238.37055 144.8083 261.01548 164.60333 263.36719 197.5293 L 282.69336 184.94531 C 285.1572 143.08413 248.08073 124.28879 224.26758 97.755859 z M 56.179688 160.22656 L 42.246094 165.61914 C 62.882943 203.5583 86.491284 238.52646 99.324219 284.26953 L 128.53711 266.29297 C 121.68663 233.23929 106.65248 204.27768 90.335938 175.95703 L 71.908203 183.59766 L 56.179688 160.22656 z "
     style="fill:#ffffff;fill-rule:evenodd;stroke:none;stroke-width:1px;stroke-linecap:butt;stroke-linejoin:miter;stroke-opacity:1;fill-opacity:1" />
</svg>
