<?xml version="1.0" encoding="UTF-8" standalone="no"?>
<svg
   xmlns:dc="http://purl.org/dc/elements/1.1/"
   xmlns:cc="http://creativecommons.org/ns#"
   xmlns:rdf="http://www.w3.org/1999/02/22-rdf-syntax-ns#"
   xmlns:svg="http://www.w3.org/2000/svg"
   xmlns="http://www.w3.org/2000/svg"
   version="1.1"
   id="svg2"
   viewBox="0 0 300 300"
   height="300"
   width="300">
  <defs
     id="defs4" />
  <metadata
     id="metadata7">
    <rdf:RDF>
      <cc:Work
         rdf:about="">
        <dc:format>image/svg+xml</dc:format>
        <dc:type
           rdf:resource="http://purl.org/dc/dcmitype/StillImage" />
        <dc:title></dc:title>
      </cc:Work>
    </rdf:RDF>
  </metadata>
  <path
     id="path4246"
     d="m 144.26758,10.115234 c -6.20972,51.240873 -7.44548,119.061956 -8.36133,187.949216 -6.332,-5.02997 -13.83788,-7.72422 -21.52539,-7.72656 -20.974176,3e-4 -34.16332,9.29095 -34.163004,33.49192 0.01746,13.5148 2.762701,30.24132 7.248511,41.54699 l -11.34094,1.81603 c 0.666161,-2.70955 1.212354,-5.70815 -0.625526,-14.03221 -1.83788,-8.32406 -8.303083,-20.73354 -19.720438,-20.73358 -11.417355,4e-5 -18.925248,10.72197 -18.925947,23.75265 -2.45e-4,13.03144 9.255645,24.04507 15.638484,24.49431 0.64521,-0.007 178.516,0 178.516,0 25.78977,-7.63579 11.34326,-28.69627 -15.73066,-15.73064 l -1.87304,-3.01367 c 3.5334,-4.46064 5.45862,-9.96538 5.46875,-15.63672 -0.003,-10.24541 -6.21636,-19.48561 -15.75586,-23.42969 0.0132,-0.35453 0.0217,-0.70942 0.0254,-1.06445 3.2e-4,-14.89273 -8.14858,-26.96612 -18.20117,-26.9668 -10.0526,6.8e-4 -18.2015,12.07407 -18.20118,26.9668 0.007,5.182 1.02114,10.2514 2.92188,14.60156 -1.03028,2.42508 -1.67403,4.99415 -1.9082,7.61523 -9.855,1.23974 -17.18308,8.72349 -17.19336,17.5586 0.008,3.03869 0.89547,6.02459 2.57617,8.67187 l -5.21484,-0.1289 c 0.86359,-7.25535 1.63867,-14.50656 2.34179,-21.75391 1.37246,-4.56928 2.07994,-9.36919 2.09375,-14.20508 -0.0156,-1.88793 -0.13696,-3.77271 -0.36328,-5.64258 5.62798,-73.21045 3.05538,-146.010763 -7.72657,-218.400386 z m 97.30273,178.874996 c -10.30157,-5e-4 -18.65278,8.45128 -18.65234,18.87696 6.3e-4,10.42492 8.35153,18.8755 18.65234,18.875 10.30005,-5.9e-4 18.64976,-8.45085 18.65039,-18.875 4.4e-4,-10.42491 -8.34958,-18.87637 -18.65039,-18.87696 z"
     style="opacity:1;fill:#ffffff;fill-opacity:1;fill-rule:nonzero;stroke:none;stroke-width:0.1;stroke-linecap:round;stroke-linejoin:round;stroke-miterlimit:4;stroke-dasharray:none;stroke-dashoffset:0;stroke-opacity:1" />
</svg>
