<?xml version="1.0" encoding="UTF-8" standalone="no"?>
<svg
   xmlns:dc="http://purl.org/dc/elements/1.1/"
   xmlns:cc="http://creativecommons.org/ns#"
   xmlns:rdf="http://www.w3.org/1999/02/22-rdf-syntax-ns#"
   xmlns:svg="http://www.w3.org/2000/svg"
   xmlns="http://www.w3.org/2000/svg"
   version="1.1"
   id="svg2"
   viewBox="0 0 300 300"
   height="300"
   width="300">
  <defs
     id="defs4" />
  <metadata
     id="metadata7">
    <rdf:RDF>
      <cc:Work
         rdf:about="">
        <dc:format>image/svg+xml</dc:format>
        <dc:type
           rdf:resource="http://purl.org/dc/dcmitype/StillImage" />
        <dc:title></dc:title>
      </cc:Work>
    </rdf:RDF>
  </metadata>
  <path
     id="path4878"
     d="M 79.548828 112.58594 L 3.1464844 300 L 22.921875 300 L 79.548828 112.58594 z M 222.63672 112.58594 L 279.26562 300 L 299.03906 300 L 222.63672 112.58594 z M 106.06641 149.88867 L 71.009766 300 L 89.886719 300 L 106.06641 149.88867 z M 196.11914 149.88867 L 212.29883 300 L 231.17578 300 L 196.11914 149.88867 z M 155.50391 172.81055 L 144.7168 300 L 165.39062 300 L 155.50391 172.81055 z "
     style="fill:#ae8282;fill-rule:evenodd;stroke:none;stroke-width:1px;stroke-linecap:butt;stroke-linejoin:miter;stroke-opacity:1;fill-opacity:1;opacity:1" />
  <path
     id="path4892"
     d="M 161.58203 19.339844 C 158.73283 19.341429 155.75773 19.496017 152.65234 19.818359 C 86.404067 26.694992 93.688526 110.72618 104.26758 112.13672 L 119.09961 84.273438 L 153.25586 72.587891 L 165.83984 87.867188 L 198.19922 74.833984 L 225.61523 82.474609 C 225.61523 82.474609 219.51583 19.307603 161.58203 19.339844 z M 131.23438 104.94727 L 131.68359 126.96875 L 150.11133 138.20508 L 165.39062 121.125 L 157.30078 105.8457 L 131.23438 104.94727 z M 64.71875 120.67578 L 44.943359 122.92383 L 35.056641 158.42969 L 61.572266 176.40625 L 63.820312 166.96875 L 82.695312 179.55273 L 93.482422 160.22656 L 64.71875 120.67578 z M 263.81641 151.6875 L 256.17578 156.63086 L 246.73828 157.08008 L 239.99609 172.36133 L 260.2207 175.05859 L 271.90625 160.67578 L 263.81641 151.6875 z M 173.03125 182.24805 L 151.45898 185.39453 L 144.26758 194.83203 L 161.79492 211.46094 L 173.92969 198.42773 L 173.03125 182.24805 z M 215.27734 237.97852 L 212.58203 248.31445 L 222.46875 258.20312 L 230.10938 249.21484 L 226.06445 238.42773 L 215.27734 237.97852 z "
     style="fill:#ffffff;fill-rule:evenodd;stroke:none;stroke-width:1px;stroke-linecap:butt;stroke-linejoin:miter;stroke-opacity:1;fill-opacity:1" />
</svg>
