<svg xmlns="http://www.w3.org/2000/svg" width="300" height="300" viewBox="0 0 300 300"><path fill="#c2c6cb" fill-rule="evenodd" d="M139.672 181.462h33.686v27.489h-33.686z"/><path d="M129.343 254.873V219.28h12.712v-10.488l51.8-34.957-21.61-42.585-51.482 1.271-25.765 6.904V61.017H84.216V50.53h-35.91v108.686c-5.971 8.129-16.715 16.127-11.76 34.64v14.619h6.039v12.076h13.983c13.465 28.545 27.177 11.77 28.601.318l5.88 5.879V239.3c14.388 3.567 26.398 9.513 38.294 15.572z" fill="#fff" fill-rule="evenodd"/><path d="M176.06 93.432l85.169-1.271c25.697 32.328 22.342 59.913 6.674 85.487l-82.31 3.178c-47.758-18.763-23.27-70.711-9.534-87.394z" fill="#c2c6cb" fill-rule="evenodd"/><ellipse ry="33.686" rx="32.415" cy="136.653" cx="234.216" fill="#fff" fill-rule="evenodd"/><path d="M60 59.78v85.165c-4.363 4.441-8.326 8.884-11.695 13.325v.947c-1.33 1.81-2.902 3.63-4.479 5.545-10.495 16.99-10.907 33.98 9.656 50.97l39.551 1.123 12.809-6.517-23.596-2.022c-15.943-20.224-25.029-40.449 4.045-60.673 11.117-9.4 12.273-14.773-4.719-12.809L67.64 140.9V67.643l27.359.648v-7.273H84.217v-1.239H60zm64.895 82.751c-3.477 18.396-7.292 36.9 15.253 47.035-10.515-14.82-12.518-30.986-15.253-47.035z" fill="#c2c6cb" fill-rule="evenodd"/></svg>