<svg xmlns="http://www.w3.org/2000/svg" width="302" height="115" viewBox="0 0 600.00001 300"><path d="M114.317 213.79v-26.858l-4.31-4.476v-12.931h32.328v-7.295h43.603v-4.642h29.842v-5.471h61.341v3.813h9.616v5.14h20.06v-11.108h4.642V137.03h87.37v4.642h11.274l1.824 20.558h34.318v-4.145h33.987v8.124h17.573v27.686h-16.081v8.621h-33.655v-6.3h-34.152v18.569h-12.6v5.305H312.93v-11.274h-5.968V194.56L289.721 211.8h-33.82c-5.547 9.655-8.98 19.635-8.787 30.173l5.735 3.311-3.954 6.848-31.458-12.314c1.6-13.703 7.908-25.92 17.906-36.97v-5.14h-56.866c-10.737 1.356-20.428 4.284-28.515 9.615-10.856 6.57-22.948 7.819-35.645 6.466z" fill="#c7c7c7" fill-rule="evenodd"/></svg>