<svg xmlns="http://www.w3.org/2000/svg" width="302" height="115" viewBox="0 0 600.00001 300"><path d="M243.882 131.214L227.976 149.2h-14.99l-7.378-7.378h-63.18v7.149h-32.74v26.515l30.438 15.219h9.451c-9.054 13.568-13.48 29.194-17.063 45.193l28.823 11.53 3.688-7.611-5.762-2.996c3.37-9.597 6.776-19.18 7.148-29.975h38.968l7.377-5.762 7.842 10.837h10.373v-20.065h13.375v59.72h62.257v-31.819h11.525c1.368-11.764 8.485-11.307 14.527-13.14h80.706l8.07-4.153h50.957v-8.3H496.6v-17.292h-35.972v-4.611H436.88l-8.07-8.535v-7.377l-72.866-11.296-11.53 19.83h-5.533l-12.218-13.604v-3.923l-20.523-12.682v-3.46h-62.258zm-51.76 60.3h18.673l-7.724 10.375h-10.95v-10.374z" fill="#c7c7c7" fill-rule="evenodd"/></svg>