<svg xmlns="http://www.w3.org/2000/svg" viewBox="0 0 300 300" height="300" width="300"><path d="M140.642 43.061l-7.308 134.112h26.994L153.019 43.06z" fill="#b5c09e" fill-rule="evenodd"/><path d="M146.78 24.049l-11.874 13.258 5.168 11.236h13.41l5.168-11.236-11.873-13.258zm-42.225 4.234L74.365 62.29 48.623 50.211s-29.555 48.94-32.098 50.848L48.623 72.14l31.145 12.71 24.787-56.568zm84.851 2.225l35.276 57.84 27.648-18.75 24.79 32.416-16.21-55.297-32.414 16.525-39.09-32.734zm-69.582 30.498l-9.332 13.982 12.444 39.094h11.195l-2.797 33.37-31.107 11.76v19.07H89.96l-2.486 28.286h5.287v21.612l-19.596 7.308v34.01h149.01v-34.01l-19.596-7.308v-21.612h5.29l-2.491-28.287h-10.264v-19.068l-31.107-11.762-2.799-33.369h11.2l12.44-39.094-9.331-13.982-8.303 31.66h-13.47v13.787h-12.148V92.666h-13.47l-8.303-31.66zm26.84 63.252c5.704 0 10.329 4.127 10.328 9.217 0 .021-.003.043-.004.064l.639 33.305h-21.928l.637-33.305-.002-.064c0-5.091 4.625-9.218 10.33-9.217z" fill="#fff" fill-rule="evenodd"/></svg>