<svg xmlns="http://www.w3.org/2000/svg" width="300" height="300" viewBox="0 0 300 300"><path d="M58.426 106.744L22.02 131.912v31.461l64.27 78.201h41.797l14.383-11.236-1.35-16.18-10.154-13.19 10.453-7.747-53.072-54.662-3.38 2.662-26.542-34.477z" fill="#bed2db" fill-rule="evenodd"/><path d="M236.44 207.203c4.696-6.338 2.168-10.87.318-15.572l-18.432-21.61 25.424-26.377-70.233-79.131-19.703 18.432-48.623 19.386-18.433 9.851v27.013l61.335 67.373 13.348-9.534 30.826 30.508c5.093 2.086 10.396 3.333 17.161-1.27z" fill="#fff" fill-rule="evenodd"/><path d="M99.47 101.695V83.898l34.64-22.245h9.216l9.216 12.076h9.534l42.267 45.763c7.698 17.475 22.961 28.105 14.301 60.38l-24.152 13.984c-24.926 6.965-28.577-.74-37.5-10.805v-17.479zM168.432 69.597v-20.02l34.64-20.022 56.886 54.661 17.478 36.865-9.533 29.237-21.928 15.89-12.712-13.03v-11.123l-6.356-12.712z" fill="#bed2db" fill-rule="evenodd"/><path d="M127.21 87.645l10.397 12.173-14.666 8.628 7.017 8.216 14.666-8.627 10.396 12.172 9.9-5.824-10.396-12.172 14.668-8.628-7.017-8.217-14.668 8.629-10.396-12.174-9.9 5.824z" fill="#fff" fill-rule="evenodd"/></svg>