<svg xmlns="http://www.w3.org/2000/svg" width="300" height="300" viewBox="0 0 300 300"><path d="M13.034 99.104l71.909-4.944 95.28 144.717-42.697.45-32.359-22.023z" fill="#c0d4db" fill-rule="evenodd"/><path d="M163.369 84.273l28.988-3.596 60.898 85.842-40.331 9.223 45.127 59.427-9.248 7.255-78.75-101.02z" fill="#fff" fill-rule="evenodd"/><path d="M179.323 71.239l86.291 126.29 8.09-28.763V132.81L212.132 25.846zM116.403 91.014l37.303-20.224 62.47 61.572 20.675 79.999-23.82 8.988-33.258-29.662-13.483 5.842-49.887-64.268z" fill="#c0d4db" fill-rule="evenodd"/><path d="M128.987 91.463l50.786 41.348-23.37-53.033zM151.908 206.069l-50.336-67.865 4.045-22.92 16.18.898 45.392 50.786v20.225h5.393l51.235 62.47-9.887 6.742-44.045-55.73z" fill="#fff" fill-rule="evenodd"/></svg>