<svg xmlns="http://www.w3.org/2000/svg" xmlns:xlink="http://www.w3.org/1999/xlink" viewBox="0 0 300 300" height="300" width="300"><path d="M149.212 254.158C44.57 192.802 75.792 124.95 271.907 49.217c-143.523 17.975-377.321 187.04-122.695 204.94z" fill="#97aa75" fill-rule="evenodd"/><g id="a" fill-rule="evenodd"><path d="M29.213 224.046l-8.54-26.517 43.596-5.842c2.74-7.34 5.853-14.682 12.134-22.022l-.898-21.573 24.269-.45 8.54 11.236c16.571 1.304 25.693-5.624 49.437 17.978l37.303.449 10.786 22.472-34.157 3.146c-.426 13.377-6.846 21.76-14.382 29.213l8.989 26.067-29.213 8.988-26.067-27.415c-14.802-3.774-27.85-9.303-35.505-20.224z" fill="#c5d2b9"/><ellipse cx="117.744" cy="186.229" rx="32.574" ry="22.881" fill="#808f6e" stroke-width="2"/><ellipse cx="119.492" cy="182.256" rx="24.788" ry="15.731" fill="#fff" stroke-width="2"/></g><use height="100%" width="100%" transform="scale(.56936) rotate(9.989 564.926 370.714)" xlink:href="#a"/><use height="100%" width="100%" transform="scale(-.7782 .7782) rotate(3.247 950.134 -6652.647)" xlink:href="#a"/><path d="M195.127 7.627l-5.72 35.275-26.378 16.526 24.79 6.355-4.133 44.492 28.92-38.453 43.855 11.442-23.516-37.5 11.123-22.246-33.05 5.084-15.891-20.975zM78.65 84.273l-18.425 23.37-23.371-.899 6.29 21.572-22.92 31.461 36.405-12.584 17.976 31.46 2.249-39.55 22.92-10.787-17.977-9.437-3.147-34.606zm137.977 71.46l-15.281 36.404-17.078-5.395 11.685 23.82-10.338 30.563 24.27-9.889 17.527 14.383-2.246-24.27 28.314-16.628-29.212-6.293-7.641-42.696z" fill="#fff" fill-rule="evenodd"/></svg>