<svg xmlns="http://www.w3.org/2000/svg" xmlns:xlink="http://www.w3.org/1999/xlink" viewBox="0 0 300 300" height="300" width="300"><g id="a" fill-rule="evenodd"><path d="M29.213 224.046l-8.54-26.517 43.596-5.842c2.74-7.34 5.853-14.682 12.134-22.022l-.898-21.573 24.269-.45 8.54 11.236c16.571 1.304 25.693-5.624 49.437 17.978l37.303.449 10.786 22.472-34.157 3.146c-.426 13.377-6.846 21.76-14.382 29.213l8.989 26.067-29.213 8.988-26.067-27.415c-14.802-3.774-27.85-9.303-35.505-20.224z" fill="#c5d2b9"/><ellipse cx="117.744" cy="186.229" rx="32.574" ry="22.881" fill="#808f6e" stroke-width="2"/><ellipse cx="119.492" cy="182.256" rx="24.788" ry="15.731" fill="#fff" stroke-width="2"/></g><use height="100%" width="100%" transform="scale(.56936) rotate(9.989 564.926 370.714)" xlink:href="#a"/><use height="100%" width="100%" transform="scale(-.7782 .7782) rotate(3.247 950.134 -6652.647)" xlink:href="#a"/></svg>