<svg xmlns="http://www.w3.org/2000/svg" viewBox="0 0 300 300" height="300" width="300"><path d="M131.963 72.535l-20.734 7.549 3.98 6.332a66.737 111.547 86.517 0 0-67.957 65.209l-29.455 7.908 3.178 18.434 31.267-7.96a66.737 111.547 86.517 0 0 110.393 42.794 66.737 111.547 86.517 0 0 12.428-1.213l18.158 35.658 39.406-15.89-18.79-29.36a66.737 111.547 86.517 0 0 56.085-62.586 66.737 111.547 86.517 0 0-12.703-27.965l26.89-7.843-16.525-13.348-26.082 8.096a66.737 111.547 86.517 0 0-75.84-19.121 66.737 111.547 86.517 0 0-11.135.343 66.737 111.547 86.517 0 0-16.841 1.883l-5.723-8.92zm32.396 16.863a53.117 88.781 86.517 0 1 59.137 14.54l-11.207 3.478 10.805 13.982 15.677-4.572a53.117 88.781 86.517 0 1 8.57 20.47 53.117 88.781 86.517 0 1-43.362 49.298l-12.03-18.797-33.685 10.805 8.51 16.71a53.117 88.781 86.517 0 1-4.823.397 53.117 88.781 86.517 0 1-86.465-31.62l15.405-3.92-4.45-19.067-16.271 4.369a53.117 88.781 86.517 0 1 51.074-49.453l3.967 6.312 20.975-7.627-2.428-3.783a53.117 88.781 86.517 0 1 11.738-1.248 53.117 88.781 86.517 0 1 8.863-.274z" fill="#fff" fill-rule="evenodd"/></svg>