<svg xmlns="http://www.w3.org/2000/svg" xmlns:xlink="http://www.w3.org/1999/xlink" viewBox="0 0 600.00001 300" height="115" width="302"><defs><linearGradient id="a"><stop offset="0" stop-color="#d7d7d7"/><stop offset="1" stop-color="#d7d7d7" stop-opacity="0"/></linearGradient><linearGradient gradientTransform="translate(0 -108.411)" gradientUnits="userSpaceOnUse" y2="299.905" x2="194.428" y1="295.365" x1="519.661" id="b" xlink:href="#a"/></defs><path d="M518.81 134.733v26.963H189.318v55.058h329.49v24.69l93.939-52.79-93.939-53.921z" opacity=".752" fill="url(#b)"/><path id="c" transform="matrix(2.6087 0 0 2.6087 -93.913 0)" d="M121.773 50.305l-6.938 13.174c-.79 1.477-1.29 3.145-1.292 4.828a8.077 8.077 0 0 0 16.154 0c-.003-1.722-.665-3.451-1.415-4.945z" fill="#efedef"/><use height="100%" width="100%" transform="translate(43.989 47.394)" id="d" xlink:href="#c"/><use height="100%" width="100%" transform="translate(47.394 -44.273)" xlink:href="#d"/><path id="e" transform="matrix(2.6087 0 0 2.6087 -93.913 0)" d="M184.41 70.432l-2.316 2.316 1.375 1.377v4.865l-4.213-2.431-.506-1.881-3.164.85.848 3.165 1.826-.49 4.228 2.442-4.175 2.41-1.88-.502-.847 3.164 3.164.85.49-1.829 4.229-2.441v4.822l-1.375 1.377 2.316 2.317 2.319-2.317-1.338-1.338v-4.84l4.191 2.42.49 1.828 3.164-.85-.847-3.163-1.881.502-4.176-2.41 4.229-2.442 1.828.488.847-3.166-3.164-.847-.506 1.879-4.175 2.41v-4.881l1.338-1.338-2.319-2.316z" fill="#eee"/><use height="100%" width="100%" transform="translate(35.52 -41.34)" id="f" xlink:href="#e"/><use height="100%" width="100%" transform="translate(36.924 40.537)" xlink:href="#f"/><path d="M-38.186 83.672c6.144 29.862 10.041 60.173 10.837 91.106l-8.432 33.311 8.432 9.635c-4.393 14.456-6.825 29.568-4.82 46.157H8.368V83.67h-46.554z" fill="#737373" fill-rule="evenodd"/><path d="M-16.05 83.672c6.145 29.862 10.042 60.173 10.838 91.106l-8.433 33.311 8.433 9.635c-4.394 14.456-6.826 29.568-4.82 46.157h40.536V83.67H-16.05z" fill="#ababab" fill-rule="evenodd"/><path d="M5.221 83.671h99.937l2.007 51.373 25.285 30.904-4.415 12.04c22.379 21.92 54.555 26.422 86.29 31.708L231.183 241l-2.006 22.877-84.686.402-42.142-12.844-11.238 12.442H11.241c-2.005-16.589.423-31.7 4.817-46.155l-8.429-9.633 8.429-33.312c-.797-30.932-4.693-61.244-10.837-91.107z" fill="#efedee" fill-rule="evenodd"/></svg>