<svg xmlns="http://www.w3.org/2000/svg" xmlns:xlink="http://www.w3.org/1999/xlink" width="300" height="300" viewBox="0 0 300 300"><path d="M61.572 233.934l-22.47 30.11H264.74l-22.472-30.11H61.572z" fill="#b4caa3" fill-rule="evenodd"/><ellipse id="a" cx="95.729" cy="155.508" rx="46.292" ry="90.111" fill="none" fill-rule="evenodd" stroke="#fff" stroke-width="7"/><use xlink:href="#a" id="b" transform="translate(55.73)" width="100%" height="100%"/><use xlink:href="#b" transform="translate(56.628)" width="100%" height="100%"/><path d="M44.174 217.69c15.446-12.89 21.994-10.95 30.19-11.758l-12.711-5.402-14.301 6.038z" id="c" fill="#fff" fill-rule="evenodd"/><use xlink:href="#c" id="d"/><use xlink:href="#d" transform="rotate(32.32 200.716 159.802)" width="100%" height="100%"/><use xlink:href="#d" transform="rotate(32.188 206.075 256.836)" width="100%" height="100%"/><use xlink:href="#d" transform="rotate(10.661 183.671 621.826)" width="100%" height="100%"/><use xlink:href="#d" transform="rotate(-26.026 -132.537 -236.468)" width="100%" height="100%"/><use xlink:href="#d" transform="rotate(-58.012 -23.234 48.067)" width="100%" height="100%"/><use xlink:href="#d" transform="rotate(-35.343 -137.956 55.629)" width="100%" height="100%"/><use xlink:href="#d" transform="rotate(23.729 272.434 652.385)" width="100%" height="100%"/><use xlink:href="#d" transform="rotate(41.571 144.43 457.44)" width="100%" height="100%"/><use xlink:href="#d" transform="rotate(5.128 1127.586 1675.885)" width="100%" height="100%"/></svg>