<svg xmlns="http://www.w3.org/2000/svg" width="302" height="115" viewBox="0 0 600.00001 300"><path d="M242.426 116.783h-20.885l-1.254 5.673h-10.332v25.216h11.808v4.665l-5.166 1.008v7.565H196.67v4.412h-60.514l-3.69 3.783h-29.519v24.585l4.428 3.782v24.585l37.637-1.89 21.401-9.457h14.76c1.863 20.72 6.767 39.507 16.235 57.996l32.471-9.456-3.69-8.825-3.69 1.26c-6.127-14.455-5.068-30.96-5.903-46.648h40.589c-6.476 12.813-12.23 26.476-14.76 40.975l27.305 8.825 1.476-7.564-2.214-.63c.028-13.856 1.675-22.158 5.904-25.847h30.995l7.38-14.498h5.904v8.195h101.103v-11.347h11.07l3.69-6.304h18.449v-17.02h5.166v4.412h30.257v-20.172h-30.257v5.043h-5.904v-13.869l-109.221.63-.738-3.782h-25.83v8.826h-20.663l-5.165-12.608h14.021l14.76-31.52h-52.397v5.674h-23.615zm4.428 31.52h22.14l-4.744 7.564h-12.968zm56.824 58.625l-2.952 6.304-13.283.507v-6.811z" fill="#c3c3c3" fill-rule="evenodd"/></svg>