<svg xmlns="http://www.w3.org/2000/svg" width="302" height="115" viewBox="0 0 600.00001 300"><path d="M218.152 121.809c-3.078 10.148-4.954 20.762 0 34h5.865v4.687c-8.524.291-22.798 41.395-34.234 62.37-10.737-7.831-20.752-18.193-25.323-47.6h-39.15l-3.99 7.037-20.63-9.614c4.348 25.852 1.208 48.45-1.407 71.275h70.338l13.833 8.208h29.776c-6.24-17.446.432-26.285 4.922-36.578h26.26c1.933 4.349 5.705 7.492 15.709 6.563v15.479h29.072v-8.911h-4.687V205.98h25.791l11.255-11.25h141.614v-6.787h16.37l6.37-11.036h21.338V164.48H462.93v-6.562H346.636l10.083-35.406h-38.687v8.366h-57.733l-6.975-5.55h-30.128zm9.497 79.6h16.06v10.787h-16.06z" fill="#c7c7c7" fill-rule="evenodd"/></svg>