<svg xmlns="http://www.w3.org/2000/svg" viewBox="0 0 600.00001 300" height="115" width="302"><path d="M264.9 119.673l-1.403 5.081h-10.521v26.133H264.9l-5.612 11.615-59.62 1.452-2.104 5.082h-61.725l-3.507 3.63h-28.758v23.955l3.507 4.355v23.956l35.07-1.452 25.252-10.889h15.431c.762 21.661 7.39 43.701 18.938 66.06l32.265-8.711-.701-8.712h-5.611c-9.467-20.773-10.851-35.837-10.522-51.54h39.981c-5.44 12.574-11.473 25.664-13.327 39.926l26.654 8.71 3.507-7.984-4.208-.726c-.372-9.552-.176-21.155 5.611-25.408h30.161l8.417-14.518h7.014v6.533h68.038v-10.889h14.028l5.611-7.26h15.431v-10.888h21.043v-20.326H423.42v-8.711H363.8l-5.612-4.356h-39.98v9.437h-21.043l-4.91-12.34h13.327l15.431-31.215zm40.682 90.015l-3.507 7.985h-13.327l-.701-7.985z" fill="#c3c3c3" fill-rule="evenodd"/></svg>