<svg xmlns="http://www.w3.org/2000/svg" viewBox="0 0 600.00001 300" height="115" width="302"><path d="M269.496 109.341v5.248h-35.753c-.238-1.783.7-4.03-4.035-4.035h-17.201c-2.605.002-2.31 2.182-2.364 4.096h-10.608l-.006 33.154h10.945v4.31h-2.986v7.292h-6.97l-5.294 5.298h-55.333l-6.343 3.659h-28.181v23.875h3.312v27.52c17.594-1.745 39.542.623 53.386-13.263h15.581c2.653 19.12 5.937 38.096 16.58 55.373l39.461-8.62-2.323-8.953-4.973 1.325c-4.577-13.248-7.655-26.997-6.634-42.111h37.138c-7.882 12.04-11.017 25.063-13.925 38.132l26.857 7.958 1.987-6.96-3.643-.667c.282-8.445.48-16.896 5.635-24.732h30.163l7.638-13.232h5.803l2.486-2.486h96.818v-4.408h12.014l2.247-3.882h19.229v-9.283h26.856v4.641h30.173V163.06h-29.842v3.648h-28.18v-5.635H342.441v-3.648h-26.856v3.648H294.91v-6.425l-4.524-7.842h26.117l21.629-37.464zm-32.828 38.132h31.167l-4.724 8.193h-23.457zm49.407 56.866h17.242l-2.655 5.804h-14.587z" fill="#c7c7c7" fill-rule="evenodd"/></svg>