<svg xmlns="http://www.w3.org/2000/svg" viewBox="0 0 300 300" height="300" width="300"><path d="M189.648 55.244l-168.51 105.91 1.198 1.905a14.778 13.362 0 0 0-1.52 5.865 14.778 13.362 0 0 0 14.778 13.361 14.778 13.362 0 0 0 14.777-13.361 14.778 13.362 0 0 0-.355-2.836l150.03-94.297-10.398-16.547z" fill="#b7c7a0" fill-rule="evenodd"/><path d="M204.66 40.678l-27.03 15.605V69.28l8.599 6.356-26.377 19.386-17.797-16.525-2.393 1.381c-5.366-4.682-11.642-7.848-18.74-9.645l-1.59 5.563c.913-1.13 10.612 2.906 16.29 6.416l-44.335 25.596-.715 9.46 13.348 24.153 15.254-8.58 4.13 5.719-6.202 30.716a72.583 43.145 0 0 0-26.317 33.198 72.583 43.145 0 0 0 72.584 43.146 72.583 43.145 0 0 0 72.582-43.146 72.583 43.145 0 0 0-11.24-23.036l4.42-3.06h14.3l30.192-21.928 5.084-28.92-10.805-.953 4.131-15.254-29.873-18.431-3.812 10.168-11.442 4.449-15.572 12.394-6.674 22.565-11.758 4.765-13.029-3.177-1.271-9.534 6.355-3.177V116.63l29.9-17.262V81.355h-14.646l20.34-23.199V40.678h-15.89z" fill="#fff" fill-rule="evenodd"/><path d="M266.289 122.924c-8.01-24.24-20.3-18.62-34.157-13.034-1.845 13.751-3.801 30.37-26.517 31.236l-9.213 4.27c-11.942 18.733 24.328 28.42 40.449 26.965l14.157-5.168c-4.445-18.04 6.2-34.587 15.28-44.27z" fill="#b7c7a0" fill-rule="evenodd"/><path d="M35.014 151.129a16.367 17.558 87.28 0 0-16.763 17.18 16.367 17.558 87.28 0 0 1.616 6.137l3.355.447a12.156 13.04 87.28 0 1-1.567-5.235 12.156 13.04 87.28 0 1 12.45-12.761 12.156 13.04 87.28 0 1 13.603 11.524 12.156 13.04 87.28 0 1-3.888 9.214l5.05.674a16.367 17.558 87.28 0 0 4.457-11.666 16.367 17.558 87.28 0 0-18.313-15.514z" opacity=".767" fill="#fff" fill-rule="evenodd"/></svg>