<svg xmlns="http://www.w3.org/2000/svg" xmlns:xlink="http://www.w3.org/1999/xlink" width="302" height="115" viewBox="0 0 600 300"><g transform="matrix(1.24864 0 0 1.24864 -79.097 -51.004)" id="a"><path d="M481.282 119.254a22.321 22.321 0 0 0-22.32 22.322 22.321 22.321 0 0 0 14.136 20.744c-25.804 8.973-43.935 33.916-46.636 48.096-2.713 14.24 9.431 16.948 12.857 12.5s8.418-20.28 15.713-26.43v50.715h56.43v-50.123c8.264 9.37 11.71 19.397 15.238 26.008 2.447 4.585 15.056 4.892 13.033-12.38-2.014-17.191-25.04-40.31-50.23-48.384a22.321 22.321 0 0 0 14.101-20.746 22.321 22.321 0 0 0-22.322-22.322z" fill="#f0f0f0" fill-rule="evenodd"/><circle cx="480.959" cy="134.461" r="8.965" fill="#fff"/></g><use height="100%" width="100%" transform="translate(-47.27)" xlink:href="#a" opacity=".779"/><use height="100%" width="100%" transform="translate(-107.472)" xlink:href="#a" opacity=".687"/><use height="100%" width="100%" transform="translate(-183.728)" xlink:href="#a" opacity=".602"/><use height="100%" width="100%" transform="translate(-259.537)" xlink:href="#a" opacity=".5"/><use height="100%" width="100%" transform="translate(-345.605)" xlink:href="#a" opacity=".408"/><use height="100%" width="100%" transform="translate(-447.278)" xlink:href="#a" opacity=".252"/></svg>