<svg xmlns="http://www.w3.org/2000/svg" xmlns:xlink="http://www.w3.org/1999/xlink" viewBox="0 0 300 300" height="300" width="300"><path d="M151.748 6.674a6.833 5.403 0 0 0-6.832 5.402 6.833 5.403 0 0 0 6.832 5.403 6.833 5.403 0 0 0 3.125-.6 5.403 4.29 0 0 0 3.525 3.217 6.197 4.131 0 0 0 4.346 1.5 6.197 2.86 0 0 0 1.572 1.127 13.983 5.085 0 0 0 13.967 4.925 13.983 5.085 0 0 0 .334-.003 9.852 5.244 0 0 0-.015.162 9.852 5.244 0 0 0 8.687 5.205 17.32 6.515 0 0 0-5.191 4.646 17.32 6.515 0 0 0 15.341 6.469 10.964 8.104 0 0 0-1.994 4.654 10.964 8.104 0 0 0 6.63 7.442 21.292 10.487 0 0 0-9.173 8.607 21.292 10.487 0 0 0 17.926 10.344 6.674 10.487 0 0 0-.129 2.05 6.674 10.487 0 0 0 .084 1.598 9.852 9.375 0 0 0-3.65 5.407 7.945 6.833 0 0 0-7.557 6.82 7.945 6.833 0 0 0 1.824 4.35 9.057 12.712 0 0 0-6.908 12.333 9.057 12.712 0 0 0 9.057 12.713 9.057 12.712 0 0 0 7.783-6.238 12.87 7.31 0 0 0 8.424 1.79 12.87 7.31 0 0 0 5.457-.7 16.367 10.487 0 0 0-2.12 5.148 16.367 10.487 0 0 0 3.177 6.19 12.553 9.693 0 0 0-5.4 7.95 12.553 9.693 0 0 0 1.831 5.026 9.375 6.356 0 0 0-5.01 5.621 9.375 6.356 0 0 0 9.375 6.358 9.375 6.356 0 0 0 2.012-.158 16.208 10.487 0 0 0 13.4 4.607 16.208 10.487 0 0 0 16.208-10.488 16.208 10.487 0 0 0-12.758-10.24 12.553 9.693 0 0 0 .047-.725 12.553 9.693 0 0 0-1.264-4.223 16.367 10.487 0 0 0 11.115-9.918 16.367 10.487 0 0 0-2.504-5.564 13.347 11.758 0 0 0 .28-2.381 13.347 11.758 0 0 0-7.106-10.385 22.881 11.123 0 0 0 2.656-5.187 22.881 11.123 0 0 0-22.58-11.115 9.852 9.375 0 0 0-.324-1.963 6.356 8.104 0 0 0 2.883-6.784 6.356 8.104 0 0 0-.986-4.33 21.292 10.487 0 0 0 7.341-7.906 21.292 10.487 0 0 0-6.99-7.754 8.74 4.29 0 0 0 .953-1.937 8.74 4.29 0 0 0-8.74-4.291 8.74 4.29 0 0 0-3.887.449 10.964 8.104 0 0 0 .551-2.516 10.964 8.104 0 0 0-5.021-6.8 17.32 6.515 0 0 0 4.384-4.323 17.32 6.515 0 0 0-14.363-6.412 6.515 3.655 0 0 0-4.488-1.932 9.852 5.244 0 0 0 .42-1.507 9.852 5.244 0 0 0-6.092-4.846 13.983 5.085 0 0 0 .055-.397 13.983 5.085 0 0 0-13.985-5.085 13.983 5.085 0 0 0-6.803.648 6.197 2.86 0 0 0-2.119-.307 6.197 4.131 0 0 0 .024-.341 6.197 4.131 0 0 0-4.936-4.043 5.403 4.29 0 0 0-4.28-1.678 5.403 4.29 0 0 0-1.595.195 6.833 5.403 0 0 0-6.826-5.28zm-24.312 40.36a4.45 6.515 0 0 0-4.45 6.515 4.45 6.515 0 0 0 3.442 6.338 3.496 8.422 0 0 0-.262 3.195 3.496 8.422 0 0 0 .395 3.885 4.45 9.057 0 0 0-2.938 8.51 4.45 9.057 0 0 0 3.846 8.962 4.45 5.561 0 0 0-.344 2.01 6.038 4.926 0 0 0-5.727 4.918 6.038 4.926 0 0 0 .704 2.301 6.038 6.674 0 0 0-2.61 5.484 6.038 6.674 0 0 0 .52 2.688 7.786 6.833 0 0 0-4.969 6.369 7.786 6.833 0 0 0 1.477 3.99 9.693 8.422 0 0 0-2.79 2.717 11.6 8.422 0 0 0-7.109-1.781 11.6 8.422 0 0 0-11.6 8.422 11.6 8.422 0 0 0 4.946 6.892 12.712 8.58 0 0 0-4.627 6.615 12.712 8.58 0 0 0 .02.381 9.057 4.767 0 0 0-3.046.557 19.703 14.142 0 0 0-15.09-5.07 19.703 14.142 0 0 0-15.353 5.298 8.898 9.375 0 0 0-6.574-3.074 8.898 9.375 0 0 0-8.899 9.375 8.898 9.375 0 0 0 8.899 9.375 8.898 9.375 0 0 0 4.002-1.004 19.703 14.142 0 0 0 3.863 4.034 17.002 11.6 0 0 0-3.098 6.664 17.002 11.6 0 0 0 1.68 5.004 10.328 12.394 0 0 0-.123.58 11.758 9.057 0 0 0-.603-.024 11.758 9.057 0 0 0-9.584 3.82 10.01 8.74 0 0 0-6.038 1.907 6.674 7.945 0 0 0-5.99-4.455 6.674 7.945 0 0 0-6.674 7.945 6.674 7.945 0 0 0 5.938 7.887 16.854 8.427 0 0 0-2.49 4.388 16.854 8.427 0 0 0 16.853 8.428 16.854 8.427 0 0 0 11.807-2.418 14.142 9.375 0 0 0 7.459 1.418 14.142 9.375 0 0 0 14.142-9.375 14.142 9.375 0 0 0-2.193-5.008 12.076 8.74 0 0 0 1.557.082 12.076 8.74 0 0 0 12.076-8.738 12.076 8.74 0 0 0-5.059-7.103 17.002 11.6 0 0 0 1.246-4.338 17.002 11.6 0 0 0-2.95-6.514 19.703 14.142 0 0 0 3.364-3.193 11.44 5.561 0 0 0 .54.013 11.44 5.561 0 0 0 6.603-1.027 13.824 10.17 0 0 0 8.174 1.98 13.824 10.17 0 0 0 13.824-10.168 13.824 10.17 0 0 0-3.023-6.322 12.712 8.58 0 0 0 .164-1.305 12.712 8.58 0 0 0-1.793-4.375 6.197 8.74 0 0 0 .8-3.529 9.693 8.422 0 0 0 2.422.276 9.693 8.422 0 0 0 9.692-8.42 9.693 8.422 0 0 0-3.24-6.274 7.786 6.833 0 0 0 1.97-4.533 7.786 6.833 0 0 0-1.34-3.822 6.038 6.674 0 0 0 2.293-5.235 6.038 6.674 0 0 0-.006-.148 5.085 4.45 0 0 0 1.278.148 5.085 4.45 0 0 0 5.084-4.449 5.085 4.45 0 0 0-3.237-4.139 4.45 5.561 0 0 0 1.33-3.964 4.45 5.561 0 0 0-4.44-5.56 4.45 9.057 0 0 0 .944-5.563 4.45 9.057 0 0 0-.896-5.438 3.496 8.422 0 0 0 1.531-6.957 3.496 8.422 0 0 0-1.603-7.07 4.45 6.515 0 0 0 .332-2.463 4.45 6.515 0 0 0-4.45-6.516z" fill="#9a8582" fill-rule="evenodd"/><path id="a" d="M253.705 142.025l-10.416 6.082-4.641-3.386 1.397 5.46-9.936 6.45 2.922 8.09 5.393-2.473s10.855 28.771 11.46 29.889c12.538 23.118 30.237 6.266 22.247-8.989l-17.302-29.887 6.292-4.27z" fill="#fff" fill-rule="evenodd"/><use height="100%" width="100%" transform="rotate(46.682 161.905 -102.126) scale(1.22437)" xlink:href="#a"/><path id="b" d="M141.346 274.158c5.593 23.583 19.634 17.605 22.697.45l8.09-17.978-14.158 11.91-5.842-23.37-4.72 22.021-13.033-6.516z" fill="#fff" fill-rule="evenodd"/><use height="100%" width="100%" transform="matrix(.71255 0 0 .71255 17.505 53.171)" xlink:href="#b"/><use height="100%" width="100%" transform="matrix(.77381 0 0 .77381 43.879 21.04)" xlink:href="#b"/><use height="100%" width="100%" transform="translate(63.72 73.415) scale(.50074)" xlink:href="#b"/><use height="100%" width="100%" transform="translate(94.327 71.061) scale(.43518)" xlink:href="#b"/><use height="100%" width="100%" transform="matrix(.3797 0 0 .3797 80.658 77.92)" xlink:href="#b"/><use height="100%" width="100%" transform="matrix(.39484 0 0 .39484 90.535 58.705)" xlink:href="#b"/><use height="100%" width="100%" transform="matrix(.30406 0 0 .30406 104.531 66.13)" xlink:href="#b"/><use height="100%" width="100%" transform="matrix(.22842 0 0 .22842 116.27 71.866)" xlink:href="#b"/></svg>