<svg xmlns="http://www.w3.org/2000/svg" width="302" height="115" viewBox="0 0 600.00001 300"><path d="M227.879 120.494l-21.216 11.607v16.243h-15.586l-4.31-7.622h-53.051v74.602h20.885l23.544-13.593h21.884v15.25c-11.65 9.67-13.003 21.683-15.255 33.49l29.842 7.296 3.317-5.967-4.973-2.985c-1.424-11.57 5.35-19.858 12.6-27.957h28.783l5.039-18.796h92.843l3.312-4.31h64.988l4.647 6.628h15.912l4.641-7.291h20.559v-51.807h-21.415l-3.785-6.552h-17.905l-2.654 6.302h-65.32l-1.655-3.979h-11.276l-2.98-9.283h-60.016l-6.965-11.276H227.88zm10.445 82.067h11.938l-1.824 10.613H235.48l2.843-10.613z" fill="#c7c7c7" fill-rule="evenodd"/></svg>