<svg xmlns="http://www.w3.org/2000/svg" viewBox="0 0 600.00001 300" height="115" width="302"><path d="M214.784 148.14l-23.54 17.242H163.06l-2.986-5.971h-56.367v54.38l22.546-.663 54.049-12.931h23.544v10.94c-12.494 13.54-16.34 26.1-20.227 38.793l28.512 9.62 3.317-6.303-4.642-2.318c.369-10.095 5.42-20.861 11.938-31.834h26.525l4.973-20.89h3.98v5.304h9.614v-6.298h52.724v-2.985h13.594v-5.636h126.995v-26.525h-7.296l-3.317 4.642H333.49v-3.98h-10.944v-2.654h-13.594v-2.98h-54.38v-3.98h-35.477v-4.973h-4.31zm18.236 51.726h13.93l-2.986 15.25h-16.91l5.966-15.25z" fill="#c5c5c5" fill-rule="evenodd"/></svg>