<svg xmlns="http://www.w3.org/2000/svg" xmlns:xlink="http://www.w3.org/1999/xlink" width="302" height="115" viewBox="0 0 600.00001 300"><g transform="matrix(1.14516 0 0 1.14516 -487.827 -35.65)" id="a" opacity=".401"><path d="M481.282 119.254a22.321 22.321 0 0 0-22.32 22.322 22.321 22.321 0 0 0 14.136 20.744c-25.804 8.973-43.935 33.916-46.636 48.096-2.713 14.24 9.431 16.948 12.857 12.5s8.418-20.28 15.713-26.43v50.715h56.43v-50.123c8.264 9.37 11.71 19.397 15.238 26.008 2.447 4.585 15.056 4.892 13.033-12.38-2.014-17.191-25.04-40.31-50.23-48.384a22.321 22.321 0 0 0 14.101-20.746 22.321 22.321 0 0 0-22.322-22.322z" fill="#f0f0f0" fill-rule="evenodd"/><circle cx="480.959" cy="134.461" r="8.965" fill="#fff"/></g><use xlink:href="#a" transform="translate(429.125)" width="100%" height="100%" opacity=".68"/><path d="M260.885 151.1v17.258h-35.809v18.46h35.809v18.866l65.019-29.704-65.02-24.88zm-117.6 17.258v18.46h22.194v-18.46h-22.194zm36.67 0v18.46h30.932v-18.46h-30.933z" fill="#fff" fill-rule="evenodd"/><path d="M448.375 130.646a141.477 34.717 0 0 0-98.392 33.057 141.477 34.717 0 0 0 141.476 34.718 141.477 34.717 0 0 0 141.476-34.718 141.477 34.717 0 0 0-98.02-32.996 44.951 53.38 0 0 1 1.493 9.431 122.613 20.469 0 0 1 76.462 18.949 122.613 20.469 0 0 1-122.614 20.467 122.613 20.469 0 0 1-122.613-20.467 122.613 20.469 0 0 1 79.31-19.137 44.951 53.38 0 0 1 1.422-9.304z" opacity=".74" fill="#fff"/><path d="M453.847 168.037a141.477 34.717 0 0 0-103.864 33.434 141.477 34.717 0 0 0 141.476 34.718 141.477 34.717 0 0 0 141.476-34.718 141.477 34.717 0 0 0-98.657-33.047c3.88 3.212 7.458 6.618 10.613 10.134a122.613 20.469 0 0 1 67.98 18.297 122.613 20.469 0 0 1-122.615 20.467 122.613 20.469 0 0 1-122.613-20.467 122.613 20.469 0 0 1 76.834-18.98c2.801-3.366 5.914-6.69 9.37-9.838z" opacity=".74" fill="#fff"/><use height="100%" width="100%" transform="translate(429.125)" xlink:href="#a" opacity=".68"/></svg>