<svg xmlns="http://www.w3.org/2000/svg" viewBox="0 0 300 300" height="300" width="300"><path d="M144.622 68.99c-7.788-.53-17.803 9.193-28.93 26.376l-27.144 7.858H70.692c-34.695-7.392-63.85 41.193-25 61.43-12.076 87.01 126.558 153.447 170 1.427 103.668 16.62 67.55-142.177-25-81.427l-33.572.712c-2.883-10.853-7.17-16.014-12.498-16.376zm14.598 87.972l32.9.547c10.485 58.314-106.23 156.392-125 10.715l17.858-.715.166 33.39 18.658 5.723 4.033-4.826 17.482 5.244 13.23-30.959 14.958-.382 5.715-18.737z" fill="#f0f8fb" fill-rule="evenodd"/><ellipse ry="30.81" rx="34.598" cy="116.83" cx="230.616" fill="#9ab8ba"/></svg>