<svg xmlns="http://www.w3.org/2000/svg" viewBox="0 0 300 300" height="300" width="300"><path d="M105.826 86.123h-27.33v12.712H59.11v11.44l-29.237 2.86v2.543l-15.72 2.225.543 4.526 13.254-.132c1.918 3.942-7.202 9.804-13.65 9.27l-.898 3.474c6.581 3.913 19.314-2.138 20.284-12.69l29.556-3.177c15.093 6.82 30.909 17.259 41.949 3.813h19.703z" fill="#9eb3b8" fill-rule="evenodd"/><path d="M114.156 14.16l-12.584 12.586 12.584 8.988v9.887L92.584 66.744l21.572 44.944-5.394 10.787 5.843 6.74-18.876 24.27 7.64 17.529 8.988 2.246-14.83 26.517-20.224 6.74 9.886 19.776 47.192-10.787 5.842-8.09-8.989-7.19 4.944-6.292 4.943-.45 17.078-21.123-5.392-27.865 13.933-4.494 6.291 26.518-15.281 41.347 10.787.45-.898 22.92-10.787 18.876-12.584 5.393v5.844l5.843 7.638s13.932-3.145 13.932-.898v8.539h15.281l19.1-19.1v-18.652l-9.297-5.367 12.863-12.864 8.188-30.558-11.457-6.615 17.185-29.764-11.668-6.736h5.647v-71.69l4.045-36.404-34.198-16.977h-17.937l-2.453 9.16h-12.826V20.005l-3.147-5.844h-29.213zm53.258 15.281h8.315l31.683 14.608-3.369 6.74-36.629-15.504v-5.844z" fill="#fff" fill-rule="evenodd"/><path d="M231.458 15.06l42.246 25.618L245.39 86.07l-4.494 33.258-31.46 17.079-4.495 9.438-51.685 22.471-4.155-7.196-26.855-.444-31.46 15.28-15.281 17.08c-15.288-.853-20.217-9.187-13.933-25.619l26.067-3.146 30.562-16.18-.45-8.089 19.775-15.28-5.393-7.64 40.898-16.63 5.394 7.191 8.09-4.944z" fill="#9eb3b8" fill-rule="evenodd"/></svg>