<svg xmlns="http://www.w3.org/2000/svg" viewBox="0 0 300 300" height="300" width="300"><path d="M84.493 28.093v36.854l24.719-26.067 56.18.899 2.732 4.733v20.435h36.817l14.14 52.769h-52.342l-5.393 24.533 15.73 6.292 26.067 54.831-16.18 15.28-6.291-4.943-3.146 4.494 8.988 16.63-5.393 4.943 14.831 26.517h13.034l2.815-4.876h4.151v7.797l-4.944 6.966h-64.83l-1.973-3.417v-7.594h18.377l-6.517-15.73h-5.842l-15.618-32.247 20.45-15.28-16.405-33.146c-13.13 6.306-22.749.671-33.033-2.697l-8.09 26.854 11.123 31.235-6.741 26.742-5.169.337 1.236 13.258h8.652v9.438l-3.37 3.37H57.863l-3.146-3.145V263.82h15.506v-5.169H59.999l9.55-15.955-5.617-8.426 6.966-9.888-13.483-24.382 10-55.617h28.202L90.11 116.07 30 112.362l15.393-51.235H61.46V34.723l8.54-6.63z" fill="#fff" fill-rule="evenodd"/><path d="M127.639 34.61c-5.4.295-7.111 3.59-7.752 7.753l.111 70.674c.928 3.26 1.251 7.022 5.62 7.414h29.661c3.704.008 5.2-2.79 5.617-6.965V43.375c-.446-4.26-2.334-7.494-6.966-8.766h-26.291zM18.756 95.722c-3.256-.001-5.61 2.943-7.184 8.437l1.574 30.56c10.434 33.305 27.528 31.968 43.708 35.393v-20.449h3.82v-31.908c-12.687-9.09-23.355-8.426-34.32-9.197l-.737-9.567c-2.629-2.207-4.908-3.269-6.861-3.27zm232.78 7.879l-65.466 14.115v11.627h-6.992l-.318 17.636c.061 2.242.256 4.324.556 6.272l6.834 14.379c8.5 7.604 24.353 6.192 47.801-4.533l30.83-8.26-1.14-4.256 21.37-5.727c.424-5.329.363-10.538-3.935-14.687l-20.38 5.46-3.06-11.413 20.622-5.526c1.706-5.655.46-10.423-3.826-14.28l-21.16 5.67-1.737-6.477z" fill="#9db1ba" fill-rule="evenodd"/></svg>