<svg xmlns="http://www.w3.org/2000/svg" viewBox="0 0 300 300" height="300" width="300"><path d="M190.414 154.538h55.558V84.332l-7.395-12.809h-43.618z" fill="#9cb4b8" fill-rule="evenodd"/><path d="M206.01 20.606l-28.223 8.673 2.526 12.88h-56.317l-23.99 23.991H32.83v38.891h15.152v20.707l24.813 46.857 8.404 14.557-22.062 14.234 1.976 35.47 14.649 14.646v8.242H57.617l-3.505 11.72 32.452 15.289 46.432-8.756.003-6.613-9.328-8.256-7.878-.556-3.592-8.414 9.076-5.24-10.547-18.135 9.186-6.463-11.214-16.9 25.263-17.434-5.17-19.295v-40.406h28.959v29.836l10.183 17.64v10.86l-12.267-8.696-10.5 6.928v20.528l18.474 32v17.677h-18.511v15.608l33.72 8.475 41.164-5.998.368-10.176-7.748-7.748H199.85l-6.977-6.977 8.312-6.43-8.048-15.572 7.858-8.147-10.938-16.409 28.478-14.58-20.545-35.587 9.092-8.08V102.01l8.08-6.06 1.01-19.194-10.102-5.05v-8.081l23.235-1.012 8.082-28.283zm-120.147 81.91h9.092l16.162 7.54v15.188H97.48z" fill="#f6fafb" fill-rule="evenodd"/><path d="M67.68 120.698l8.742 15.14h63.484v-4.533h9.153v4.493h6.504c12.813.378 12.979 21.323 0 20.76h-6.504v4.546h-9.153v-4.546H82.327S71.216 169.69 69.195 169.69H19.698v-35.86l12.627-12.627z" fill="#95b3be" fill-rule="evenodd"/></svg>