<svg xmlns="http://www.w3.org/2000/svg" viewBox="0 0 600.00001 300" height="115" width="302"><path d="M567.916 96.517c-21.572 28.137-41.256 57.573-112.78 51.369 1.732-14.827-4.075-26.423-9.63-38.127-17.89 20.042-43.295 31.818-71.846 40.134-4.526-11.734-12.08-19.682-20.87-26.087-7.017 18.773-25.264 28.42-49.366 33.312v13.645L473.6 216.517c35.597.013 93.966 9.539 94.315-120zM21.308 113.545v5.96H10.526l-34.34 18.445v38.88H-13.6c-13.794 21.524-22.117 46.33-28.38 72.372l49.668 14.19.85-11.352-5.395-1.136C5 235.105 8.394 219.307 14.78 203.509h54.772l15.041-21.288h34.06V208.9h11.633v8.514l38.03 54.773c33.219 20.991 53.802-.564 46.83-28.095l-16.178-22.418 50.513 19.866c15.12 5.226 27.356 2.623 37.179-6.527l15.892-36.894-13.054-5.11-22.99 30.081-74.352-26.958-2.553-7.097v-15.892h35.758l14.19 11.637 51.369-12.773v-29.23l-49.382-11.353-16.463 12.488h-33.062v-8.37l-3.266-3.267h-41.713v12.774h-14.76v-15.041h-13.62l-5.961 6.527v-18.735H99.069l-3.123-4.254zm23.84 69.813h25.827l-7.378 12.773H38.055c-.201-4.685 2.771-8.842 7.093-12.773z" fill="#f5f5f5" fill-rule="evenodd"/></svg>