<svg xmlns="http://www.w3.org/2000/svg" width="300" height="300" viewBox="0 0 300 300"><path d="M40 88.571l44.286 40L92.143 125l-1.429-10 23.572-6.429 4.285 7.143L140 121.43l2.143 11.428 30.714-1.428 81.429 56.428v13.572l-15 15-15-9.286-32.143 20.714L151.429 230l-15 40-13.572-1.429-13.571-17.857V240l-20-27.857-37.857-27.857L50 160l7.857-6.429-42.857-40z" fill="#9eb7bc" fill-rule="evenodd"/><ellipse rx="41.862" ry="41.974" cx="214.405" cy="152.331" fill="#b8cfd7"/><path d="M184.353 109.081c16.834-21.174 11.606-51.433 6.06-81.822 38.603 20.654 75.557 42.435 60.105 100.005 8.263.04 12.9-10.798 18.688-18.183 28.41 62.84-22.357 73.37-34.346 83.843 9.71-20.132 14.659-38.1 9.597-51.518l-11.112 17.678c4.276-22.203-11.877-34.976-24.243-49.498 3.01 15.22 5.715 30.35-.506 42.932l-22.728-9.092c9.382 15.826 9.206 31.652 6.566 47.478-38.373-14.037-54.284-38.302-28.136-67.125 3.077-14.327-.39-28.655-1.663-42.982 10.992 4.424 19.27 12.467 21.718 28.284z" fill="#f6fafb" fill-rule="evenodd"/></svg>