<svg xmlns="http://www.w3.org/2000/svg" width="1200" height="300" viewBox="0 0 1200 300"><circle r="146.047" cy="148.993" cx="603.604" opacity=".918" fill="#f3f3ff" fill-opacity=".602" fill-rule="evenodd"/><path d="M734.058 110.227v22.871h406.681l12.865-22.871H734.058zm0 35.022v22.872h383.453l12.865-22.872H734.058zm0 34.307l19.583 22.871h219.494L986 179.556H734.058zM471.352 110.227v22.871H64.67l-12.865-22.871h419.547zm0 35.022v22.872H87.9l-12.865-22.872h396.318zm0 34.307l-19.584 22.871H232.275l-12.866-22.871h251.943z" opacity=".918" fill="#e5e6e8" fill-rule="evenodd"/><g transform="matrix(.79515 0 0 .79515 483 11.991)"><ellipse cx="150.243" cy="111.375" rx="35.421" ry="40.522" fill="#8b8b8b" fill-rule="evenodd"/><path d="M137.512 148.796c-17.26 2.074-64.686-14.313-39.671-73.27l12.144 14.977c.698-61.015 17.257-70.786 31.373-88.451 1.403 14.35.166 32.395 6.477 39.874 4.248-4.771 7.998-10.207 13.763-12.954-4.919 29.327 1.903 37.129 9.716 43.112 9.167-4.355 10.273-14.29 12.752-23.276-1.904 11.376 53.903 75.919-17.812 101.202 4.207-14.669 15.217-28.869 5.06-44.529l-9.513 5.465c-10.053-7.482-13.187-21.191-18.217-33.194-4.413-1.226-14.191 40.834-9.715 41.898.88.209-11.746-9.2-12.55-7.085-7.772 20.473 15.391 37.915 16.193 36.23z" fill="#d9d9d9" fill-rule="evenodd"/><path d="M52.372 122.062c1.025 65.996 15.982 116.736 37.85 176.72h120.32c6.046-16.583 11.536-32.454 16.376-48.142 41.85-10.302 123.977-123.265 21.129-116.705.164-3.905.28-7.86.343-11.873zm180.962 106.304c6.735-25.267 11.537-50.688 13.738-78.442 59.009-7.385 14.37 65.365-13.738 78.442z" fill="#383838"/><path d="M135.908 132.757L91.99 159.381v60.53l-14.563 18.657 34.587 29.355 5.007-5.46 14.563 19.113h36.924l14.563-19.114 5.007 5.461 34.587-29.355-14.563-18.658v-60.53l-43.918-26.623H135.908zm-17.067 83.512a13.88 13.88 0 0 1 13.881 13.88 13.88 13.88 0 0 1-13.881 13.882 13.88 13.88 0 0 1-13.88-13.882 13.88 13.88 0 0 1 13.88-13.88zm62.41 0a13.88 13.88 0 0 1 13.88 13.88 13.88 13.88 0 0 1-13.88 13.882 13.88 13.88 0 0 1-13.882-13.882 13.88 13.88 0 0 1 13.882-13.88zm-31.206 29.066l9.32 14.646-5.149 2.895-2.735-4.424h-2.87l-2.735 4.424-5.15-2.895 9.32-14.646z" fill="#fff" fill-rule="evenodd"/></g></svg>