<svg xmlns="http://www.w3.org/2000/svg" width="302" height="115" viewBox="0 0 600 300"><g transform="matrix(1.55986 0 0 1.55986 -449.21 -104.72)"><path d="M481.282 119.254a22.321 22.321 0 0 0-22.32 22.322 22.321 22.321 0 0 0 14.136 20.744c-25.804 8.973-43.935 33.916-46.636 48.096-2.713 14.24 9.431 16.948 12.857 12.5s8.418-20.28 15.713-26.43v50.715h56.43v-50.123c8.264 9.37 11.71 19.397 15.238 26.008 2.447 4.585 15.056 4.892 13.033-12.38-2.014-17.191-25.04-40.31-50.23-48.384a22.321 22.321 0 0 0 14.101-20.746 22.321 22.321 0 0 0-22.322-22.322z" fill="#b9b9b9" fill-rule="evenodd"/><circle r="8.965" cy="134.461" cx="480.959" fill="#d5d5d5"/></g><path d="M335.713 125.748a35.301 35.301 0 0 1-33.963 25.803 35.301 35.301 0 0 1-33.654-24.774c-7.09 2.14-14.223 4.867-21.4 8.157v33.941c36.238-9.578 72.904-13.827 111.015 0v-33.941c-7.266-3.922-14.601-6.96-21.998-9.186z" fill="#d9d9d9" fill-rule="evenodd"/><path d="M265.719 122.912c-7.693 1.157-14.853 3.646-21.213 8.133-3.447 6.572-5.858 13.556-5.983 21.457h-9.884l-12.327 13.576c-.226 12.035 3.71 14.428 9.928 16.924 9.679-7.392 19.588-13.16 29.932-15.895v-27.224l-5.125-5.127c3.568-3.41 7.65-5.792 12.55-6.54l-2.827 6.718c-1.276 9.192-1.298 18.383 1.414 27.576-6.044 16.738-2.276 29.973.707 43.488l13.787 8.838 2.476-3.535h45.573l2.474 3.535 13.79-8.838c2.982-13.515 6.75-26.75.706-43.488 2.712-9.193 2.69-18.384 1.414-27.576l-2.828-6.717c4.9.747 8.982 3.128 12.551 6.539l-5.127 5.127v27.224c10.344 2.735 20.255 8.503 29.934 15.895 6.217-2.496 10.152-4.889 9.925-16.924l-12.324-13.576h-9.887c-.124-7.9-2.533-14.885-5.98-21.457-6.36-4.487-13.52-6.976-21.213-8.133-23.535 23.535-48.117 24.326-72.443 0z" fill="#fff" fill-rule="evenodd"/></svg>