<svg xmlns="http://www.w3.org/2000/svg" width="302" height="115" viewBox="0 0 600 300"><ellipse transform="scale(-1 1)" rx="40.71" ry="40.82" cx="-499.713" cy="231.334" fill="#fff"/><path d="M528.939 189.275c-16.371-20.592-11.287-50.018-5.895-79.571-37.54 20.086-73.477 41.267-58.45 97.253-8.036.04-12.545-10.501-18.174-17.682-27.629 61.111 21.742 71.35 33.4 81.536-9.442-19.579-14.255-37.052-9.332-50.1l10.806 17.19c-4.158-21.591 11.551-34.013 23.577-48.135-2.928 14.8-5.558 29.515.491 41.75l22.103-8.841c-9.124 15.39-8.952 30.78-6.385 46.17 37.317-13.65 52.79-37.247 27.362-65.277-2.993-13.933.38-27.866 1.617-41.8-10.69 4.303-18.74 12.125-21.12 27.507z" fill="#ebebeb" fill-rule="evenodd"/><path d="M568.16 127.82c-.239 11.002.056 21.941-5.657 33.587-8.97-6.435-6.448-10.66-7.424-15.556-6.168.067-9.46 3.832-13.435 6.717 2.533-10.098 5.109-20.183 26.516-24.749z" fill="#ebebeb" fill-rule="evenodd"/><path d="M360 139v6.5h-10.5v-6.375h-44.375L294.5 149.75H182.25L172.5 140h-59v18.777H90.98L84.5 170h-29v-14H35v60h20.5v-14h29l6.48 11.225h22.52V226.5h59l9.75-9.75H294.5l10.625 10.625H349.5V221H360v6.5h14.5l8-8V147l-8-8z" fill="#cdcfcc" fill-rule="evenodd"/></svg>