<svg xmlns="http://www.w3.org/2000/svg" viewBox="0 0 300 300" height="300" width="300"><ellipse ry="63.623" rx="55.614" cy="202.157" cx="156.006" fill="#9d7b78" fill-rule="evenodd"/><path d="M136.017 260.911c-27.1 3.256-101.564-22.473-62.288-115.042l19.068 23.517c1.095-95.8 27.095-111.14 49.258-138.878 2.203 22.53.261 50.864 10.17 62.606 6.67-7.49 12.557-16.025 21.61-20.339-7.724 46.047 2.986 58.296 15.254 67.691 14.393-6.838 16.13-22.438 20.021-36.547-2.989 17.863 84.635 119.2-27.966 158.899 6.606-23.032 23.892-45.328 7.945-69.915l-14.936 8.58c-15.785-11.748-20.705-33.273-28.602-52.119-6.93-1.924-22.282 64.115-15.254 65.784 1.382.329-18.443-14.444-19.704-11.123-12.204 32.144 24.165 59.53 25.424 56.886z" fill="#fff" fill-rule="evenodd"/></svg>