<svg xmlns="http://www.w3.org/2000/svg" viewBox="0 0 300 300" height="300" width="300"><path d="M103.036 57.058l14.647 52.023 29.294 10.607 29.8-25.254 14.647 7.576 34.345-33.84 24.749 1.01 33.84 77.782-11.112 14.142h-16.162l-21.213 20.708-.505 9.092-42.932 24.748-3.535 51.518-18.688-2.02-48.488-40.406c-48.55 3.821-58.756-18.72-62.124-45.962L2.525 152.518c2.124-16.016 9.245-28.38 23.739-35.356l55.053 23.739 4.546-7.576-25.001-51.518c6.681-17.578 19.327-27.614 42.174-24.749z" fill="#edf5f8" fill-rule="evenodd"/><path d="M111.266 86.29c-13.503 5.79-26.387 12.656-37.704 21.69l7.352 15.145c9.144-9.677 20.56-16.859 34.84-20.896l-4.488-15.94zm-57.711 42.64c-7.594 10.65-13.551 23.457-17.26 39.127l18.02 8.293c3.892-15.07 9.168-28.62 16.4-40.022l-17.16-7.398z" fill="#c1c6c6" fill-rule="evenodd"/><path d="M210.714 147.5h54.643L237.5 89.286z" fill="#bdc5c8" fill-rule="evenodd"/></svg>