<svg xmlns="http://www.w3.org/2000/svg" width="302" height="115" viewBox="0 0 600.00001 300"><path d="M236.678 130.017c-10.1-.002-18.29 8.185-18.291 18.286.001.056.002.112.005.168h-12.89l-14.588 14.257h-60.352l-3.979 6.297H97.408v13.599l4.31 3.312v29.18l51.064-8.29v-5.967l39.788-4.972v7.29h54.38c-8.136 10.002-13.058 21.694-15.255 34.82l27.519 11.602 2.986-5.635-4.642-2.323c-.083-7.444-1.005-14.422 4.31-24.865h26.857l18.571-18.571h14.919v11.606h68.305v-12.93h78.582v-47.085H453.52l-4.973 5.304h-15.255l-1.987-3.317H320.89l-4.642-3.312H292.47c.002-.056.007-.112.01-.168 0-10.1-8.19-18.288-18.291-18.286-10.1 0-18.286 8.187-18.287 18.286l.005.168h-.952c.002-.056.007-.112.01-.168 0-10.099-8.187-18.285-18.286-18.286zm43.023 69.4h17.232l-8.56 10.435h-12.896z" fill="#c6c6c6" fill-rule="evenodd"/></svg>