<svg xmlns="http://www.w3.org/2000/svg" width="302" height="115" viewBox="0 0 600.00001 300"><path d="M248.606 131.23l-17.573 8.952v8.62h-9.946l-26.53-9.619-10.277 3.98h-47.084l-5.635 7.958h-26.53v38.794l4.646 3.98v35.813l15.25.331c18.363-2.552 36.458-8.618 54.38-16.91h44.76c-9.084 13.851-14.558 28.811-17.904 44.429l31.167 8.62 2.655-6.297-4.973-2.654c.96-9.979 2.914-19.53 6.96-28.187h34.489l13.925-16.91h33.82v-6.96h5.967v9.614h20.89l12.932-8.62h22.214v-6.966h7.296v4.978h16.911l4.973-20.558-4.973-29.511H357.03v5.966h-7.292v-7.959h-25.531v-6.297h-12.932l-24.869-14.587-10.282 6.96h-15.58l-11.938-6.96zm14.755 81.236h18.404l-8.458 10.776H259.88l3.48-10.776z" fill="#c7c7c7" fill-rule="evenodd"/></svg>