<svg xmlns="http://www.w3.org/2000/svg" width="302" height="115" viewBox="0 0 600.00001 300"><path d="M270.82 130.649c-9.66 0-17.492 7.83-17.491 17.491l-11.19.163-21.388-9.283-4.973 5.141h-54.874l-2.986 4.142h-25.364v37.47h4.143v39.787h18.072l37.633-17.74h56.204c-8.989 8.78-12.766 20.492-16.911 31.997l23.544 11.937 4.31-4.804-2.654-2.655c.956-8.003 2.364-15.9 6.965-23.045l27.02-2.318 13.93-15.795h25.363v-11.23h5.141v11.23h24.06l7.107-4.102H394v-9.12h7.296v8.621h16.91c4.041-14.772 4.22-29.95 0-45.591h-16.742v8.62h-7.128v-6.297h-35.482v-3.816H330.34v-3.149l-6.633-.163c0-9.66-7.831-17.492-17.492-17.491-9.66 0-17.492 7.83-17.491 17.491h-.413c0-9.66-7.83-17.492-17.491-17.491zm9.284 72.366h15.086l-7.128 9.782-12.6 1.656z" fill="#c7c7c7" fill-rule="evenodd"/></svg>