<svg xmlns="http://www.w3.org/2000/svg" width="302" height="115" viewBox="0 0 600.00001 300"><path d="M233.967 121.992l-37.123 14.76v3.226H185.55v11.067h-45.423v23.06l5.533 5.763v34.127h24.212l13.37-17.757h13.838v9.915h32.048c-11.523 16.507-18.713 34.099-23.29 52.342l40.354 10.838 2.995-7.378-4.381-1.845c.894-12.05 4.04-23.35 10.15-33.663h51.414l15.448-19.6h4.616v-9.223h68.708v-13.833l49.346 2.532v-14.062l6.456-12.224-6.456-19.83v-13.604h-14.526v3.46h-18.908v5.304h-28.13v-6.226l-56.031-1.845v-5.304h-92.925zm50.727 85.318h26.403l-9.568 11.989h-19.484l2.65-11.99z" fill="#c7c7c7" fill-rule="evenodd"/></svg>