<svg xmlns="http://www.w3.org/2000/svg" viewBox="0 0 600.00001 300" width="302" height="115"><path d="M355.101 92.06c3.351.18 4.519 2.288 5 5v11c-1.078 2.477-3.226 3.24-6 3v4h22l8-9h7l3 4h7l2-5h66c-19.715 25.63-38.729 50.039-49 87h-18l-1-3h-6l-3 4h-10l-8-12h-27c-1.398 7.645-6.892 11-14 11v18c-.418 3.846-2.704 5.513-6 6h-21c-2.424-.909-3.975-2.691-4-6v-16h-49v16c.025 4.264-1.898 5.282-4 6h-24c-2.517-.299-4.626-1.414-5-6v-11l-16-2-2-7h-13l-5-8-36-3-15-10v-32l13-12h53l7-7h37l16-9h41l7 6h23v-4c-2.829-.049-4.013-1.443-5-3v-11c.362-3.026 1.947-4.34 4-5z" fill="#c3c3c3" fill-rule="evenodd"/></svg>