<svg xmlns="http://www.w3.org/2000/svg" viewBox="0 0 300 300" height="300" width="300"><path d="M179.873 21.928l-40.36 36.308-7.628 1.034-15.254 17.32-30.508-31.145-10.117 9.438c3.657 15.162.36 24.42-21.689 22.246l-6.183 9.885L59.428 98.2l-5.403 7.309.635 15.256h9.217l6.992 13.982-12.394 12.711 21.609 21.293 8.898-12.076v33.685H68.326v34.323h18.115v20.658H46.398v15.254h174.153V245.34h-40.678v-20.658h17.797v-34.323h-18.107c9.95-37.827-4.972-61.029-21.184-84.742l33.244-44.824 11.45-14.713c3.397-4.243 6.063-9.05-1.59-18.432l-9.982.954zm-38.34 103.433c1.872-.038 9.83 1.091 17.791 21.608-16.643 3.91-23.239-8.038-18.203-21.573.001 0 .145-.03.412-.035z" fill="#fff" fill-rule="evenodd"/></svg>