<svg xmlns="http://www.w3.org/2000/svg" width="302" height="115" viewBox="0 0 600.00001 300"><path d="M228.235 126.97v6.094h-16.88v-5.625h-17.822v26.26h12.661v7.5h-22.036l-4.693 9.849h-55.802v7.031H99.752v13.599l5.116 7.52v23.046l91.513 4.81 20.06 6.796c-.082-8.558 1.228-16.768 3.647-24.7h34.484v-13.432h7.133v35.478h30.505v-6.797h-4.642v-30.836h8.784l3.317 6.965h96.486V188.59h84.39v4.31h28.018v-19.396H497.62v-19.565h-6.466l-3.48 19.896h-7.79v3.811h-58.528l-10.608-14.256H373.94l-2.486-4.81H320.89v-3.475H308.89l-3.755 6.563h-15.474v-7.969h11.255l8.443-21.685h-41.734v-5.044zm5.284 28.96h34.484l-2.986 6.798h-28.512zm2.155 39.788H250.1v9.284h-19.566zm-83.06 6.466h49.901l-7.29 15.917h-49.408z" fill="#c7c7c7" fill-rule="evenodd"/></svg>