<svg xmlns="http://www.w3.org/2000/svg" viewBox="0 0 300 300" height="300" width="300"><path d="M141.357 2.053c-14.115 17.665-30.675 27.436-31.373 88.45L97.84 75.526c-8.561 20.178-8.633 35.366-4.338 46.537H52.373c1.025 65.996 15.981 116.735 37.85 176.72h120.32c6.046-16.584 11.534-32.454 16.375-48.141 41.85-10.302 123.977-123.266 21.129-116.705.164-3.906.28-7.86.342-11.874h-48.022c11.192-28.9-17.679-65.017-16.3-73.255-2.479 8.985-3.585 18.922-12.753 23.277-7.813-5.984-14.636-13.784-9.716-43.111-5.766 2.747-9.516 8.182-13.764 12.953-6.31-7.479-5.074-25.524-6.477-39.873zm-5.449 130.705H164.184l43.918 26.623v60.53l14.564 18.657-34.588 29.356-5.008-5.461-14.562 19.113h-36.924l-14.563-19.113-5.007 5.46-34.586-29.355L91.99 219.91v-60.53l43.918-26.622zM254.7 149.4c47.234-.171 5.425 66.503-21.365 78.967 6.735-25.267 11.537-50.69 13.738-78.443 2.766-.346 5.304-.515 7.627-.524zm-135.86 66.87a13.88 13.88 0 0 0-13.878 13.878 13.88 13.88 0 0 0 13.879 13.883 13.88 13.88 0 0 0 13.883-13.883 13.88 13.88 0 0 0-13.883-13.878zm62.413 0a13.88 13.88 0 0 0-13.883 13.878 13.88 13.88 0 0 0 13.883 13.883 13.88 13.88 0 0 0 13.879-13.883 13.88 13.88 0 0 0-13.88-13.878zm-31.207 29.066l-9.318 14.644 5.148 2.895 2.736-4.424H151.48l2.737 4.424 5.148-2.895-9.32-14.644z" fill="#fff" fill-rule="evenodd"/></svg>