<svg xmlns="http://www.w3.org/2000/svg" viewBox="0 0 300 300" height="300" width="300"><path d="M90.093 133.183a24.44 24.44 0 0 0-24.438 24.44 24.44 24.44 0 0 0 15.478 22.713c-28.253 9.824-48.105 37.135-51.063 52.66-2.97 15.593 10.327 18.557 14.078 13.687 3.751-4.87 9.217-22.205 17.204-28.938v55.528h61.785v-54.88c9.05 10.26 12.821 21.237 16.685 28.476 2.679 5.02 16.485 5.356 14.27-13.556-2.205-18.822-27.417-44.135-54.998-52.975a24.44 24.44 0 0 0 15.44-22.715 24.44 24.44 0 0 0-24.44-24.44z" fill="#afcad1" fill-rule="evenodd"/><circle cx="89.74" cy="149.833" r="9.816" fill="#fff"/><path d="M164.246 32c-9.437-.041-18.906 2.547-28.064 7.99l6.238 8.44c7.157-3.766 14.517-5.57 21.865-5.528v-10.9l-.039-.002zm5.397.32v10.938c7.41.954 14.755 3.797 21.812 8.431l6.06-8.566c-8.956-6.074-18.364-9.757-27.872-10.803zm-37.961 10.596c-6.432 4.544-12.677 10.547-18.616 18.098l6.819 6.937c5.674-7.154 11.69-12.721 17.898-16.781l-6.101-8.254zm70.168 3.357l-6.04 8.534c6.846 5.313 13.359 12.386 19.336 21.091l8.32-6.472c-6.664-9.398-13.943-17.181-21.616-23.153zM109.818 65.35c-4.268 5.957-8.362 12.739-12.226 20.408l8.539 4.072c3.306-6.568 6.824-12.397 10.498-17.55l-6.81-6.93zm116.668 8.515l-8.392 6.528c5.25 8.391 10.024 18.14 14.166 29.166l10.193-4.498c-4.649-11.67-10.03-22.113-15.967-31.196zM95.252 90.576c-3.517 7.49-6.83 15.735-9.895 24.781L95 117.143c2.696-8.206 5.645-15.692 8.799-22.49l-8.547-4.077zm149.117 19.494l-10.29 4.54c3.28 9.481 6.1 19.857 8.38 31.068l11.404-2.655c-2.554-11.796-5.749-22.814-9.494-32.953zm10.572 38.203l-11.466 2.67c1.702 9.261 3.043 19.068 3.968 29.405l11.932-.676c-.983-10.972-2.48-21.452-4.434-31.399zm4.866 36.74l-11.946.676a387.913 387.913 0 0 1 1.067 27.526h-14.285l21.785 39.285 20-39.285h-15.713a349.51 349.51 0 0 0-.908-28.201z" fill="#afcad1" fill-rule="evenodd"/></svg>