<svg xmlns="http://www.w3.org/2000/svg" xmlns:xlink="http://www.w3.org/1999/xlink" width="300" height="300" viewBox="0 0 300 300"><path d="M250.375 17.23c-5.261-.003-10.805 2.096-16.158 7.24h-17.162L78.815 150.319l-10.489-7.31-15.89 15.89 7.31 10.17-45.445 21.291 13.347 24.471 32.098-11.44-1.906 2.86 13.346 13.348 21.293-13.348v9.852l-13.665 15.253c22.16-1.36 42.157 2.467 61.334 8.264v-5.72l-7.308-6.674.953-6.04-5.72-9.214v-13.348c3.744-5.726 10.564-10.812.634-19.387l59.598-51.312-19.543 144.885 17.078 1.35 16.271-120.944 47.1 91.055 15.28-2.471-57.936-121.61 1.215-9.023 62.675-53.963c16.839-7.607.57-39.96-20.07-39.973z" fill="#fff" fill-rule="evenodd"/><ellipse transform="rotate(43.362)" ry="8.729" rx="17.98" cy="-150.48" cx="212.041" fill="#9bb2bb" fill-rule="evenodd"/><path id="a" d="M160.223 276.405c17.325-13.409 30.113-9.594 41.797-2.247-15.395 12.993-28.772 9.09-41.797 2.247z" fill="#9bb2bb" fill-rule="evenodd"/><use height="100%" width="100%" transform="translate(73.033 -30.112)" xlink:href="#a"/><path d="M146.516 73.936l-58.653 56.628c-13.575 16.665-2.657 43.333 14.829 54.267l65.297-61.086-25.792-31.128 19.922-18.135c-5.201-1.023-10.402-.108-15.603-.546z" fill="#9bb2bb" fill-rule="evenodd"/></svg>