<svg xmlns="http://www.w3.org/2000/svg" width="302" height="115" viewBox="0 0 600.00001 300"><path d="M241.177 161.2v4.671c1.883.918 2.442 2.404 2.802 3.974h-18.694l-14.954 3.74v7.944c-11.14.213-22.244 1.304-32.95 11.917H106.58l-5.844 3.271v36.45c52.085 5.214 79.657-25.507 101.286-34.208l4.102 7.102h39.023v-9.813h18.928c112.665-8.704 148.746-1.135 191.378-4.906l3.27-3.974h10.517l2.802-7.475h18.694v-6.308h-30.84l-2.573-4.208H254.73c-1.153-4.342-3.899-6.187-6.547-8.178zm-23.835 35.048h22.78v7.246h-18.108c-3.31-2.299-3.517-4.804-4.672-7.246zm-13.09.82h7.832c-.008 2.448 1.526 4.433 3.037 6.426h-7.128z" fill="#c7c7c7" fill-rule="evenodd"/></svg>