<svg xmlns="http://www.w3.org/2000/svg" viewBox="0 0 300 300" height="300" width="300"><ellipse ry="39.407" rx="31.915" cy="198.305" cx="258.051" fill="#9cb3ba" fill-rule="evenodd"/><path d="M240.89 240.89l-61.017 27.33-5.085-6.356-17.796 5.085L27.33 127.754l10.169-7.627-13.983-13.983 3.178-5.72 7.627-.636V70.551L51.483 53.39l11.44-.636 12.713-6.991-6.356-8.899 20.339-14.618L96.61 33.05l3.178-1.271v-8.263h13.983V2.542h5.085v29.873l22.881 17.161-2.542 5.72 19.703 17.162h14.619l27.33 23.517L225 127.119l1.271 9.534 20.975 24.152 9.534-6.991 15.89 22.88-.636 22.247z" fill="#fff" fill-rule="evenodd"/><path d="M31.094 124.3c-9.416 8.963-8.336 5.901-8.35 22.84.011 20.005 9.3 33.33 25.395 35.626 1.478 20.303 15.253 35.863 31.763 35.879 4.53-.013 9.004-1.215 13.127-3.528-2.533 5.766-3.861 12.222-3.863 18.781 0 21.763 14.288 39.406 31.914 39.407 14.71-.021 27.504-12.454 30.977-30.104-2.204.126-4.019.08-4.6-.404l-51.164-63.56H85.17v-8.58l-31.873-37.74-14.533.494zM68.326 34.322c1.907-.636 22.564-19.068 25.106-17.479 2.543 1.59 12.712 9.534 12.712 9.534l13.665-1.589 28.284 20.975-2.224 39.724 36.864 41.473 8.898-4.926 7.15 9.534-9.374 4.767 7.627 9.057-14.301 8.104-7.945-8.263-9.534 5.085-7.627-8.263 9.216-6.038-45.445-47.034-28.284-3.814-23.517-18.114 4.132-24.47z" fill="#97aeb9" fill-rule="evenodd"/></svg>