<svg xmlns="http://www.w3.org/2000/svg" viewBox="0 0 300 300" height="300" width="300"><path d="M112.358 157.53l-34.507 28.764c-26.939-32.64-13.516-54.955-5.492-78.651-15.134-38.24.134-58.975 24.269-74.606l14.831 12.584c42.284-16.54 53.176 34.646 37.753 43.146l20.673 12.584 39.55-29.663 20.225 17.079-7.191 8.539c27.992 40.632 29.117 58.427 34.157 79.55l-8.989 84.493-20.224-4.045c-19.291-23.099-35.69-48.511-48.988-76.404l-8.09 7.64-26.067-.449z" fill="#fff" fill-rule="evenodd"/><path d="M78.65 58.205l-4.045 1.35c43.277 18.386 3.536 97.549-44.943 16.629l-2.92.449.225 21.572-18.428 17.527 52.135 86.291 26.965-19.775-23.819-38.65c64.308-.944 48.647-83.593 14.83-85.393zm33.258 47.191c1.831 14.31.324 29.096 19.776 40.899l41.347 31.908 12.135-14.83-33.258-29.213c-8.263 2.779-22.017 24.774-19.326-10.787zm129.887 71.909l-32.36 18.877c7.88 31.58 31.3 57.979 53.034 84.941l31.459-14.83c-3.331-61.453-26.339-78.373-52.133-88.988z" fill="#99adbc" fill-rule="evenodd"/></svg>