<svg xmlns="http://www.w3.org/2000/svg" width="302" height="115" viewBox="0 0 600.00001 300"><path d="M279 118l-11-15h-19c-12.012 16.05-26.91 26.858-40 28-13.903 1.62-22.743 6.616-28 14v13l-14 5v6H45v6h122v6l14 6v13c4.593 9.407 15.82 12.18 28 14 20.468 5.005 30.88 16.41 41 28h19l10-17h-17.1L217 205h265v-8h48v-7h9v6h6c8.976-15.253 8.032-30.549 0-45h-6v5h-9v-6h-48v-7H217l42-25z" fill="#c8c8c8" fill-rule="evenodd"/><path d="M202 149c-18.089 3.48-17.665 45.377 0 49l191-1v-47zm129 6h14v12h13v13h-13v12h-14v-12h-12v-13h12z" fill="#fff" fill-rule="evenodd"/></svg>