<svg xmlns="http://www.w3.org/2000/svg" width="302" height="115" viewBox="0 0 600.00001 300"><path d="M277.235 102.35v5.157h-7.969v-2.813l-36.343-.468-8.203 19.692 7.969 4.693-2.344 12.661h-42.437l-3.282 3.75H134.45l-6.328 6.328h-21.104v18.76l3.99 13.834-.235 28.604c13.087.273 25.42-1.261 35.4-8.443l19.224 71.744h7.974l24.854-15.24-15.708-62.654h43.375v9.95c-9.71 10.73-14.054 22.992-19.647 34.897l25.45 13.431 4.932-4.932-5.182-5.182c.526-14.088 10.03-24.72 18.358-35.808v2.94h10.318l5.864-15.005h44.078l13.364 8.671h87.922l.468-6.562h10.552l6.094-14.536 27.666 36.104h13.13l6.802 9.614-5.395 4.453 9.145 9.615 33.058-31.417-3.282-4.687v-7.271h-8.442v8.443l-10.547 7.265-45.724-51.817v-9.844h7.271l3.516 3.281h28.37v-14.302h-28.84l-2.577 3.282h-7.037v-32.823h-9.14v15.24l-7.505 18.52h-6.654l-7.47-7.47-7.474 7.47h-.296l-7.47-7.47-7.209 7.21-7.21-7.21-7.474 7.47h-1.585l-7.474-7.47-7.444 7.445-7.444-7.444-7.47 7.47h-4.779l-3.515-4.688h-13.365v-7.037l-35.105-1.61-1.707-6.358h15.005V102.35h-25.557z" fill="#c7c7c7" fill-rule="evenodd"/></svg>