<svg xmlns="http://www.w3.org/2000/svg" width="300" height="300" viewBox="0 0 300 300"><path d="M261.924 49.232c-.331-.01-.67-.002-1.014.026L214.568 70.27l-3.55-3.85h-24.79l-42.267 22.562h-27.012l-6.355 10.807H83.58c-11.057 2.191-17.013 9.25-18.75 20.338l-29.236 10.805v10.488l-18.75 6.037v47.67h21.29v17.797h108.052c4.752-.676 9.053-1.965 9.216-8.899l-2.224-29.236v-23.2l34.82-12.636-6.877 36.555-5.392-.9-10.788 60.673-5.392-1.797-3.596 13.483 27.416 7.191 12.135-75.054-5.395-1.35 8.32-40.465h32.567l15.451 41.58-5.254 1.815 18.65 73.707 26.682-9.56-4.76-13.118-5.216 2.264-16.049-59.498-5.295 1.367-17.176-47.739v-12.43l3.178-1.906V99.152l-12.414-13.46c10.134-3.778 22.548-8.42 31.8-11.963 15.216-5.826 11.588-24.167 1.33-24.497z" fill="#fff" fill-rule="evenodd"/></svg>