<svg xmlns="http://www.w3.org/2000/svg" width="300" height="300" viewBox="0 0 300 300"><path d="M258.381 72.37v8.694h-14.127v-7.607h-18.475v9.78H121.45V71.284L30.163 72.37v18.475H18.208v22.822H31.25v8.694h20.648v46.73h-5.434v43.47h11.954v26.083h-36.95v13.04h172.795v-13.04h-44.557v-24.996h20.648v-24.995h18.475v-28.256h-18.475V149.53H142.1v-11.955h10.867v-26.734l72.741-.247.072 7.42h19.561v-8.695h11.955v7.608h19.561v-7.607h9.781v-9.781h-9.78v-9.78h9.78v-8.695h-9.78V72.37zm-1.086 17.388v9.78h-13.041v-9.78zm-31.516 1.087v10.867h-72.813V90.845z" fill="#fff" fill-rule="evenodd"/></svg>