<svg xmlns="http://www.w3.org/2000/svg" xmlns:xlink="http://www.w3.org/1999/xlink" viewBox="0 0 300 300" height="300" width="300"><path d="M54.025 263.771H29.237v-44.81l-2.224-28.283 21.61-14.3L81.673 150v-48.94l27.331-20.34V70.233l16.843-15.254h17.161V27.966l16.844-15.572 112.182 2.542 8.58 7.945v176.377l-11.92 6.882h-34.478l-64.513 25.534v23.199l-50.847 13.347-17.797-6.356v17.48l4.132 8.898-5.72 5.402H78.495l-12.077-12.076 5.72-40.996h-7.944v8.263z" fill="#fff" fill-rule="evenodd"/><circle id="a" cx="213.827" cy="43.001" r="15.494" fill="#b6cbcc" fill-rule="evenodd"/><circle r="15.494" cy="44.35" cx="250.231" id="b" fill="#b6cbcc" fill-rule="evenodd"/><use height="100%" width="100%" transform="translate(.899 38.202)" id="c" xlink:href="#a"/><use height="100%" width="100%" transform="translate(.899 38.202)" id="d" xlink:href="#b"/><use height="100%" width="100%" transform="translate(.45 37.303)" id="e" xlink:href="#c"/><use height="100%" width="100%" transform="translate(.45 37.303)" id="f" xlink:href="#d"/><use height="100%" width="100%" transform="translate(0 35.955)" xlink:href="#e"/><use height="100%" width="100%" transform="translate(0 35.955)" xlink:href="#f"/></svg>