<svg xmlns="http://www.w3.org/2000/svg" xmlns:xlink="http://www.w3.org/1999/xlink" viewBox="0 0 300 300" height="300" width="300"><defs><linearGradient id="a"><stop offset="0" stop-color="#a0827f"/><stop offset="1" stop-color="#b49490" stop-opacity="0"/></linearGradient><linearGradient gradientTransform="translate(-1.124 -1.124)" gradientUnits="userSpaceOnUse" y2="9.774" x2="37.852" y1="86.851" x1="91.445" id="b" xlink:href="#a"/></defs><path d="M300 300V191.95L20.021 300z" fill="#ba8180" fill-rule="evenodd"/><g id="c" fill-rule="evenodd"><path d="M84.718 89.89l11.46-8.988L41.799 6.97l-6.967 4.494z" fill="url(#b)"/><path d="M102.966 118.538l68.962 101.695c16.143 7.672 28.282 9.697 21.292-15.254l-71.822-94.704 2.543-22.245-9.518-10.921-10.821 9.332-7.31-8.263-14.3 10.487 5.402 7.627-15.572 3.178 11.44 14.937z" fill="#b49490"/><path d="M154.178 153.498c-8.751 1.58-14.897 5.765-20.157 10.836l15.483 22.832c5.873-6.476 12.956-10.413 21.256-11.805l-16.582-21.863z" fill="#fff"/></g><use height="100%" width="100%" transform="translate(15.28 -119.998)" xlink:href="#c"/><use height="100%" width="100%" transform="scale(1.22157) rotate(8.852 517.567 -642.408)" xlink:href="#c"/></svg>