<svg xmlns="http://www.w3.org/2000/svg" xmlns:xlink="http://www.w3.org/1999/xlink" width="300" height="300" viewBox="0 0 300 300"><path d="M254.555 58.793l-5.721 4.766h-27.648l-6.038-4.45-36.228 20.34h-7.31l-29.794 17.082-10.248-10.25h-14.46l-9.057 9.059H96.293l-6.357 5.402-1.588 13.983-7.309 5.72h-5.404l-.953 12.711-21.291 8.264-16.844-6.674v6.037l-20.975 16.844 15.889 37.182 13.348.318 4.449 8.422h6.197l7.15-7.15L75 215.782h19.385l13.031-19.385c7.861 10.79 12.468 24.642 34.004 22.563h43.22v-30.826c16.065 2.076 20.345-6.021 17.796-20.02l71.505-19.386-3.814-12.077 5.72-8.261-5.72-55.934-15.572-13.664zM117.977 95.508l7.414 6.068-15.504 7.865-1.35-8.539 9.44-5.394z" fill="#fff" fill-rule="evenodd"/><circle r="12.235" cy="88.506" cx="226.748" id="a" fill="#b6cbcc" fill-rule="evenodd"/><use height="100%" width="100%" transform="translate(29.237 -4.45)" xlink:href="#a"/><use height="100%" width="100%" transform="translate(4.131 30.19)" xlink:href="#a"/><use height="100%" width="100%" transform="translate(33.05 25.742)" xlink:href="#a"/></svg>