<svg xmlns="http://www.w3.org/2000/svg" viewBox="0 0 600.00001 300" height="115" width="302"><path d="M363.001 149.796v4.31h-23.84v4.367l-3.353 1.931h-11.932v-4.973h-17.91v4.973h-5.304l-2.65 2.655h-54.38c-.002-5.745-1.324-10.175-6.302-10.945h-15.912c-6.47.805-3.79 7.1-4.641 11.276h-9.289v5.966h-87.865l-.994-3.311H100.72l16.58 49.733h15.417l-3.81-13.925c12.083-10.128 27.772-17.452 43.766-24.538l34.815-.662v5.304l-3.312 3.648v17.241l4.31 4.642h18.567l8.621-6.297h5.635v6.297l-12.6 29.842 24.87 7.296 2.323-7.296-3.98-2.318 6.96-21.552h41.45l6.633-10.945h7.953v61.345c.89 1.734 2.25 3.13 5.31 3.312h16.91c2.851-.165 3.594-1.97 3.648-4.31v-61.01l9.615 8.953h17.242l7.296-9.283v-15.586l-3.98-4.31v-3.98h22.546l4.973 3.317h17.904v-16.58h-19.228l-2.655 4.973H370.46v-6.797l-3.81-3.81v-8.953H363zm-208.894 27.356c-10.997 4.128-20.127 9.647-27.687 14.918l-4.31-14.587 31.997-.331zm122.517 25.694h12.85l-5.804 6.797h-7.46l.414-6.797z" fill="#c7c7c7" fill-rule="evenodd"/></svg>