<svg xmlns="http://www.w3.org/2000/svg" width="300" height="300" viewBox="0 0 300 300"><path d="M184.322 28.92V57.52h-10.646v7.15h10.646v37.977H173.2V85.486l-75 6.993v11.123l-4.13 8.58H89.3l-.319 10.804H75.953l-13.982 17.162-25.106 3.497v52.119l23.47-1.268 28.878-11.91c-4.805 19.688-6.176 39.148-6.518 58.539l20 13.932 11.573-9.213-3.145-5.955c.056-8.74-.167-17.505 3.37-25.955h19.325v-12.135h12.36v4.943c.444 2.774-.19 5.967 5.392 6.742h21.91c4.7.221 5.143-3.282 5.122-7.191v-4.492h44.492c11.761-6.671 20.954-15.911 22.88-32.416l16.526-6.356c19.57-18.683 16.36-43.941-10.17-50.818h-19.584l-5.521-9.563h-2.383V28.92h-40.52zm5.721 4.926h26.377V57.52h-26.377V33.846zm0 30.826h26.377V95.34h-26.377V64.672zm-37.012 28.814l.45 6.74-41.844 9.69-1.526-10.588 42.92-5.842z" fill="#fff" fill-rule="evenodd"/><circle r="20.224" cy="137.98" cx="249.435" opacity=".432" fill="#c7c7c7" fill-rule="evenodd"/></svg>