<svg xmlns="http://www.w3.org/2000/svg" viewBox="0 0 300 300" height="300" width="300"><path d="M300 300H103.37C147.032 208.342 135.44 184.173 300 160.676z" fill="#b88584" fill-rule="evenodd"/><path d="M-8.703 9.171l-.325 82.998L147.17 210.235c-10.454 10.79-14.83 21.213-11.017 26.245 5.105 6.737 23.022 1.759 40.02-11.12 17-12.879 26.643-28.782 21.54-35.52-4.66-6.115-18.488-3.485-34.415 7.345z" fill="#ba9f9c" fill-rule="evenodd"/><path d="M-8.988 33.486l5.392 46.743L153.008 205.94a8.963 22.614 52.85 0 0-6.451 15.37 8.963 22.614 52.85 0 0 23.435-6.512 8.963 22.614 52.85 0 0 12.613-20.8 8.963 22.614 52.85 0 0-21.074 4.827L-8.989 33.486zM167.639 86.969l-5.844 9.437L174.83 140.9l1.797-50.785-8.988-3.146zm52.132 19.775l-11.234 6.742-13.933 48.537 27.416-42.695-2.249-12.584zm-168.537 54.83l-14.38.9 3.595 10.786s30.112 5.843 33.707 6.293l-22.922-17.979zm213.932 14.832s-38.651 15.281-40.898 16.18l52.582-5.393.9-8.99-12.584-1.797zM47.641 209.664l-21.125 6.742 22.023 13.483 64.268-11.237-65.166-8.988zm200.445 3.596s-27.864 6.292-29.662 7.191l29.662 7.64 8.539-7.19-8.54-7.641zm-85.39 11.685l-16.18 28.764 4.494 18.426 12.135-14.381-.45-32.809zm-70.112 24.72l-62.922 26.964.899 6.742 6.742 2.697 55.281-36.404z" fill="#fff" fill-rule="evenodd"/></svg>