<svg xmlns="http://www.w3.org/2000/svg" viewBox="0 0 600.00001 300" width="302" height="115"><path d="M511.494 16.875h-138.11l2.434 17.648h-99.103l-7.079-10.59H108.004L95.027 76.879H61.992l-4.719 30.59h36.574l16.517 20.001h14.157l-1.18 21.178c-22.314 22.363-60.106 93.127-56.63 105.888 2.523 9.258 82.756 48.299 96.306 12.974 2.696-7.028-19.24-21.373-9.922-52.094l22.12-36.178h68.208l16.13-50.591h71.432l8.259 21.177H478.46v-23.53h40.113l4.59-27.06h29.624V46.287h-38.934zM218.656 129.822h20.117l-7.185 32.943h-22.034c.244-11.543.164-22.639 9.102-32.943z" fill="#c3c3c3" fill-rule="evenodd"/></svg>