<svg xmlns="http://www.w3.org/2000/svg" viewBox="0 0 600.00001 300" height="115" width="302"><path d="M490.185 113.494a70.24 70.24 0 0 0-40.282 22.077 14.616 14.616 0 0 1 4.066 10.093 14.616 14.616 0 0 1-14.618 14.613 14.616 14.616 0 0 1-3.755-.494 70.24 70.24 0 0 0-3.913 22.866 70.24 70.24 0 0 0 5.156 26.291 14.616 14.616 0 0 1 2.512-.234 14.616 14.616 0 0 1 14.618 14.618 14.616 14.616 0 0 1-2.471 8.111 70.24 70.24 0 0 0 38.468 20.426 14.616 14.616 0 0 1 13.803-9.859 14.616 14.616 0 0 1 13.527 9.1 70.24 70.24 0 0 0 36.491-21.195 14.616 14.616 0 0 1-2.022-7.388 14.616 14.616 0 0 1 14.617-14.613 14.616 14.616 0 0 1 1.06.05 70.24 70.24 0 0 0 4.723-25.307 70.24 70.24 0 0 0-4.065-23.294 14.616 14.616 0 0 1-1.718.122 14.616 14.616 0 0 1-14.617-14.618 14.616 14.616 0 0 1 2.817-8.6 70.24 70.24 0 0 0-37.515-22.103 14.616 14.616 0 0 1-13.298 8.575 14.616 14.616 0 0 1-13.584-9.237zm35.86 14.526a14.616 14.616 0 0 1 14.617 14.612 14.616 14.616 0 0 1-14.617 14.618 14.616 14.616 0 0 1-14.613-14.618 14.616 14.616 0 0 1 14.613-14.612zm-46.356.8a14.616 14.616 0 0 1 14.618 14.618 14.616 14.616 0 0 1-14.618 14.612 14.616 14.616 0 0 1-14.613-14.612 14.616 14.616 0 0 1 14.613-14.618zm70.236 39.553a14.616 14.616 0 0 1 14.618 14.613 14.616 14.616 0 0 1-14.618 14.618 14.616 14.616 0 0 1-14.613-14.618 14.616 14.616 0 0 1 14.613-14.613zm-94.117.8a14.616 14.616 0 0 1 14.618 14.618 14.616 14.616 0 0 1-14.618 14.613 14.616 14.616 0 0 1-14.612-14.613 14.616 14.616 0 0 1 14.612-14.618zm70.237 40.119a14.616 14.616 0 0 1 14.617 14.618 14.616 14.616 0 0 1-14.617 14.612 14.616 14.616 0 0 1-14.613-14.612 14.616 14.616 0 0 1 14.613-14.618zm-46.356.805a14.616 14.616 0 0 1 14.618 14.613 14.616 14.616 0 0 1-14.618 14.617 14.616 14.616 0 0 1-14.613-14.617 14.616 14.616 0 0 1 14.613-14.613z" fill="#c7c7c7"/><path d="M314.475 98.218l-57.61 10.216-5.676 9.085H48.27l-10.786-9.365c-3.507-1.3-5.194.354-5.676 3.969l5.701 11.23-2.196 8.198-5.773-1.544-18.734 14.755-26.108.851-3.403 4.825c9.992 2.583 19.93 4.102 30.081 9.93L-6.22 171.156l-.851 13.054c-5.43-1.5-9.968.73-14.47 3.123.242 3.972 4.173 7.274 8.514 10.5-8.808 9.733-16.344 32.871-23.56 59.313l-5.676 15.611h54.207l6.812-15.326c-3.115-13.125.11-62.9 24.976-38.03h36.323l22.704-14.475h20.437l-.286 5.676 24.977-.28c8.787-19.371 20.398-25.665 33.77-29.801h129.981l14.19-26.959v-23.554l-6.527-6.812 1.131-12.488-5.956-12.489zM70.71 188.927c6.859-.027 13.858 4.399 17.578 16.992l-7.806 6.246-23.84-.285c-11.622-6.63.974-22.903 14.068-22.953z" fill="#c7c7c7" fill-rule="evenodd"/></svg>