<svg xmlns="http://www.w3.org/2000/svg" viewBox="0 0 600.00001 300" height="115" width="302"><path d="M-35.717 88.084l-.402 5.62c-11.53 3.72-17.583 13.596-12.04 36.522l.403 8.03 18.566 2.588-17.767 10.257v38.126h20.87L-9.63 202.47l-26.087 65.02 48.964 13.246.403-10.837-5.218-2.41 9.233-43.344h72.64v12.845h54.187l51.772-11.24c3.79-2.396 2.447-6.256 2.812-9.63v-84.288h-83.08l-2.41 6.022-16.855-9.63-4.015 11.235-4.015.403-2.405-18.465-10.038-2.807-.397 6.42-51.776-15.653.805-4.815-60.607-16.457zm509.47 22.46c-14.637.073-30.79 3.548-48.031 12.08 9.674 5.092 22.143 8.323 25.542 17.598-58.667 6.102-144.439 28.2-158.06 36.11 17.027 7.766 99.393 30.007 158.06 36.109-3.399 9.275-15.868 12.501-25.542 17.593 68.961 34.128 120.556-12.609 127.143-34.621 17.306-9.611 12.522-32.441 0-38.163-4.94-16.51-35.199-46.927-79.112-46.707zm14.404 14.918c15.768.94 25.438 7.43 32.925 15.897-7.122-2.2-13.973-3.736-19.586-2.273-2.882-6.626-8.278-9.902-13.339-13.624zM49.372 203.876h27.493v12.442H49.372v-12.442zm471.71 8.63c-7.487 8.468-17.157 14.953-32.925 15.892 5.06-3.721 10.457-6.992 13.34-13.619 5.612 1.463 12.463-.073 19.585-2.272z" fill="#dcdcdc" fill-rule="evenodd"/></svg>