<svg xmlns="http://www.w3.org/2000/svg" width="302" height="115" viewBox="0 0 600.00001 300"><path d="M200.528 122.609c-11.045 2.363-23.885 33.942.994 36.802-4.972 1.611-8.728 3.918-10.608 7.296v23.87l23.208 9.62c-3.877 5.296-7.552 10.794-7.959 19.56l-69.96-32.491h-20.89c-1.609 19.354-8.176 35.875-15.918 51.725l96.492 6.135 27.686 9.614 3.15-5.635-3.98-2.323c-.334-10.92 1.916-20.733 4.642-30.342l33.82-2.155 11.607 11.275h67.307l.999-4.473h82.393l2.323 2.65h34.152c10.79-3.331 21.573-6.68 31.498-12.6v-59.685h-50.563l-17.08 11.938v4.479h-6.796v-4.642h-13.426v4.642h-13.594v-4.642h-13.43v4.642h-12.6v-4.642h-13.431v4.642h-9.778v-4.48c-31.16.533-46.939-6.858-63.994-13.593-4.777 3.639-4.772 9.07-6.303 13.925v-19.229l-4.973-1.33-1.992 4.978-31.498-8.62 1.661-5.972zm48.74 78.082h10.944v9.284h-16.085c.952-3.285.867-6.83 5.141-9.284z" fill="#c7c7c7" fill-rule="evenodd"/></svg>