<svg xmlns="http://www.w3.org/2000/svg" xmlns:xlink="http://www.w3.org/1999/xlink" viewBox="0 0 400 200" height="200" width="400"><g transform="matrix(.6747 0 0 .6747 -275.472 -73.789)" id="a"><path d="M481.282 119.254a22.321 22.321 0 0 0-22.32 22.322 22.321 22.321 0 0 0 14.136 20.744c-25.804 8.973-43.935 33.916-46.636 48.096-2.713 14.24 9.431 16.948 12.857 12.5s8.418-20.28 15.713-26.43v50.715h56.43v-50.123c8.264 9.37 11.71 19.397 15.238 26.008 2.447 4.585 15.056 4.892 13.033-12.38-2.014-17.191-25.04-40.31-50.23-48.384a22.321 22.321 0 0 0 14.101-20.746 22.321 22.321 0 0 0-22.322-22.322z" fill="#b9b9b9" fill-rule="evenodd"/><circle cx="480.959" cy="134.461" r="8.965" fill="#fff"/></g><use height="100%" width="100%" transform="translate(100)" xlink:href="#a"/><use height="100%" width="100%" transform="translate(200)" xlink:href="#a"/><use height="100%" width="100%" transform="translate(300)" xlink:href="#a"/><g id="b" transform="matrix(.6747 0 0 .6747 -275.472 26.211)"><path d="M481.282 119.254c-12.328 0-22.32 9.995-22.32 22.322a22.321 22.321 0 0 0 14.136 20.744c-25.804 8.973-43.935 33.916-46.636 48.096-2.713 14.24 9.431 16.948 12.857 12.5s8.418-20.28 15.713-26.43v50.715h56.43v-59.783c28.379-16.037 22.66-54.887 3.99-57.361-9.896-1.312-14.26 7.869-5.89 14.482 11.88 9.39 3.615 24.644-20.06 17.783a22.321 22.321 0 0 0 14.102-20.746c0-12.328-9.994-22.322-22.322-22.322z" fill="#b9b9b9" fill-rule="evenodd"/><circle r="8.965" cy="134.461" cx="480.959" fill="#fff"/></g><use height="100%" width="100%" transform="translate(100)" xlink:href="#b"/><use height="100%" width="100%" transform="translate(200)" xlink:href="#b"/><use height="100%" width="100%" transform="translate(300)" xlink:href="#b"/><g style="line-height:125%" font-weight="400" font-size="40" font-family="sans-serif" letter-spacing="0" word-spacing="0" fill="#fff"><path d="M354.09 75.14v-11.4l-10.48 11.4h10.48zm-16.84-.92l15.04-16.4h7.48v17.32h3.52v4.72h-3.52v4.64h-5.68v-4.64h-16.84v-5.64zm-97.46 5.56h11.44q2.32 0 3.28-.72t.96-2.44q0-.96-.36-1.68-.36-.76-1.04-1.12-.36-.2-1.12-.32-.76-.12-1.72-.12h-8.92v-4.72h8.92q1.48 0 2.16-.12.72-.16 1.2-.56.4-.32.6-.96.24-.64.24-1.36 0-.84-.36-1.52-.32-.72-.92-1.12-.44-.32-1-.4-.56-.08-1.92-.08h-11.44v-4.72h12.44q1.36 0 2.16.04.84.04 1.32.12.52.04.88.16.36.08.84.28 1.92.8 3.08 2.68 1.16 1.84 1.16 4.08 0 1.92-.88 3.36-.84 1.4-2.68 2.44 3.6 2.32 3.6 6.44 0 1.88-.76 3.32-.72 1.44-2.12 2.36-.68.44-1.32.72-.64.24-1.48.4-.84.16-1.92.24-1.08.04-2.6.04h-11.72v-4.72zm-78.06 0v4.72h-23.08v-7.08q0-2.4.56-4.04.56-1.64 1.72-2.8.52-.52 1.04-.88.56-.36 1.28-.52.72-.2 1.64-.28.96-.08 2.36-.08h4.36q.96 0 1.88-.16.92-.2 1.36-.44 1.32-.8 1.32-2.4 0-.88-.4-1.6-.36-.76-1-1.12-.44-.24-1.32-.4-.88-.16-1.84-.16h-12.52v-4.72h13.72q2.76 0 4.48.44 1.72.44 2.8 1.4 1.08.96 1.68 2.56.64 1.56.64 3.36 0 2.44-.88 4.24-.84 1.8-2.36 2.64-2 1.08-5.96 1.08h-3.76q-2.08 0-3.08.28t-1.44.96q-.24.36-.44 1.16-.16.76-.16 1.48v2.36h17.4zM47.47 84.5V57.82h5.68V84.5h-5.68z" style="-inkscape-font-specification:'Handel Gothic D Bold'" id="c" font-weight="700" font-family="Handel Gothic D"/><use height="100%" width="100%" transform="translate(0 100)" xlink:href="#c"/></g></svg>