<svg xmlns="http://www.w3.org/2000/svg" xmlns:xlink="http://www.w3.org/1999/xlink" viewBox="0 0 600.00001 300" height="115" width="302"><defs><linearGradient id="a"><stop offset="0" stop-color="#dfdfdd"/><stop offset="1" stop-color="#797979"/></linearGradient><linearGradient gradientUnits="userSpaceOnUse" y2="61.258" x2="140.027" y1="61.258" x1="18.187" id="b" xlink:href="#a"/></defs><path d="M301.135 92.26l28.948 59.597 76.625 1.703-57.895 43.705 30.083 81.734-76.058-51.652-77.193 54.49 33.488-81.167-63.571-47.678 75.49.568z" fill="#fff" fill-rule="evenodd"/><path d="M301.568 113.288l22.67 46.675 60.012 1.333-45.342 34.23 23.56 64.011-59.567-40.452-60.455 42.675 26.227-63.568-49.787-37.34 59.122.444z" fill="#969696" fill-rule="evenodd"/><path d="M288.332 149.302v9.65l4.54 37.745h14.791l4.54-37.745v-9.65h-23.871zm1.167 53.07v14.19h21.853v-14.19h-21.853z" fill="#fff" fill-rule="evenodd"/><path id="c" transform="matrix(2.6087 0 0 2.6087 -93.913 0)" d="M19.04 47.55l4.132 7.397h112.707l3.371-7.396H19.04zm12.944 10.335l4.133 6.636h72.346l-8.268-6.636h-68.21zM64.186 68.22l3.808 6.744h54.72l-8.702-6.744H64.186z" fill="url(#b)" fill-rule="evenodd"/><use height="100%" width="100%" transform="matrix(-1 0 0 1 599.149 0)" xlink:href="#c"/></svg>