<svg xmlns="http://www.w3.org/2000/svg" viewBox="0 0 300 300" height="300" width="300"><path d="M300 300H103.37C147.032 208.342 135.44 184.173 300 160.676z" fill="#b88584" fill-rule="evenodd"/><path d="M-18.8 20.307l-8.923 10.459 41.12 35.076 8.921-10.46L-18.8 20.308zm55.407 47.265l-8.921 10.46 53.826 45.915 8.922-10.459-53.827-45.916zm67.858 57.885l-8.922 10.459L133.27 168.1l8.921-10.46-37.726-32.183zm48.185 41.106l-8.921 10.458 42.869 36.57 8.922-10.458-42.87-36.57z" fill="#fff" fill-rule="evenodd"/><path d="M147.817 162.965l-11.373 10.3 4.225 3.033a46.405 77.563 64.355 0 0-26.658 59.819l-16.894 12.819L104 259.973l18.048-13.327a46.405 77.563 64.355 0 0 82.314-1.4 46.405 77.563 64.355 0 0 7.685-4.04l21.047 18.2 21.208-20.57-19.8-13.979a46.405 77.563 64.355 0 0 19.7-55.015 46.405 77.563 64.355 0 0-15.517-14.676l15.26-12.105-14.144-4.26-14.672 12.054a46.405 77.563 64.355 0 0-53.854 7.58 46.405 77.563 64.355 0 0-7.08 3.143 46.405 77.563 64.355 0 0-10.352 5.63l-6.025-4.243zm25.285 2.361a36.935 61.734 64.355 0 1 41.896-6.149l-6.304 5.18 10.625 6.17 8.897-7.057a36.935 61.734 64.355 0 1 10.889 10.935 36.935 61.734 64.355 0 1-14.994 43.12l-12.677-8.95-18.858 15.795 9.863 8.529a36.935 61.734 64.355 0 1-3.001 1.52 36.935 61.734 64.355 0 1-63.975 2.319l8.892-6.565-7.867-11.113-9.333 7.082a36.935 61.734 64.355 0 1 19.919-45.243l4.21 3.024 11.506-10.413-2.555-1.8a36.935 61.734 64.355 0 1 7.231-3.883 36.935 61.734 64.355 0 1 5.636-2.5z" fill="#fff" fill-rule="evenodd"/></svg>