<svg xmlns="http://www.w3.org/2000/svg" width="300" height="300" viewBox="0 0 300 300"><path d="M153.152 38.43l-7.74 28.886a75 76.112 0 0 0-21.459 9.03L97.913 61.31 83.194 76.027l15.348 26.582a75 76.112 0 0 0-8.143 20.243l-29.921 8.017v20.813l29.937 8.021a75 76.112 0 0 0 8.094 20.012l-15.383 26.644 14.717 14.717 26.101-15.07a75 76.112 0 0 0 21.014 8.95l7.727 28.837h20.812l7.72-28.816a75 76.112 0 0 0 21.397-9.15l26.125 15.083 14.057-14.055L227.4 180.19a75 76.112 0 0 0 8.461-20.94l29.98-8.034v-19.88l-29.933-8.02a75 76.112 0 0 0-8.54-21.18l15.359-26.604-14.057-14.056-26.14 15.091a75 76.112 0 0 0-21.757-9.244l-7.742-28.892h-19.879zm9.942 47.877a54.087 54.89 0 0 1 54.086 54.89 54.087 54.89 0 0 1-54.086 54.889 54.087 54.89 0 0 1-54.088-54.889 54.087 54.89 0 0 1 54.088-54.89z" fill="#8ba4ab" fill-rule="evenodd"/><path d="M80.313 103.203c-16.755.241-32.382 10.504-35.3 26.457-6.012 32.879 11.43 64.227 78.342 114.79l.167.253.167-.254c66.912-50.562 84.354-81.91 78.341-114.789-5.997-32.796-65.702-41.542-78.509 11.41-6.577-27.194-25.518-38.121-43.208-37.867z" fill="#fff" fill-rule="evenodd"/></svg>