<svg xmlns="http://www.w3.org/2000/svg" width="300" height="300" viewBox="0 0 300 300"><path d="M96.629 48.318c-15.239 8.945-31.665 22.7-41.123 33.258-9.458 10.56-11.57 31.975-27.64 97.977-16.072 66.001-1 86.393 22.02 94.38 23.022 7.988 35.647 10.115 59.776-7.64l77.3 5.842 76.405-38.201-8.539-102.022s-33.706-72.808-34.605-74.605c-.9-1.798-123.594-8.989-123.594-8.989zM91.12 76.154c.482-.007.97.004 1.463.03.3 68.913 11.45 137.961 0 172.806-16.077 24.37-52.309 2.479-53.482-6.068-1.174-8.547-4.289-27.452 3.369-64.27C50.009 142.41 60.73 76.618 91.12 76.154z" fill="#b2c9d1" fill-rule="evenodd"/><path d="M92.583 44.947l74.83-20 67.415 1.124c8.948 5.489 17.223 12.036 22.023 24.045l6.966 86.74-25.843 12.584 2.697 27.19-24.719 9.664-2.022-26.292-47.415 2.247-2.697-73.257c-3.431-12.366-9.209-23.643-29.213-28.315l-35.28-3.146c-4.625-2.836-6.295-7.36-6.742-12.584z" fill="#fff" fill-rule="evenodd"/></svg>