<svg xmlns="http://www.w3.org/2000/svg" width="300" height="300" viewBox="0 0 300 300"><path d="M221.186 37.5A57.203 66.102 0 0 0 171.7 70.564h-14.625l-12.584 11.012h-7.865l-.225-15.955h-21.347L98.518 84.047v18.283l-34.58 24.363a39.407 46.398 0 0 0-3.557-.21 39.407 46.398 0 0 0-39.406 46.398 39.407 46.398 0 0 0 39.406 46.398 39.407 46.398 0 0 0 27.115-12.761h10.48v22.023l9.438 21.572h17.078v-5.843h25.62c4.044 0 0-42.696 0-42.696l11.195-8.09v-25.642l29.927-8.02a57.203 66.102 0 0 0 29.952 9.881 57.203 66.102 0 0 0 57.205-66.101A57.203 66.102 0 0 0 221.186 37.5z" fill="#fff" fill-rule="evenodd"/><ellipse ry="47.19" rx="45.617" cy="104.497" cx="221.795" fill="#9db6bb" fill-rule="evenodd"/></svg>