<svg xmlns="http://www.w3.org/2000/svg" viewBox="0 0 600.00001 300" height="115" width="302"><path d="M217.45 142.913l-9.284 8.463-1.503 5.604h-25.318l-3.755 3.282h-52.515v3.75H103.97v41.734l23.447-1.875 37.98-12.193h54.864c-9.618 12.71-12.866 24.145-16.412 35.64l25.792 10.318 2.812-6.099-5.625-4.687c.107-8.15 2.548-15.3 7.031-21.573h24.854l13.13-13.13h37.516l12.192-6.563h73.15v-7.974H505.37v-12.66H345.932v-4.688H296.23l-5.162-6.094h-32.354v-11.255zm28.369 47.359h17.817l-7.734 8.677h-13.833z" fill="#c7c7c7" fill-rule="evenodd"/></svg>