<svg xmlns="http://www.w3.org/2000/svg" viewBox="0 0 600.00001 300" height="115" width="302"><path d="M310.277 139.85l-4.642 9.946h-51.063v-4.31h-47.746l-16.91 10.939v6.134h-28.019c-.844-3.436-2.804-3.512-4.473-4.473h-54.38v53.713h21.552l54.38-11.602h24.87v8.62c-10.397 12.73-14.531 25.979-19.897 39.126l26.856 9.615 2.986-6.298-3.317-1.992c1.696-10.14 4.298-20.48 9.945-31.498h27.855l5.636-20.228h4.31v62.67h29.511v-61.014h5.971v10.282h25.863l14.588 5.635h37.138v-13.924h26.525v-7.628h12.931v-18.898h-12.931v-3.979h17.904V150.46h-17.904v-3.317H378.25v-7.291h-67.974zm-77.588 58.686h12.93l-2.317 13.93h-17.573c1.424-4.343 2.938-8.721 6.96-13.93z" fill="#c7c7c7" fill-rule="evenodd"/></svg>