<svg xmlns="http://www.w3.org/2000/svg" viewBox="0 0 600.00001 300" height="115" width="302"><path d="M308.62 141.506l-3.316 10.278h-50.732v-6.298h-47.746l-16.91 10.939v6.134h-28.019c-.844-3.436-2.804-3.512-4.473-4.473h-54.38v53.713h21.552l54.38-11.602h24.87v8.62c-10.397 12.73-14.531 25.979-19.897 39.126l26.856 9.615 2.986-6.298-3.317-1.992c1.696-10.14 4.298-20.48 9.945-31.498h27.855l5.36-19.234h39.732v11.275h85.883l13.925 6.63h72.947v-13.926h26.525v-8.29h12.27v-17.241h-12.601v-5.304h17.242v-20.89h-17.904v-3.317h-19.566v-5.967zm-75.931 57.03h12.93l-2.317 13.93h-17.573c1.424-4.343 2.938-8.721 6.96-13.93z" fill="#c7c7c7" fill-rule="evenodd"/></svg>