<svg xmlns="http://www.w3.org/2000/svg" width="300" height="300" viewBox="0 0 300 300"><path d="M36.404 258.203c6.169-286.126 217.146-285.623 224.716 0z" fill="#fff" fill-rule="evenodd"/><path d="M52.955 258.24c5.265-268.615 187.78-264.553 194.792 0z" fill="#7b99a1" fill-rule="evenodd"/><g transform="translate(60.62 -16.128)"><path d="M90.093 133.183a24.44 24.44 0 0 0-24.438 24.44 24.44 24.44 0 0 0 15.478 22.713c-28.253 9.824-48.105 37.135-51.063 52.66-2.97 15.593 10.327 18.557 14.078 13.687 3.751-4.87 9.217-22.205 17.204-28.938v55.528h61.785v-54.88c9.05 10.26 12.821 21.237 16.685 28.476 2.679 5.02 16.485 5.356 14.27-13.556-2.205-18.822-27.417-44.135-54.998-52.975a24.44 24.44 0 0 0 15.44-22.715 24.44 24.44 0 0 0-24.44-24.44z" fill="#bbd4db" fill-rule="evenodd"/><circle cx="89.74" cy="149.833" r="9.816" fill="#dff2f8"/></g></svg>