<svg xmlns="http://www.w3.org/2000/svg" viewBox="0 0 300 300" height="300" width="300"><path d="M96.928 73.094l-1.588 22.88-5.404-5.72-12.393 7.945 4.45 5.084-16.21 5.086-.316 11.123 20.02-.637.954 17.479 13.664-12.076 66.014 68.617c5.237-10.42 13.59-18.835 23.828-24.002l-68.549-58.916-1.271-4.766 8.58-.636V93.432l-23.834-.635-1.906-19.703z" fill="#b19591" fill-rule="evenodd"/><path d="M189.947 168.873a53.21 54.737 0 0 0-23.828 24.002l46.805 48.65c45.109 18.015 52.128 6.557 26.058-30.507l-49.035-42.145z" fill="#fff" fill-rule="evenodd"/><path d="M87.415 86.295l1.573-32.809-23.82-14.381 12.134 17.078s2.472 18.876 0 17.528c-2.472-1.348-28.539-27.865-28.539-27.865l-23.37-3.82 11.011 10.112L47.415 78.88l-17.528 2.023 14.382 15.73 23.37 4.719.45-8.54 9.663.9-1.124-8.764z" fill="#d8c5c3" fill-rule="evenodd"/></svg>