<svg xmlns="http://www.w3.org/2000/svg" xmlns:xlink="http://www.w3.org/1999/xlink" viewBox="0 0 300 300" height="300" width="300"><path d="M300 300H0c85.393-79.081 181.162-145.193 300-182.47z" fill="#b88584" fill-rule="evenodd"/><path d="M140.414 170.291l-14.847 10.398 4.504 4.178a54.823 91.632 71.517 0 0-40.058 66.191l-21.69 12.538 6.44 13.95 23.118-12.962a54.823 91.632 71.517 0 0 96.693 10.484 54.823 91.632 71.517 0 0 9.603-3.605l21.99 24.434 27.89-20.987-21.152-19.302a54.823 91.632 71.517 0 0 31.195-61.585 54.823 91.632 71.517 0 0-16.025-19.488l19.67-11.941-15.95-7.078-18.975 11.97a54.823 91.632 71.517 0 0-64.243.951 54.823 91.632 71.517 0 0-8.762 2.64 54.823 91.632 71.517 0 0-12.964 5.075l-6.437-5.86zm29.291 6.493a43.634 72.931 71.517 0 1 50.015-1.037l-8.153 5.143 11.547 8.798 11.468-6.962a43.634 72.931 71.517 0 1 11.152 14.421 43.634 72.931 71.517 0 1-23.927 48.336l-13.541-12.357-24.432 15.735 10.306 11.45a43.634 72.931 71.517 0 1-3.742 1.34 43.634 72.931 71.517 0 1-75.331-6.705l11.39-6.386-7.585-14.184-11.983 6.926a43.634 72.931 71.517 0 1 30.013-50.099l4.49 4.165 15.02-10.51-2.73-2.487a43.634 72.931 71.517 0 1 9.049-3.486 43.634 72.931 71.517 0 1 6.974-2.101z" fill="#ddb9b8" fill-rule="evenodd"/><path id="a" d="M179.43 156.515l-13.297 7.678-31.52-12.023 10.926-5.502-26.792-19.185 24.81 1.794L94.882 26.824l63.738 92.95 10.375-22.51 3.743 33.7 11.611-7.106z" fill="#fff" fill-rule="evenodd"/><use height="100%" width="100%" transform="rotate(-15 111.297 376.562)" xlink:href="#a"/><use height="100%" width="100%" transform="rotate(-45 111.441 295.49)" xlink:href="#a"/></svg>