<svg xmlns="http://www.w3.org/2000/svg" viewBox="0 0 600.00001 300" height="115" width="302"><path d="M400.134 149.134v5.966h-21.552l-2.65 4.642h-47.415l-2.323-4.642h-16.248l-3.98 5.192h-62.374c.014-3.598-1.034-6.55-4.6-7.969h-17.217c-4.258.994-4.544 4.485-4.667 8.081h-9.289v8.952h-87.534l-1.324-4.641h-17.242l13.594 52.724 15.621-.204c9.251-10.668 21.75-19.8 39.39-26.495h35.636v15.123h19.814l4.336-4.336h13.365v5.39c-6.756 9.01-11.293 19.133-12.427 30.953 0 0 23.916 6.563 24.854 6.563.938 0 2.578-5.157 2.578-5.157l-3.516-2.109c-.374-8.496 2.017-15.888 6.328-22.51h41.5l7.974-11.724h72.916c-8.721 10.185-12.313 22.292-13.833 35.172l20.396 10.78 1.88-5.624-3.052-1.172c-1.306-11.718.912-23.1 6.17-34.193h13.67l5.712-5.712v-17.858l-3.878-1.04v-5.293h8.754l2.853 1.645h21.221v-15.336h-22.714l-2.486 4.06h-6.914v-9.364l-5.024-2.904v-6.96h-6.303zM124.84 188.63h30.48c-9.743 3.857-19.596 9.096-26.25 16.04l-4.23-16.04zm150.52 13.365h16.885l-2.349 6.562H271.61l3.75-6.562z" fill="#c7c7c7" fill-rule="evenodd"/></svg>