<svg xmlns="http://www.w3.org/2000/svg" width="302" height="115" viewBox="0 0 600.00001 300"><path d="M163.39 216.443l-16.247-51.726h17.905l.663 3.647h42.11v-9.283h8.953c.275-5.98 2.047-7.724 4.974-7.96h15.916c4.058 1.148 4.492 4.641 4.642 7.96l60.678-.001 3.648-3.979 21.22.663 1.327 3.317h5.968l2.321-3.317h20.89l2.652-11.605h3.647v11.937l6.964 3.647h54.71v4.974h38.794v17.242h-38.131v3.979H367.31v19.894h-10.942l-4.31-4.31H335.81c-6.662 25.957 1.65 38.546 12.269 49.073l-13.595 12.932c-18.04-18.786-26.971-38.815-17.574-61.342h-7.957l-6.632 10.61h-40.784c-5.223 7.17-7.447 15.84-8.952 24.869l3.978 1.99-3.315 6.63c-7.826-1.87-15.462-.686-23.874-11.936 3.387-9.298 6.595-18.637 14.59-26.858v-5.968H230.7l-5.306 6.631h-16.247l-3.647-4.642v-8.62l-28.516 15.583v5.97z" fill="#c7c7c7" fill-rule="evenodd"/></svg>