<svg xmlns="http://www.w3.org/2000/svg" viewBox="0 0 600.00001 300" height="115" width="302"><path d="M67.286 132.733v6.639H56.5v-6.247H39.472c-8.842 2.47-14.617 8.887-18.164 18.164v50.798c3.547 9.278 9.322 15.694 18.164 18.164H56.5v-6.246h10.786v6.639h259.392c5.432-1.714 10.834-3.466 11.83-11.831v-7.862h25.064l8.228-8.229v16.743h20.717v-65.554H371.8v16.743l-8.228-8.229h-25.063v-7.861c-.997-8.366-6.4-10.118-11.831-11.831z" fill="#ced0cd" fill-rule="evenodd"/><path d="M446.775 94.26c-17.352-.859-42.775 22.953-18.129 38.778-6.766 64.75 93.724-5.985 31.305-24.482-.835-9.847-6.386-13.96-13.176-14.296zm64.911 49.198c-14.49-.297-29.585 9.254-40.271 38.483 7.801 8.614 15.126 17.312 8.223 28.462a21.994 22.42 0 0 0-21.985-22.22 21.994 22.42 0 0 0-21.996 22.418 21.994 22.42 0 0 0 21.996 22.424 21.994 22.42 0 0 0 .988-.036v8.264c33.514 44.776 125.34 24.862 131.235.556a47.253 41.293 0 0 0 46.992-41.28 47.253 41.293 0 0 0-47.252-41.292 47.253 41.293 0 0 0-47.252 41.291 47.253 41.293 0 0 0 15.989 30.912l-.377-.117c-35.629-19.561-25.368-49.467-9.65-67.26-8.264-10.164-22.15-20.309-36.64-20.605z" fill="#fff" fill-rule="evenodd"/></svg>