<svg xmlns="http://www.w3.org/2000/svg" viewBox="0 0 300 300" height="300" width="300"><path d="M19.775 50.564L59.44 91.852l5.022-4.5c-21.607-19.767-39.207-34.82-44.686-36.788zm54.065 45.45l-5.59 5.01 57.092 59.427 8.373-7.504c-18.629-18.032-40.23-38.723-59.875-56.933zm69.03 65.799l-8.718 7.812 39.328 40.938-17.078.449 9.887 11.685-23.37 10.338 23.821.45-10.787 16.628 18.877-10.338-7.191 26.967 17.527-20.674 6.742 24.72 2.696-30.112s19.327 21.572 21.574 21.572-9.889-30.562-9.889-30.562l26.518-12.135-25.168-1.797-.452-4.943 8.09-10.788-13.033 7.192-3.146-2.697v-19.325l-7.639 13.034-5.395-2.698-1.796-19.326-5.393 18.877s-15.104-14.954-36.006-35.268z" fill="#fff" fill-rule="evenodd"/><path d="M40.36 49.895l75.163 56.962 3.733-4.144-78.897-52.818zm86.634 57.998l-4.1 4.55 62.667 47.49 7.21-8.003-65.777-44.037zm73.516 49.216l-7.576 8.41 29.841 22.616s-20.339 3.497-20.021 4.133c.318.635 20.021.953 20.021.953l-9.216 12.394 15.89-4.767-7.627 20.338 15.254-14.936 15.89 13.666-8.263-20.975 15.254 2.225-12.076-9.535 18.433-6.356-19.068-.634 15.254-10.807s-16.526 2.544-17.797 2.861c-1.271.318 4.131-18.75 4.131-18.75s-11.758 15.254-11.758 17.16c0 1.907-5.72-13.029-5.72-13.029l-2.542 13.983-28.304-18.95z" fill="#fff" fill-rule="evenodd"/></svg>