<svg xmlns="http://www.w3.org/2000/svg" xmlns:xlink="http://www.w3.org/1999/xlink" viewBox="0 0 600.00001 300" height="115" width="302"><defs><linearGradient id="a"><stop offset="0" stop-color="#fff"/><stop offset="1" stop-color="#fff" stop-opacity="0"/></linearGradient><radialGradient gradientUnits="userSpaceOnUse" gradientTransform="matrix(2.6087 0 0 1.54388 -93.913 15.484)" r="110.313" fy="156.951" fx="141.323" cy="156.951" cx="141.323" id="b" xlink:href="#a"/></defs><path d="M360.734 65.014L213.159 72.39l63.2 195.647L112.123 84.88l-63.567 42.004 202.745 131.25L1.44 146.75l-32.919 17.028 300.826 111.817c77.546-21.63 184.708-62.517 274.718-92.522l-14.756-25.541-228.387 102.495 203.982-126.901-52.22-55.623L281.78 265.934z" fill="url(#b)" fill-rule="evenodd"/><path d="M232.456 263.674c-13.01 10.997-60.565 13.995-67.544-26.677-3.59-24.531 24.749-68.69 84.572-23.84 25.592-10.077 48.006-5.056 67.544 13.623l-1.135-54.49-15.325-38.029-38.597 3.406c-6.627-3.973-4.163-7.946-1.135-11.92l-6.811-7.378.567-7.947c4.042-7.43 9.211-12.606 14.758-17.028l7.946-.567c8.42 1.988 16.943 4.492 26.11 10.216l26.11 22.137 16.46 41.434c16.31 27.164 25.307 56.654 24.974 89.113-.367 3.297-.505 6.685-4.541 8.514-5.96.473-10.874-.1-15.325-1.135-31.02 14.666-79.425 23.168-118.628.568z" fill="#fff" fill-rule="evenodd"/></svg>