<svg xmlns="http://www.w3.org/2000/svg" width="302" height="115" viewBox="0 0 600 300"><path d="M192.5 130.5L173 150.068h-18.432l-8.068 8.069H35.264L31 150.75H11.25L5 157v46.006l6.25 6.25H31l4.264-7.385H146.5l8.068 8.068H173l19.5 19.567H205v-5h5.5v4.625L339 200.006c12.82-13.87 9.716-27.076 0-40.006l-128.5-29.125v4.625H205v-5z" fill="#cdcfcc" fill-rule="evenodd"/><path d="M511.945 101.656l-6.363 8.84-1.06 29.697 10.251-25.101-2.828-13.436zm-72.832 2.121l.707 7.073 20.153 20.505-14.496-24.396-6.364-3.182zm125.158 6.72l-6.718 1.06-26.162 29.697 32.173-24.395.707-6.363zm-204.353 18.03l10.605 11.313 38.891 8.133-33.586-19.446h-15.91zm185.969 77.075l40.658 14.496 12.375-3.184-9.193-7.07-43.84-4.242zm-124.451 4.595l-46.315 11.668-2.476 4.596 9.546 3.889 39.245-20.153zm33.587 12.729l-24.394 13.789-5.305 12.02 10.254-1.768 19.445-24.041zm93.338 4.949l33.235 24.041 7.424-2.828-10.96-8.484-29.699-12.729zm-34.295.707l8.84 28.992 12.727 4.596-2.475-15.557-19.092-18.031z" fill="#929390" fill-rule="evenodd"/><path d="M423.203 112.264l-15.91 16.263-19.445-1.06 8.132 13.08-16.617 24.75 31.112-8.486 21.214 23.687-2.123-30.758 19.094-6.365-21.922-8.13-3.535-22.981zm88.389 10.252l.707 22.275-18.385 14.494 20.86 1.414 2.474 31.113 16.617-30.052 31.114 2.123-20.506-20.154 6.01-21.213-20.506 12.728-18.385-12.728zm-41.365 67.882l-7.073 25.102-14.847-.354 13.08 14.497-5.657 17.324 17.325-8.485 14.85 8.838-1.061-14.142 20.506-13.787-26.871-1.77-10.252-27.223z" fill="#fff" fill-rule="evenodd"/></svg>