<svg xmlns="http://www.w3.org/2000/svg" viewBox="0 0 300 300" height="300" width="300"><path d="M95.28 283.371l-61.573-79.1 3.596-5.393-24.27-56.18 5.394-4.044L6.292 117.08l1.348-16.18 21.573-7.19 1.798-13.933-10.787-23.82 24.27-25.617 17.078-.45 7.64-12.134 42.697-1.349 45.842 41.348 28.763-1.348 41.798 40.449 8.539 34.606 31.01 61.572-21.572 7.64-10.337 25.618-75.954 43.146-26.966-8.54z" fill="#9cb3ba" fill-rule="evenodd"/><path d="M116.852 57.756l-17.528.898-8.09 7.192 3.147 19.326 75.055 86.29h5.843l58.426 63.82c-9.258 18.414 13.834 29.915 32.36 13.032 18.524-16.882 3.843-36.048-12.585-32.357l-36.404-36.404 4.944-4.045 19.326 17.976 4.943-5.392-19.775-19.326 1.798-4.495-40.898-43.595-9.44.9-61.122-63.82zm107.416 40l-5.844 6.74 8.539 11.236-10.785 8.989c22.193 20.087 44.837 39.882 47.19 72.808l19.325-12.584c2.464-41.86-34.612-60.656-58.425-87.19zM56.18 160.226l-13.934 5.393c20.637 37.94 44.245 72.907 57.078 118.65l29.213-17.976c-6.85-33.054-21.885-62.015-38.201-90.336l-18.428 7.64-15.728-23.37z" fill="#fff" fill-rule="evenodd"/></svg>