<svg xmlns="http://www.w3.org/2000/svg" viewBox="0 0 300 300" height="300" width="300"><path d="M144.268 10.115c-6.21 51.241-7.446 119.062-8.362 187.95-6.332-5.03-13.838-7.725-21.525-7.727-20.974 0-34.163 9.29-34.163 33.492.017 13.515 2.763 30.241 7.248 41.547l-11.34 1.816c.666-2.71 1.212-5.708-.626-14.032s-8.303-20.734-19.72-20.734c-11.418 0-18.926 10.722-18.926 23.753s9.255 24.045 15.638 24.494c.645-.007 178.516 0 178.516 0 25.79-7.636 11.343-28.696-15.73-15.73l-1.874-3.014a25.252 25.252 0 0 0 5.469-15.637c-.003-10.245-6.216-19.486-15.756-23.43.013-.354.022-.71.026-1.064 0-14.893-8.149-26.966-18.202-26.967-10.052 0-18.201 12.074-18.2 26.967.006 5.182 1.02 10.251 2.921 14.601a25.212 25.212 0 0 0-1.908 7.616c-9.855 1.24-17.183 8.723-17.193 17.558.008 3.039.895 6.025 2.576 8.672l-5.215-.129c.863-7.255 1.639-14.506 2.342-21.754a49.95 49.95 0 0 0 2.093-14.205 50.44 50.44 0 0 0-.363-5.642c5.628-73.21 3.056-146.011-7.726-218.4zM241.57 188.99c-10.301 0-18.652 8.452-18.652 18.877 0 10.425 8.351 18.876 18.652 18.875 10.3 0 18.65-8.45 18.65-18.875.001-10.425-8.349-18.876-18.65-18.877z" fill="#fff"/></svg>