<svg xmlns="http://www.w3.org/2000/svg" width="300" height="300" viewBox="0 0 300 300"><path d="M67.055 116.631c-23.969-27.39-5.508-75.247 48.552-70.255 54.061 4.992 34.231 33.363 60.135 68.666l18.75-.635c-21.966-27.793-8.063-83.614-79.954-82.736-71.89.878-89.922 60.155-62.102 88.456z" fill="#fff" fill-rule="evenodd"/><path d="M29.873 257.733c-8.987-.23-9.498-16.502-6.674-39.089-13.976-13.044-2.86-18.165-2.542-26.695-14.007-14.176 9.129-31.323 14.3-47.034-12.156-14.834-14.17-27.209 1.59-35.275L69.28 87.076l15.89-.318 20.338 22.246h8.263v8.263l27.33-.318v-6.991h11.124l8.273-14.33 31.769 8.292 39.089.953c13.467 8.506 18.407 20.524 17.479 34.958l-40.678 36.228h-54.979c-9.243 3.8-21.242-.392-22.564 26.377-4.332 45.276-25.047 34.9-42.902 40.36H54.343l-9.534-9.851 2.543 24.152z" fill="#a2b7be" fill-rule="evenodd"/><path d="M226.579 112.89a25.583 16.525 83.567 0 0-13.763 24.577l32.637-3.68a25.583 16.525 83.567 0 0-18.874-20.897z" fill="#6f7a7f" fill-rule="evenodd"/><path d="M228.178 128.072c12.428 14.433 62.234 30.348 27.33 42.903 2.127 19.707 36.38 55.477 6.356 59.11 8.22 42.298-27.206 17.19-20.974-4.767 9.189-31.444-7.02-64.725-12.712-97.246z" fill="#fff" fill-rule="evenodd"/></svg>