<svg xmlns="http://www.w3.org/2000/svg" viewBox="0 0 300 300" height="300" width="300"><path d="M112.808 81.576c24.08-1.282 47.365-3.812 79.549 7.64v82.696l-77.906 20.875z" fill="#b1c097" fill-rule="evenodd"/><path d="M138.875 14.611v28.313h-4.494v20.674h4.494v24.129c-11.703 1.293-22.363 7.295-24.27 18.568-22.619 12.095-35.9 29.283-45.392 48.539l8.988 79.549 27.416-12.584c5.761 17.14 13.07 33.118 28.315 43.144l14.605-2.02c27.865 6.848 29.322-3.429 36.629-21.798l16.629-12.135-4.494-111.908c-6.614-.179-10.664-1.057-13.483-2.271V55.059h-6.293v55.119c-1.234-1.216-2.528-2.417-4.494-3.434-.767-12.278-14.385-18.99-28.314-19.287v-23.86h4.045V42.925h-4.045V14.61zm5.393 80.448c10.92 0 19.775 4.024 19.775 8.988.002 4.965-8.852 8.99-19.775 8.99-10.923 0-19.778-4.025-19.776-8.99 0-4.964 8.854-8.988 19.776-8.988z" fill="#fff" fill-rule="evenodd"/><path d="M82.246 102.25c-15.222 31.59-39.075 47.882-29.662 123.145 0 0 40.902 35.499 38.65 33.707-15.942-12.692 20.996-112.94 23.82-110.561-21.604-12.148-26.185-29.533-32.808-46.291zm136.178 7.64l-52.584 43.145c6.696 38.067 22.14 75.461 14.832 114.606l55.73-27.866c20.469-54.762-5.353-92.214-17.978-129.884z" fill="#b1c097" fill-rule="evenodd"/></svg>