<svg xmlns="http://www.w3.org/2000/svg" viewBox="0 0 300 300" height="300" width="300"><path d="M79.549 112.586L3.146 300h19.776l56.627-187.414zm143.088 0L279.266 300h19.773l-76.402-187.414zm-116.57 37.303L71.01 300h18.877l16.18-150.111zm90.052 0L212.3 300h18.877l-35.057-150.111zm-40.615 22.922L144.717 300h20.674l-9.887-127.19z" fill="#ae8282" fill-rule="evenodd"/><path d="M161.582 19.34c-2.85.001-5.824.156-8.93.478-66.248 6.877-58.963 90.908-48.384 92.319L119.1 84.273l34.156-11.685 12.584 15.28 32.36-13.034 27.415 7.64s-6.1-63.166-64.033-63.134zm-30.348 85.607l.45 22.022 18.427 11.236 15.28-17.08-8.09-15.28-26.067-.898zM64.72 120.676l-19.776 2.248-9.886 35.506 26.515 17.976 2.248-9.437 18.875 12.584 10.787-19.326-28.763-39.551zm199.097 31.011l-7.64 4.944-9.438.45-6.742 15.28 20.225 2.698 11.685-14.383-8.09-8.988zm-90.785 30.561l-21.572 3.147-7.191 9.437 17.527 16.629 12.135-13.033-.899-16.18zm42.246 55.73l-2.695 10.336 9.887 9.89 7.64-8.99-4.045-10.786-10.787-.45z" fill="#fff" fill-rule="evenodd"/></svg>